if (_typeface_js && _typeface_js.loadFace) _typeface_js.loadFace({"glyphs":{"0":{"ha":785,"x_min":36,"x_max":749,"o":"m 393 -14 q 128 114 219 -14 q 36 486 36 242 q 128 858 36 731 q 393 986 219 986 q 658 858 567 986 q 749 486 749 731 q 658 114 749 242 q 393 -14 567 -14 m 393 131 q 510 218 471 131 q 549 486 549 306 q 510 755 549 668 q 393 842 472 842 q 275 755 314 842 q 236 486 236 668 q 275 218 236 306 q 393 131 314 131 z "},"1":{"ha":785,"x_min":139,"x_max":675,"o":"m 163 149 l 319 149 l 319 749 l 139 642 l 139 819 l 389 972 l 519 972 l 519 149 l 675 149 l 675 0 l 163 0 l 163 149 z "},"2":{"ha":785,"x_min":51,"x_max":733,"o":"m 78 144 q 267 301 171 210 q 431 497 363 392 q 499 699 499 603 q 465 793 499 758 q 374 828 432 828 q 252 794 310 828 q 158 703 194 760 l 51 814 q 185 941 100 896 q 375 986 271 986 q 613 912 526 986 q 700 706 700 838 q 604 443 700 583 q 343 149 508 303 l 733 149 l 733 0 l 78 0 l 78 144 z "},"3":{"ha":785,"x_min":60,"x_max":729,"o":"m 383 -12 q 189 27 274 -12 q 61 139 104 67 l 158 247 q 257 174 197 201 q 375 146 317 146 q 487 185 444 146 q 529 290 529 225 q 478 399 529 360 q 336 438 426 438 l 253 438 l 253 579 l 335 579 q 451 619 407 579 q 496 719 496 658 q 463 799 496 771 q 365 826 429 826 q 249 800 303 826 q 153 725 194 774 l 60 835 q 199 944 110 904 q 390 985 288 985 q 550 954 481 985 q 657 869 619 924 q 694 742 694 814 q 656 610 694 668 q 542 517 617 551 q 683 424 636 483 q 729 276 729 364 q 686 125 729 190 q 565 24 643 60 q 383 -12 486 -12 z "},"4":{"ha":785,"x_min":26,"x_max":758,"o":"m 456 151 l 26 151 l 26 290 l 443 972 l 656 972 l 656 310 l 758 310 l 758 151 l 656 151 l 656 0 l 456 0 l 456 151 m 456 310 l 456 701 l 214 310 l 456 310 z "},"5":{"ha":785,"x_min":51,"x_max":733,"o":"m 371 -14 q 185 28 272 -14 q 51 138 97 69 l 138 264 q 246 175 188 206 q 365 144 304 144 q 488 195 443 144 q 533 335 533 246 q 494 464 533 417 q 385 511 454 511 q 305 487 343 511 q 247 422 267 463 l 82 422 l 129 972 l 703 972 l 703 814 l 306 814 l 288 603 q 351 642 307 626 q 438 658 394 658 q 592 619 525 658 q 697 506 660 579 q 733 338 733 433 q 688 153 733 232 q 561 30 643 74 q 371 -14 479 -14 z "},"6":{"ha":785,"x_min":51,"x_max":735,"o":"m 400 -14 q 217 33 296 -14 q 94 165 138 79 q 51 361 51 250 q 131 660 51 519 q 348 890 211 800 q 650 993 485 979 l 669 843 q 469 769 560 825 q 326 624 378 713 q 410 643 365 643 q 648 554 561 643 q 735 314 735 465 q 693 142 735 217 q 576 27 651 68 q 400 -14 500 -14 m 399 146 q 501 192 463 146 q 539 315 539 239 q 501 438 539 392 q 399 483 463 483 q 296 438 335 483 q 257 315 257 392 q 296 192 257 238 q 399 146 335 146 z "},"7":{"ha":785,"x_min":63,"x_max":724,"o":"m 236 0 q 300 449 244 254 q 483 814 356 644 l 63 814 l 63 972 l 724 972 l 724 843 q 510 472 585 693 q 436 0 436 251 l 236 0 z "},"8":{"ha":785,"x_min":44,"x_max":740,"o":"m 393 -14 q 209 22 288 -14 q 88 124 131 58 q 44 276 44 189 q 88 420 44 354 q 203 515 131 486 q 112 598 147 538 q 76 722 76 658 q 116 861 76 801 q 227 953 156 921 q 393 986 299 986 q 559 953 488 986 q 669 861 631 921 q 708 722 708 801 q 673 598 708 658 q 583 515 638 538 q 698 420 656 486 q 740 276 740 354 q 697 124 740 190 q 576 22 654 58 q 393 -14 497 -14 m 393 585 q 478 618 446 585 q 511 706 511 651 q 478 794 511 761 q 393 828 446 828 q 306 794 339 828 q 274 706 274 761 q 306 618 274 651 q 393 585 339 585 m 393 144 q 501 186 461 144 q 542 297 542 228 q 501 406 542 365 q 393 447 461 447 q 284 407 325 447 q 243 297 243 367 q 284 186 243 228 q 393 144 325 144 z "},"9":{"ha":785,"x_min":51,"x_max":735,"o":"m 117 131 q 331 210 233 153 q 471 350 428 268 q 376 331 424 331 q 206 372 279 331 q 92 488 132 414 q 51 658 51 563 q 93 828 51 754 q 210 944 135 903 q 386 985 286 985 q 569 938 490 985 q 692 805 649 890 q 735 606 735 719 q 661 299 735 435 q 454 81 588 164 q 147 -21 321 -3 l 117 131 m 386 476 q 490 526 451 476 q 529 657 529 575 q 490 781 529 735 q 388 826 451 826 q 285 780 324 826 q 247 657 247 733 q 285 526 247 576 q 386 476 324 476 z "},"\u0000":{"ha":0,"x_min":0,"x_max":0,"o":""},"\r":{"ha":324,"x_min":0,"x_max":0,"o":""}," ":{"ha":324,"x_min":0,"x_max":0,"o":""},"A":{"ha":890,"x_min":21,"x_max":869,"o":"m 613 161 l 278 161 l 229 0 l 21 0 l 357 972 l 533 972 l 869 0 l 661 0 l 613 161 m 564 321 l 446 710 l 326 321 l 564 321 z "},"Á":{"ha":890,"x_min":21,"x_max":869,"o":"m 613 161 l 278 161 l 229 0 l 21 0 l 357 972 l 533 972 l 869 0 l 661 0 l 613 161 m 564 321 l 446 710 l 326 321 l 564 321 m 493 1274 l 665 1274 l 517 1049 l 375 1049 l 493 1274 z "},"Ă":{"ha":890,"x_min":21,"x_max":869,"o":"m 613 161 l 278 161 l 229 0 l 21 0 l 357 972 l 533 972 l 869 0 l 661 0 l 613 161 m 564 321 l 446 710 l 326 321 l 564 321 m 446 1049 q 281 1103 339 1049 q 221 1260 222 1157 l 339 1260 q 368 1186 340 1213 q 446 1160 396 1160 q 524 1186 496 1160 q 553 1260 551 1213 l 671 1260 q 613 1103 671 1158 q 446 1049 554 1049 z "},"Ắ":{"ha":890,"x_min":21,"x_max":869,"o":"m 613 161 l 278 161 l 229 0 l 21 0 l 357 972 l 533 972 l 869 0 l 661 0 l 613 161 m 564 321 l 446 710 l 326 321 l 564 321 m 457 1447 l 583 1447 l 494 1296 l 390 1296 l 457 1447 m 446 1049 q 281 1103 339 1049 q 221 1260 222 1157 l 339 1260 q 368 1186 340 1213 q 446 1160 396 1160 q 524 1186 496 1160 q 553 1260 551 1213 l 671 1260 q 613 1103 671 1158 q 446 1049 554 1049 z "},"Ặ":{"ha":890,"x_min":21,"x_max":869,"o":"m 613 161 l 278 161 l 229 0 l 21 0 l 357 972 l 533 972 l 869 0 l 661 0 l 613 161 m 564 321 l 446 710 l 326 321 l 564 321 m 446 -283 q 379 -257 406 -283 q 353 -192 353 -231 q 379 -126 353 -153 q 446 -100 406 -100 q 513 -126 486 -100 q 539 -192 539 -153 q 513 -257 539 -231 q 446 -283 486 -283 m 446 1049 q 281 1103 339 1049 q 221 1260 222 1157 l 339 1260 q 368 1186 340 1213 q 446 1160 396 1160 q 524 1186 496 1160 q 553 1260 551 1213 l 671 1260 q 613 1103 671 1158 q 446 1049 554 1049 z "},"Ằ":{"ha":890,"x_min":21,"x_max":869,"o":"m 613 161 l 278 161 l 229 0 l 21 0 l 357 972 l 533 972 l 869 0 l 661 0 l 613 161 m 564 321 l 446 710 l 326 321 l 564 321 m 301 1447 l 428 1447 l 494 1296 l 389 1296 l 301 1447 m 446 1049 q 281 1103 339 1049 q 221 1260 222 1157 l 339 1260 q 368 1186 340 1213 q 446 1160 396 1160 q 524 1186 496 1160 q 553 1260 551 1213 l 671 1260 q 613 1103 671 1158 q 446 1049 554 1049 z "},"Ẳ":{"ha":890,"x_min":21,"x_max":869,"o":"m 613 161 l 278 161 l 229 0 l 21 0 l 357 972 l 533 972 l 869 0 l 661 0 l 613 161 m 564 321 l 446 710 l 326 321 l 564 321 m 399 1293 q 412 1347 399 1328 q 451 1388 425 1367 q 478 1410 469 1400 q 486 1435 486 1419 q 476 1453 486 1446 q 449 1461 467 1461 q 407 1450 428 1461 q 375 1421 386 1439 l 321 1472 q 379 1524 342 1504 q 458 1543 417 1543 q 544 1515 511 1543 q 578 1442 578 1486 q 567 1397 578 1414 q 535 1363 556 1381 q 504 1329 514 1343 q 493 1293 494 1315 l 399 1293 m 446 1049 q 281 1103 339 1049 q 221 1260 222 1157 l 339 1260 q 368 1186 340 1213 q 446 1160 396 1160 q 524 1186 496 1160 q 553 1260 551 1213 l 671 1260 q 613 1103 671 1158 q 446 1049 554 1049 z "},"Ẵ":{"ha":890,"x_min":21,"x_max":869,"o":"m 613 161 l 278 161 l 229 0 l 21 0 l 357 972 l 533 972 l 869 0 l 661 0 l 613 161 m 564 321 l 446 710 l 326 321 l 564 321 m 519 1311 q 475 1320 494 1311 q 426 1347 456 1329 q 394 1367 406 1361 q 369 1374 382 1374 q 339 1359 353 1374 q 319 1318 325 1344 l 236 1318 q 367 1458 258 1458 q 413 1449 390 1458 q 465 1424 436 1440 q 500 1406 482 1414 q 531 1399 518 1399 q 578 1457 571 1399 l 658 1457 q 615 1349 651 1386 q 519 1311 579 1311 m 446 1049 q 281 1103 339 1049 q 221 1260 222 1157 l 339 1260 q 368 1186 340 1213 q 446 1160 396 1160 q 524 1186 496 1160 q 553 1260 551 1213 l 671 1260 q 613 1103 671 1158 q 446 1049 554 1049 z "},"Ǎ":{"ha":890,"x_min":21,"x_max":869,"o":"m 613 161 l 278 161 l 229 0 l 21 0 l 357 972 l 533 972 l 869 0 l 661 0 l 613 161 m 564 321 l 446 710 l 326 321 l 564 321 m 208 1274 l 363 1274 l 446 1165 l 529 1274 l 683 1274 l 497 1049 l 394 1049 l 208 1274 z "},"Â":{"ha":890,"x_min":21,"x_max":869,"o":"m 613 161 l 278 161 l 229 0 l 21 0 l 357 972 l 533 972 l 869 0 l 661 0 l 613 161 m 564 321 l 446 710 l 326 321 l 564 321 m 394 1274 l 497 1274 l 683 1049 l 529 1049 l 446 1157 l 363 1049 l 208 1049 l 394 1274 z "},"Ấ":{"ha":890,"x_min":21,"x_max":869,"o":"m 613 161 l 278 161 l 229 0 l 21 0 l 357 972 l 533 972 l 869 0 l 661 0 l 613 161 m 564 321 l 446 710 l 326 321 l 564 321 m 656 1393 l 782 1393 l 694 1243 l 590 1243 l 656 1393 m 394 1274 l 496 1274 l 683 1049 l 528 1049 l 446 1157 l 363 1049 l 208 1049 l 394 1274 z "},"Ậ":{"ha":890,"x_min":21,"x_max":869,"o":"m 613 161 l 278 161 l 229 0 l 21 0 l 357 972 l 533 972 l 869 0 l 661 0 l 613 161 m 564 321 l 446 710 l 326 321 l 564 321 m 446 -283 q 379 -257 406 -283 q 353 -192 353 -231 q 379 -126 353 -153 q 446 -100 406 -100 q 513 -126 486 -100 q 539 -192 539 -153 q 513 -257 539 -231 q 446 -283 486 -283 m 394 1274 l 497 1274 l 683 1049 l 529 1049 l 446 1157 l 363 1049 l 208 1049 l 394 1274 z "},"Ầ":{"ha":890,"x_min":21,"x_max":869,"o":"m 613 161 l 278 161 l 229 0 l 21 0 l 357 972 l 533 972 l 869 0 l 661 0 l 613 161 m 564 321 l 446 710 l 326 321 l 564 321 m 549 1393 l 675 1393 l 740 1243 l 636 1243 l 549 1393 m 394 1274 l 496 1274 l 683 1049 l 528 1049 l 446 1157 l 363 1049 l 208 1049 l 394 1274 z "},"Ẩ":{"ha":890,"x_min":21,"x_max":869,"o":"m 613 161 l 278 161 l 229 0 l 21 0 l 357 972 l 533 972 l 869 0 l 661 0 l 613 161 m 564 321 l 446 710 l 326 321 l 564 321 m 635 1218 q 649 1274 635 1254 q 688 1313 663 1293 q 714 1336 706 1326 q 722 1361 722 1346 q 712 1379 722 1372 q 685 1386 701 1386 q 644 1376 664 1386 q 611 1346 624 1365 l 557 1397 q 616 1449 578 1429 q 694 1468 654 1468 q 781 1440 747 1468 q 814 1368 814 1413 q 803 1324 814 1340 q 771 1289 792 1307 q 740 1256 750 1269 q 729 1218 731 1242 l 635 1218 m 394 1274 l 496 1274 l 683 1049 l 528 1049 l 446 1157 l 363 1049 l 208 1049 l 394 1274 z "},"Ẫ":{"ha":890,"x_min":21,"x_max":869,"o":"m 613 161 l 278 161 l 229 0 l 21 0 l 357 972 l 533 972 l 869 0 l 661 0 l 613 161 m 564 321 l 446 710 l 326 321 l 564 321 m 518 1317 q 475 1326 494 1317 q 426 1353 456 1335 q 369 1379 389 1379 q 339 1365 353 1379 q 319 1324 325 1350 l 236 1324 q 367 1464 258 1464 q 411 1456 390 1464 q 464 1431 432 1447 q 491 1417 468 1428 q 531 1406 514 1406 q 578 1463 571 1406 l 658 1463 q 615 1354 651 1392 q 518 1317 579 1317 m 394 1274 l 496 1274 l 683 1049 l 528 1049 l 446 1157 l 363 1049 l 208 1049 l 394 1274 z "},"Ä":{"ha":890,"x_min":21,"x_max":869,"o":"m 613 161 l 278 161 l 229 0 l 21 0 l 357 972 l 533 972 l 869 0 l 661 0 l 613 161 m 564 321 l 446 710 l 326 321 l 564 321 m 300 1049 q 233 1074 260 1049 q 207 1140 207 1100 q 233 1206 207 1181 q 300 1232 260 1232 q 367 1206 340 1232 q 393 1140 393 1179 q 367 1075 393 1101 q 300 1049 340 1049 m 592 1049 q 525 1075 551 1049 q 499 1140 499 1101 q 525 1206 499 1179 q 592 1232 551 1232 q 658 1206 632 1232 q 685 1140 685 1181 q 658 1074 685 1100 q 592 1049 632 1049 z "},"Ạ":{"ha":890,"x_min":21,"x_max":869,"o":"m 613 161 l 278 161 l 229 0 l 21 0 l 357 972 l 533 972 l 869 0 l 661 0 l 613 161 m 564 321 l 446 710 l 326 321 l 564 321 m 446 -283 q 379 -257 406 -283 q 353 -192 353 -231 q 379 -126 353 -153 q 446 -100 406 -100 q 513 -126 486 -100 q 539 -192 539 -153 q 513 -257 539 -231 q 446 -283 486 -283 z "},"À":{"ha":890,"x_min":21,"x_max":869,"o":"m 613 161 l 278 161 l 229 0 l 21 0 l 357 972 l 533 972 l 869 0 l 661 0 l 613 161 m 564 321 l 446 710 l 326 321 l 564 321 m 225 1274 l 397 1274 l 515 1049 l 374 1049 l 225 1274 z "},"Ả":{"ha":890,"x_min":21,"x_max":869,"o":"m 613 161 l 278 161 l 229 0 l 21 0 l 357 972 l 533 972 l 869 0 l 661 0 l 613 161 m 564 321 l 446 710 l 326 321 l 564 321 m 381 1049 q 396 1113 381 1089 q 439 1163 411 1138 q 470 1197 460 1182 q 481 1233 481 1213 q 435 1269 481 1269 q 347 1200 382 1269 l 274 1268 q 347 1344 300 1317 q 449 1371 393 1371 q 566 1337 524 1371 q 608 1243 608 1303 q 594 1185 608 1208 q 554 1133 581 1161 q 520 1091 532 1110 q 508 1049 508 1072 l 381 1049 z "},"Ā":{"ha":890,"x_min":21,"x_max":869,"o":"m 613 161 l 278 161 l 229 0 l 21 0 l 357 972 l 533 972 l 869 0 l 661 0 l 613 161 m 564 321 l 446 710 l 326 321 l 564 321 m 208 1188 l 683 1188 l 683 1072 l 208 1072 l 208 1188 z "},"Ą":{"ha":890,"x_min":21,"x_max":893,"o":"m 893 -269 q 826 -310 867 -296 q 744 -325 786 -325 q 629 -288 671 -325 q 588 -182 588 -251 q 718 0 588 -69 l 661 0 l 613 161 l 278 161 l 229 0 l 21 0 l 357 972 l 533 972 l 869 0 l 839 0 q 715 -158 715 -85 q 732 -194 715 -179 q 782 -208 749 -208 q 868 -186 808 -208 l 893 -269 m 564 321 l 446 710 l 326 321 l 564 321 z "},"Å":{"ha":890,"x_min":21,"x_max":869,"o":"m 613 161 l 278 161 l 229 0 l 21 0 l 357 972 l 533 972 l 869 0 l 661 0 l 613 161 m 564 321 l 446 710 l 326 321 l 564 321 m 446 1000 q 340 1039 381 1000 q 299 1139 299 1078 q 340 1239 299 1200 q 446 1278 381 1278 q 552 1239 511 1278 q 593 1139 593 1200 q 552 1039 593 1078 q 446 1000 511 1000 m 446 1068 q 495 1088 476 1068 q 514 1139 514 1107 q 495 1190 514 1171 q 446 1210 476 1210 q 397 1190 415 1210 q 378 1139 378 1171 q 397 1088 378 1107 q 446 1068 415 1068 z "},"Ǻ":{"ha":890,"x_min":21,"x_max":869,"o":"m 524 1314 l 394 1314 l 471 1465 l 622 1465 l 524 1314 m 446 1000 q 340 1039 381 1000 q 299 1139 299 1078 q 340 1239 299 1200 q 446 1278 381 1278 q 551 1239 510 1278 q 592 1139 592 1200 q 551 1039 592 1078 q 446 1000 510 1000 m 446 1210 q 396 1190 415 1210 q 376 1139 376 1169 q 396 1088 376 1108 q 446 1068 415 1068 q 495 1088 476 1068 q 514 1139 514 1107 q 495 1190 514 1171 q 446 1210 476 1210 m 613 161 l 278 161 l 229 0 l 21 0 l 357 972 l 533 972 l 869 0 l 661 0 l 613 161 m 564 321 l 446 710 l 326 321 l 564 321 z "},"Ã":{"ha":890,"x_min":21,"x_max":869,"o":"m 613 161 l 278 161 l 229 0 l 21 0 l 357 972 l 533 972 l 869 0 l 661 0 l 613 161 m 564 321 l 446 710 l 326 321 l 564 321 m 210 1049 q 252 1178 210 1132 q 356 1224 294 1224 q 408 1213 383 1224 q 463 1185 433 1203 q 495 1167 479 1175 q 524 1158 511 1158 q 561 1229 561 1158 l 672 1229 q 628 1094 672 1140 q 522 1049 585 1049 q 469 1059 493 1049 q 406 1092 446 1069 q 358 1114 371 1114 q 333 1096 343 1114 q 321 1049 322 1078 l 210 1049 z "},"Æ":{"ha":1149,"x_min":21,"x_max":1096,"o":"m 724 813 l 724 585 l 1050 585 l 1050 428 l 724 428 l 724 160 l 1096 160 l 1096 0 l 525 0 l 525 136 l 294 136 l 242 0 l 21 0 l 454 972 l 1096 972 l 1096 813 l 724 813 m 525 286 l 525 729 l 353 286 l 525 286 z "},"Ǽ":{"ha":1149,"x_min":21,"x_max":1096,"o":"m 724 813 l 724 585 l 1050 585 l 1050 428 l 724 428 l 724 160 l 1096 160 l 1096 0 l 525 0 l 525 136 l 294 136 l 242 0 l 21 0 l 454 972 l 1096 972 l 1096 813 l 724 813 m 525 286 l 525 729 l 353 286 l 525 286 m 710 1274 l 882 1274 l 733 1049 l 592 1049 l 710 1274 z "},"B":{"ha":842,"x_min":94,"x_max":789,"o":"m 94 972 l 410 972 q 665 910 578 972 q 753 729 753 849 q 721 610 753 660 q 621 525 689 560 l 621 521 q 749 432 710 488 q 789 286 789 376 q 708 74 789 147 q 471 0 626 0 l 94 0 l 94 972 m 428 585 q 519 617 486 585 q 551 708 551 650 q 515 792 551 765 q 401 818 478 818 l 294 818 l 294 585 l 428 585 m 456 154 q 556 192 521 154 q 592 299 592 229 q 549 406 592 372 q 410 439 506 439 l 294 439 l 294 154 l 456 154 z "},"C":{"ha":861,"x_min":43,"x_max":826,"o":"m 493 -14 q 255 47 357 -14 q 98 222 153 108 q 43 486 43 335 q 98 751 43 638 q 255 925 153 864 q 494 986 357 986 q 698 942 611 986 q 826 815 785 897 l 713 715 q 497 826 639 826 q 308 740 374 826 q 243 486 243 653 q 307 233 243 321 q 492 146 371 146 q 713 257 642 146 l 826 157 q 698 31 785 75 q 493 -14 611 -14 z "},"Ć":{"ha":861,"x_min":43,"x_max":826,"o":"m 493 -14 q 255 47 357 -14 q 98 222 153 108 q 43 486 43 335 q 98 751 43 638 q 255 925 153 864 q 494 986 357 986 q 698 942 611 986 q 826 815 785 897 l 713 715 q 497 826 639 826 q 308 740 374 826 q 243 486 243 653 q 307 233 243 321 q 492 146 371 146 q 713 257 642 146 l 826 157 q 698 31 785 75 q 493 -14 611 -14 m 540 1274 l 713 1274 l 564 1049 l 422 1049 l 540 1274 z "},"Č":{"ha":861,"x_min":43,"x_max":826,"o":"m 493 -14 q 255 47 357 -14 q 98 222 153 108 q 43 486 43 335 q 98 751 43 638 q 255 925 153 864 q 494 986 357 986 q 698 942 611 986 q 826 815 785 897 l 713 715 q 497 826 639 826 q 308 740 374 826 q 243 486 243 653 q 307 233 243 321 q 492 146 371 146 q 713 257 642 146 l 826 157 q 698 31 785 75 q 493 -14 611 -14 m 256 1274 l 410 1274 l 493 1165 l 576 1274 l 731 1274 l 544 1049 l 442 1049 l 256 1274 z "},"Ç":{"ha":861,"x_min":43,"x_max":826,"o":"m 492 146 q 713 257 642 146 l 826 157 q 719 42 790 86 q 551 -11 649 -1 l 506 -92 q 600 -120 564 -92 q 636 -199 636 -149 q 591 -298 636 -260 q 472 -336 546 -336 q 401 -328 438 -336 q 342 -307 364 -319 l 360 -231 q 451 -247 404 -247 q 496 -235 481 -247 q 511 -203 511 -224 q 485 -169 511 -181 q 418 -160 460 -157 l 378 -114 l 436 -11 q 228 65 317 1 q 91 238 139 129 q 43 486 43 346 q 98 751 43 638 q 255 925 153 864 q 494 986 357 986 q 698 942 611 986 q 826 815 785 897 l 713 715 q 497 826 639 826 q 308 740 374 826 q 243 486 243 653 q 307 233 243 321 q 492 146 371 146 z "},"Ĉ":{"ha":861,"x_min":43,"x_max":826,"o":"m 493 -14 q 255 47 357 -14 q 98 222 153 108 q 43 486 43 335 q 98 751 43 638 q 255 925 153 864 q 494 986 357 986 q 698 942 611 986 q 826 815 785 897 l 713 715 q 497 826 639 826 q 308 740 374 826 q 243 486 243 653 q 307 233 243 321 q 492 146 371 146 q 713 257 642 146 l 826 157 q 698 31 785 75 q 493 -14 611 -14 m 442 1274 l 544 1274 l 731 1049 l 576 1049 l 493 1157 l 410 1049 l 256 1049 l 442 1274 z "},"Ċ":{"ha":861,"x_min":43,"x_max":826,"o":"m 493 -14 q 255 47 357 -14 q 98 222 153 108 q 43 486 43 335 q 98 751 43 638 q 255 925 153 864 q 494 986 357 986 q 698 942 611 986 q 826 815 785 897 l 713 715 q 497 826 639 826 q 308 740 374 826 q 243 486 243 653 q 307 233 243 321 q 492 146 371 146 q 713 257 642 146 l 826 157 q 698 31 785 75 q 493 -14 611 -14 m 493 1049 q 426 1075 453 1049 q 400 1140 400 1101 q 426 1206 400 1179 q 493 1232 453 1232 q 560 1206 533 1232 q 586 1140 586 1179 q 560 1075 586 1101 q 493 1049 533 1049 z "},"D":{"ha":892,"x_min":94,"x_max":840,"o":"m 94 972 l 442 972 q 840 504 840 972 q 796 213 840 324 q 656 51 751 103 q 404 0 561 0 l 94 0 l 94 972 m 425 160 q 551 194 504 160 q 620 304 599 229 q 642 504 642 379 q 594 741 642 669 q 438 813 547 813 l 294 813 l 294 160 l 425 160 z "},"Ð":{"ha":900,"x_min":14,"x_max":849,"o":"m 450 972 q 849 504 849 972 q 804 213 849 324 q 665 51 760 103 q 413 0 569 0 l 103 0 l 103 397 l 14 397 l 14 542 l 103 542 l 103 972 l 450 972 m 433 160 q 560 194 513 160 q 628 304 607 229 q 650 504 650 379 q 602 740 650 668 q 446 813 554 813 l 303 813 l 303 542 l 524 542 l 524 397 l 303 397 l 303 160 l 433 160 z "},"Ď":{"ha":892,"x_min":94,"x_max":840,"o":"m 94 972 l 442 972 q 840 504 840 972 q 796 213 840 324 q 656 51 751 103 q 404 0 561 0 l 94 0 l 94 972 m 425 160 q 551 194 504 160 q 620 304 599 229 q 642 504 642 379 q 594 741 642 669 q 438 813 547 813 l 294 813 l 294 160 l 425 160 m 208 1274 l 363 1274 l 446 1165 l 529 1274 l 683 1274 l 497 1049 l 394 1049 l 208 1274 z "},"Đ":{"ha":900,"x_min":14,"x_max":849,"o":"m 450 972 q 849 504 849 972 q 804 213 849 324 q 665 51 760 103 q 413 0 569 0 l 103 0 l 103 397 l 14 397 l 14 542 l 103 542 l 103 972 l 450 972 m 433 160 q 560 194 513 160 q 628 304 607 229 q 650 504 650 379 q 602 740 650 668 q 446 813 554 813 l 303 813 l 303 542 l 524 542 l 524 397 l 303 397 l 303 160 l 433 160 z "},"Ḍ":{"ha":892,"x_min":94,"x_max":840,"o":"m 94 972 l 442 972 q 840 504 840 972 q 796 213 840 324 q 656 51 751 103 q 404 0 561 0 l 94 0 l 94 972 m 425 160 q 551 194 504 160 q 620 304 599 229 q 642 504 642 379 q 594 741 642 669 q 438 813 547 813 l 294 813 l 294 160 l 425 160 m 431 -283 q 364 -257 390 -283 q 338 -192 338 -231 q 364 -126 338 -153 q 431 -100 390 -100 q 497 -126 471 -100 q 524 -192 524 -153 q 497 -257 524 -231 q 431 -283 471 -283 z "},"Ḏ":{"ha":892,"x_min":94,"x_max":840,"o":"m 94 972 l 442 972 q 840 504 840 972 q 796 213 840 324 q 656 51 751 103 q 404 0 561 0 l 94 0 l 94 972 m 425 160 q 551 194 504 160 q 620 304 599 229 q 642 504 642 379 q 594 741 642 669 q 438 813 547 813 l 294 813 l 294 160 l 425 160 m 193 -100 l 668 -100 l 668 -215 l 193 -215 l 193 -100 z "},"E":{"ha":793,"x_min":94,"x_max":740,"o":"m 94 972 l 740 972 l 740 813 l 294 813 l 294 590 l 692 590 l 692 431 l 294 431 l 294 160 l 740 160 l 740 0 l 94 0 l 94 972 z "},"É":{"ha":793,"x_min":94,"x_max":740,"o":"m 94 972 l 740 972 l 740 813 l 294 813 l 294 590 l 692 590 l 692 431 l 294 431 l 294 160 l 740 160 l 740 0 l 94 0 l 94 972 m 468 1274 l 640 1274 l 492 1049 l 350 1049 l 468 1274 z "},"Ĕ":{"ha":793,"x_min":94,"x_max":740,"o":"m 94 972 l 740 972 l 740 813 l 294 813 l 294 590 l 692 590 l 692 431 l 294 431 l 294 160 l 740 160 l 740 0 l 94 0 l 94 972 m 421 1049 q 256 1103 314 1049 q 196 1260 197 1157 l 314 1260 q 343 1186 315 1213 q 421 1160 371 1160 q 499 1186 471 1160 q 528 1260 526 1213 l 646 1260 q 588 1103 646 1158 q 421 1049 529 1049 z "},"Ě":{"ha":793,"x_min":94,"x_max":740,"o":"m 94 972 l 740 972 l 740 813 l 294 813 l 294 590 l 692 590 l 692 431 l 294 431 l 294 160 l 740 160 l 740 0 l 94 0 l 94 972 m 183 1274 l 338 1274 l 421 1165 l 504 1274 l 658 1274 l 472 1049 l 369 1049 l 183 1274 z "},"Ê":{"ha":793,"x_min":94,"x_max":740,"o":"m 94 972 l 740 972 l 740 813 l 294 813 l 294 590 l 692 590 l 692 431 l 294 431 l 294 160 l 740 160 l 740 0 l 94 0 l 94 972 m 369 1274 l 472 1274 l 658 1049 l 504 1049 l 421 1157 l 338 1049 l 183 1049 l 369 1274 z "},"Ế":{"ha":793,"x_min":94,"x_max":757,"o":"m 94 972 l 740 972 l 740 813 l 294 813 l 294 590 l 692 590 l 692 431 l 294 431 l 294 160 l 740 160 l 740 0 l 94 0 l 94 972 m 631 1393 l 757 1393 l 669 1243 l 565 1243 l 631 1393 m 369 1274 l 471 1274 l 658 1049 l 503 1049 l 421 1157 l 338 1049 l 183 1049 l 369 1274 z "},"Ệ":{"ha":793,"x_min":94,"x_max":740,"o":"m 94 972 l 740 972 l 740 813 l 294 813 l 294 590 l 692 590 l 692 431 l 294 431 l 294 160 l 740 160 l 740 0 l 94 0 l 94 972 m 421 -283 q 354 -257 381 -283 q 328 -192 328 -231 q 354 -126 328 -153 q 421 -100 381 -100 q 488 -126 461 -100 q 514 -192 514 -153 q 488 -257 514 -231 q 421 -283 461 -283 m 369 1274 l 472 1274 l 658 1049 l 504 1049 l 421 1157 l 338 1049 l 183 1049 l 369 1274 z "},"Ề":{"ha":793,"x_min":94,"x_max":740,"o":"m 94 972 l 740 972 l 740 813 l 294 813 l 294 590 l 692 590 l 692 431 l 294 431 l 294 160 l 740 160 l 740 0 l 94 0 l 94 972 m 524 1393 l 650 1393 l 715 1243 l 611 1243 l 524 1393 m 369 1274 l 471 1274 l 658 1049 l 503 1049 l 421 1157 l 338 1049 l 183 1049 l 369 1274 z "},"Ể":{"ha":793,"x_min":94,"x_max":789,"o":"m 94 972 l 740 972 l 740 813 l 294 813 l 294 590 l 692 590 l 692 431 l 294 431 l 294 160 l 740 160 l 740 0 l 94 0 l 94 972 m 610 1218 q 624 1274 610 1254 q 663 1313 638 1293 q 689 1336 681 1326 q 697 1361 697 1346 q 687 1379 697 1372 q 660 1386 676 1386 q 619 1376 639 1386 q 586 1346 599 1365 l 532 1397 q 591 1449 553 1429 q 669 1468 629 1468 q 756 1440 722 1468 q 789 1368 789 1413 q 778 1324 789 1340 q 746 1289 767 1307 q 715 1256 725 1269 q 704 1218 706 1242 l 610 1218 m 369 1274 l 471 1274 l 658 1049 l 503 1049 l 421 1157 l 338 1049 l 183 1049 l 369 1274 z "},"Ễ":{"ha":793,"x_min":94,"x_max":740,"o":"m 94 972 l 740 972 l 740 813 l 294 813 l 294 590 l 692 590 l 692 431 l 294 431 l 294 160 l 740 160 l 740 0 l 94 0 l 94 972 m 493 1317 q 450 1326 469 1317 q 401 1353 431 1335 q 344 1379 364 1379 q 314 1365 328 1379 q 294 1324 300 1350 l 211 1324 q 342 1464 233 1464 q 386 1456 365 1464 q 439 1431 407 1447 q 466 1417 443 1428 q 506 1406 489 1406 q 553 1463 546 1406 l 633 1463 q 590 1354 626 1392 q 493 1317 554 1317 m 369 1274 l 471 1274 l 658 1049 l 503 1049 l 421 1157 l 338 1049 l 183 1049 l 369 1274 z "},"Ë":{"ha":793,"x_min":94,"x_max":740,"o":"m 94 972 l 740 972 l 740 813 l 294 813 l 294 590 l 692 590 l 692 431 l 294 431 l 294 160 l 740 160 l 740 0 l 94 0 l 94 972 m 275 1049 q 208 1074 235 1049 q 182 1140 182 1100 q 208 1206 182 1181 q 275 1232 235 1232 q 342 1206 315 1232 q 368 1140 368 1179 q 342 1075 368 1101 q 275 1049 315 1049 m 567 1049 q 500 1075 526 1049 q 474 1140 474 1101 q 500 1206 474 1179 q 567 1232 526 1232 q 633 1206 607 1232 q 660 1140 660 1181 q 633 1074 660 1100 q 567 1049 607 1049 z "},"Ė":{"ha":793,"x_min":94,"x_max":740,"o":"m 94 972 l 740 972 l 740 813 l 294 813 l 294 590 l 692 590 l 692 431 l 294 431 l 294 160 l 740 160 l 740 0 l 94 0 l 94 972 m 421 1049 q 354 1075 381 1049 q 328 1140 328 1101 q 354 1206 328 1179 q 421 1232 381 1232 q 488 1206 461 1232 q 514 1140 514 1179 q 488 1075 514 1101 q 421 1049 461 1049 z "},"Ẹ":{"ha":793,"x_min":94,"x_max":740,"o":"m 94 972 l 740 972 l 740 813 l 294 813 l 294 590 l 692 590 l 692 431 l 294 431 l 294 160 l 740 160 l 740 0 l 94 0 l 94 972 m 421 -283 q 354 -257 381 -283 q 328 -192 328 -231 q 354 -126 328 -153 q 421 -100 381 -100 q 488 -126 461 -100 q 514 -192 514 -153 q 488 -257 514 -231 q 421 -283 461 -283 z "},"È":{"ha":793,"x_min":94,"x_max":740,"o":"m 94 972 l 740 972 l 740 813 l 294 813 l 294 590 l 692 590 l 692 431 l 294 431 l 294 160 l 740 160 l 740 0 l 94 0 l 94 972 m 200 1274 l 372 1274 l 490 1049 l 349 1049 l 200 1274 z "},"Ẻ":{"ha":793,"x_min":94,"x_max":740,"o":"m 94 972 l 740 972 l 740 813 l 294 813 l 294 590 l 692 590 l 692 431 l 294 431 l 294 160 l 740 160 l 740 0 l 94 0 l 94 972 m 356 1049 q 371 1113 356 1089 q 414 1163 386 1138 q 445 1197 435 1182 q 456 1233 456 1213 q 410 1269 456 1269 q 322 1200 357 1269 l 249 1268 q 322 1344 275 1317 q 424 1371 368 1371 q 541 1337 499 1371 q 583 1243 583 1303 q 569 1185 583 1208 q 529 1133 556 1161 q 495 1091 507 1110 q 483 1049 483 1072 l 356 1049 z "},"Ē":{"ha":793,"x_min":94,"x_max":740,"o":"m 94 972 l 740 972 l 740 813 l 294 813 l 294 590 l 692 590 l 692 431 l 294 431 l 294 160 l 740 160 l 740 0 l 94 0 l 94 972 m 183 1188 l 658 1188 l 658 1072 l 183 1072 l 183 1188 z "},"Ę":{"ha":793,"x_min":94,"x_max":794,"o":"m 794 -269 q 728 -310 768 -296 q 646 -325 688 -325 q 531 -288 572 -325 q 489 -182 489 -251 q 619 0 489 -69 l 94 0 l 94 972 l 740 972 l 740 813 l 294 813 l 294 590 l 692 590 l 692 431 l 294 431 l 294 160 l 740 160 l 740 0 q 617 -158 617 -85 q 633 -194 617 -179 q 683 -208 650 -208 q 769 -186 710 -208 l 794 -269 z "},"Ẽ":{"ha":793,"x_min":94,"x_max":740,"o":"m 94 972 l 740 972 l 740 813 l 294 813 l 294 590 l 692 590 l 692 431 l 294 431 l 294 160 l 740 160 l 740 0 l 94 0 l 94 972 m 185 1049 q 227 1178 185 1132 q 331 1224 269 1224 q 383 1213 358 1224 q 438 1185 408 1203 q 470 1167 454 1175 q 499 1158 486 1158 q 536 1229 536 1158 l 647 1229 q 603 1094 647 1140 q 497 1049 560 1049 q 444 1059 468 1049 q 381 1092 421 1069 q 333 1114 346 1114 q 308 1096 318 1114 q 296 1049 297 1078 l 185 1049 z "},"F":{"ha":797,"x_min":94,"x_max":747,"o":"m 94 972 l 747 972 l 747 813 l 294 813 l 294 553 l 717 553 l 717 393 l 294 393 l 294 0 l 94 0 l 94 972 z "},"G":{"ha":907,"x_min":43,"x_max":839,"o":"m 839 528 l 839 0 l 688 0 l 669 54 q 450 -14 575 -14 q 150 118 257 -14 q 43 486 43 250 q 99 751 43 638 q 256 925 154 864 q 493 986 357 986 q 699 941 611 986 q 828 815 788 896 l 714 715 q 623 798 679 769 q 494 826 567 826 q 308 739 372 826 q 243 486 243 651 q 303 223 243 313 q 476 133 363 133 q 642 178 568 133 l 642 386 l 431 386 l 431 528 l 839 528 z "},"Ğ":{"ha":907,"x_min":43,"x_max":839,"o":"m 839 528 l 839 0 l 688 0 l 669 54 q 450 -14 575 -14 q 150 118 257 -14 q 43 486 43 250 q 99 751 43 638 q 256 925 154 864 q 493 986 357 986 q 699 941 611 986 q 828 815 788 896 l 714 715 q 623 798 679 769 q 494 826 567 826 q 308 739 372 826 q 243 486 243 651 q 303 223 243 313 q 476 133 363 133 q 642 178 568 133 l 642 386 l 431 386 l 431 528 l 839 528 m 483 1049 q 318 1103 376 1049 q 258 1260 260 1157 l 376 1260 q 406 1186 378 1213 q 483 1160 433 1160 q 561 1186 533 1160 q 590 1260 589 1213 l 708 1260 q 650 1103 708 1158 q 483 1049 592 1049 z "},"Ǧ":{"ha":907,"x_min":43,"x_max":839,"o":"m 839 528 l 839 0 l 688 0 l 669 54 q 450 -14 575 -14 q 150 118 257 -14 q 43 486 43 250 q 99 751 43 638 q 256 925 154 864 q 493 986 357 986 q 699 941 611 986 q 828 815 788 896 l 714 715 q 623 798 679 769 q 494 826 567 826 q 308 739 372 826 q 243 486 243 651 q 303 223 243 313 q 476 133 363 133 q 642 178 568 133 l 642 386 l 431 386 l 431 528 l 839 528 m 246 1274 l 400 1274 l 483 1165 l 567 1274 l 721 1274 l 535 1049 l 432 1049 l 246 1274 z "},"Ĝ":{"ha":907,"x_min":43,"x_max":839,"o":"m 839 528 l 839 0 l 688 0 l 669 54 q 450 -14 575 -14 q 150 118 257 -14 q 43 486 43 250 q 99 751 43 638 q 256 925 154 864 q 493 986 357 986 q 699 941 611 986 q 828 815 788 896 l 714 715 q 623 798 679 769 q 494 826 567 826 q 308 739 372 826 q 243 486 243 651 q 303 223 243 313 q 476 133 363 133 q 642 178 568 133 l 642 386 l 431 386 l 431 528 l 839 528 m 432 1274 l 535 1274 l 721 1049 l 567 1049 l 483 1157 l 400 1049 l 246 1049 l 432 1274 z "},"Ģ":{"ha":907,"x_min":43,"x_max":839,"o":"m 839 528 l 839 0 l 688 0 l 669 54 q 450 -14 575 -14 q 150 118 257 -14 q 43 486 43 250 q 99 751 43 638 q 256 925 154 864 q 493 986 357 986 q 699 941 611 986 q 828 815 788 896 l 714 715 q 623 798 679 769 q 494 826 567 826 q 308 739 372 826 q 243 486 243 651 q 303 223 243 313 q 476 133 363 133 q 642 178 568 133 l 642 386 l 431 386 l 431 528 l 839 528 m 475 -100 q 555 -131 525 -100 q 585 -212 585 -162 q 555 -327 585 -267 q 475 -429 525 -387 l 406 -375 q 465 -290 442 -331 q 402 -260 426 -286 q 378 -196 378 -235 q 405 -126 378 -153 q 475 -100 432 -100 z "},"Ġ":{"ha":907,"x_min":43,"x_max":839,"o":"m 839 528 l 839 0 l 688 0 l 669 54 q 450 -14 575 -14 q 150 118 257 -14 q 43 486 43 250 q 99 751 43 638 q 256 925 154 864 q 493 986 357 986 q 699 941 611 986 q 828 815 788 896 l 714 715 q 623 798 679 769 q 494 826 567 826 q 308 739 372 826 q 243 486 243 651 q 303 223 243 313 q 476 133 363 133 q 642 178 568 133 l 642 386 l 431 386 l 431 528 l 839 528 m 483 1049 q 417 1075 443 1049 q 390 1140 390 1101 q 417 1206 390 1179 q 483 1232 443 1232 q 550 1206 524 1232 q 576 1140 576 1179 q 550 1075 576 1101 q 483 1049 524 1049 z "},"Ḡ":{"ha":907,"x_min":43,"x_max":839,"o":"m 839 528 l 839 0 l 688 0 l 669 54 q 450 -14 575 -14 q 150 118 257 -14 q 43 486 43 250 q 99 751 43 638 q 256 925 154 864 q 493 986 357 986 q 699 941 611 986 q 828 815 788 896 l 714 715 q 623 798 679 769 q 494 826 567 826 q 308 739 372 826 q 243 486 243 651 q 303 223 243 313 q 476 133 363 133 q 642 178 568 133 l 642 386 l 431 386 l 431 528 l 839 528 m 246 1188 l 721 1188 l 721 1072 l 246 1072 l 246 1188 z "},"H":{"ha":961,"x_min":94,"x_max":867,"o":"m 94 972 l 294 972 l 294 575 l 668 575 l 668 972 l 867 972 l 867 0 l 668 0 l 668 415 l 294 415 l 294 0 l 94 0 l 94 972 z "},"Ħ":{"ha":985,"x_min":24,"x_max":963,"o":"m 963 689 l 879 689 l 879 0 l 679 0 l 679 415 l 306 415 l 306 0 l 107 0 l 107 689 l 24 689 l 24 814 l 107 814 l 107 972 l 306 972 l 306 814 l 679 814 l 679 972 l 879 972 l 879 814 l 963 814 l 963 689 m 679 689 l 306 689 l 306 575 l 679 575 l 679 689 z "},"Ḫ":{"ha":961,"x_min":94,"x_max":867,"o":"m 94 972 l 294 972 l 294 575 l 668 575 l 668 972 l 867 972 l 867 0 l 668 0 l 668 415 l 294 415 l 294 0 l 94 0 l 94 972 m 482 -311 q 317 -257 375 -311 q 257 -100 258 -203 l 376 -100 q 405 -174 378 -147 q 482 -200 432 -200 q 560 -174 532 -200 q 589 -100 588 -147 l 707 -100 q 649 -256 707 -201 q 482 -311 590 -311 z "},"Ĥ":{"ha":961,"x_min":94,"x_max":867,"o":"m 94 972 l 294 972 l 294 575 l 668 575 l 668 972 l 867 972 l 867 0 l 668 0 l 668 415 l 294 415 l 294 0 l 94 0 l 94 972 m 431 1274 l 533 1274 l 719 1049 l 565 1049 l 482 1157 l 399 1049 l 244 1049 l 431 1274 z "},"Ḥ":{"ha":961,"x_min":94,"x_max":867,"o":"m 94 972 l 294 972 l 294 575 l 668 575 l 668 972 l 867 972 l 867 0 l 668 0 l 668 415 l 294 415 l 294 0 l 94 0 l 94 972 m 482 -283 q 415 -257 442 -283 q 389 -192 389 -231 q 415 -126 389 -153 q 482 -100 442 -100 q 549 -126 522 -100 q 575 -192 575 -153 q 549 -257 575 -231 q 482 -283 522 -283 z "},"I":{"ha":449,"x_min":125,"x_max":324,"o":"m 125 972 l 324 972 l 324 0 l 125 0 l 125 972 z "},"Ĳ":{"ha":1132,"x_min":125,"x_max":1039,"o":"m 125 972 l 324 972 l 324 0 l 125 0 l 125 972 m 722 -14 q 574 13 644 -14 q 456 86 504 39 l 535 221 q 619 165 574 185 q 713 146 665 146 q 810 190 781 146 q 839 335 839 235 l 839 972 l 1039 972 l 1039 313 q 961 67 1039 147 q 722 -14 883 -14 z "},"Í":{"ha":449,"x_min":125,"x_max":444,"o":"m 125 972 l 324 972 l 324 0 l 125 0 l 125 972 m 272 1274 l 444 1274 l 296 1049 l 154 1049 l 272 1274 z "},"Ĭ":{"ha":449,"x_min":0,"x_max":450,"o":"m 125 972 l 324 972 l 324 0 l 125 0 l 125 972 m 225 1049 q 60 1103 118 1049 q 0 1260 1 1157 l 118 1260 q 147 1186 119 1213 q 225 1160 175 1160 q 303 1186 275 1160 q 332 1260 331 1213 l 450 1260 q 392 1103 450 1158 q 225 1049 333 1049 z "},"Ǐ":{"ha":449,"x_min":-12,"x_max":463,"o":"m 125 972 l 324 972 l 324 0 l 125 0 l 125 972 m -12 1274 l 142 1274 l 225 1165 l 308 1274 l 463 1274 l 276 1049 l 174 1049 l -12 1274 z "},"Î":{"ha":449,"x_min":-12,"x_max":463,"o":"m 125 972 l 324 972 l 324 0 l 125 0 l 125 972 m 174 1274 l 276 1274 l 463 1049 l 308 1049 l 225 1157 l 142 1049 l -12 1049 l 174 1274 z "},"Ï":{"ha":449,"x_min":-14,"x_max":464,"o":"m 125 972 l 324 972 l 324 0 l 125 0 l 125 972 m 79 1049 q 13 1074 39 1049 q -14 1140 -14 1100 q 13 1206 -14 1181 q 79 1232 39 1232 q 146 1206 119 1232 q 172 1140 172 1179 q 146 1075 172 1101 q 79 1049 119 1049 m 371 1049 q 304 1075 331 1049 q 278 1140 278 1101 q 304 1206 278 1179 q 371 1232 331 1232 q 438 1206 411 1232 q 464 1140 464 1181 q 438 1074 464 1100 q 371 1049 411 1049 z "},"İ":{"ha":449,"x_min":125,"x_max":324,"o":"m 125 972 l 324 972 l 324 0 l 125 0 l 125 972 m 225 1049 q 158 1075 185 1049 q 132 1140 132 1101 q 158 1206 132 1179 q 225 1232 185 1232 q 292 1206 265 1232 q 318 1140 318 1179 q 292 1075 318 1101 q 225 1049 265 1049 z "},"Ị":{"ha":449,"x_min":125,"x_max":324,"o":"m 125 972 l 324 972 l 324 0 l 125 0 l 125 972 m 225 -283 q 158 -257 185 -283 q 132 -192 132 -231 q 158 -126 132 -153 q 225 -100 185 -100 q 292 -126 265 -100 q 318 -192 318 -153 q 292 -257 318 -231 q 225 -283 265 -283 z "},"Ì":{"ha":449,"x_min":4,"x_max":324,"o":"m 125 972 l 324 972 l 324 0 l 125 0 l 125 972 m 4 1274 l 176 1274 l 294 1049 l 153 1049 l 4 1274 z "},"Ỉ":{"ha":449,"x_min":53,"x_max":388,"o":"m 125 972 l 324 972 l 324 0 l 125 0 l 125 972 m 160 1049 q 175 1113 160 1089 q 218 1163 190 1138 q 249 1197 239 1182 q 260 1233 260 1213 q 214 1269 260 1269 q 126 1200 161 1269 l 53 1268 q 126 1344 79 1317 q 228 1371 172 1371 q 345 1337 303 1371 q 388 1243 388 1303 q 374 1185 388 1208 q 333 1133 360 1161 q 299 1091 311 1110 q 288 1049 288 1072 l 160 1049 z "},"Ī":{"ha":449,"x_min":-12,"x_max":463,"o":"m 125 972 l 324 972 l 324 0 l 125 0 l 125 972 m -12 1188 l 463 1188 l 463 1072 l -12 1072 l -12 1188 z "},"Į":{"ha":449,"x_min":49,"x_max":354,"o":"m 354 -269 q 288 -310 328 -296 q 206 -325 247 -325 q 90 -288 132 -325 q 49 -182 49 -251 q 179 0 49 -69 l 125 0 l 125 972 l 324 972 l 324 0 l 300 0 q 176 -158 176 -85 q 193 -194 176 -179 q 243 -208 210 -208 q 329 -186 269 -208 l 354 -269 z "},"Ĩ":{"ha":449,"x_min":-11,"x_max":451,"o":"m 125 972 l 324 972 l 324 0 l 125 0 l 125 972 m -11 1049 q 31 1178 -11 1132 q 135 1224 74 1224 q 188 1213 163 1224 q 242 1185 213 1203 q 274 1167 258 1175 q 303 1158 290 1158 q 340 1229 340 1158 l 451 1229 q 408 1094 451 1140 q 301 1049 364 1049 q 249 1059 272 1049 q 185 1092 225 1069 q 138 1114 150 1114 q 112 1096 122 1114 q 100 1049 101 1078 l -11 1049 z "},"J":{"ha":683,"x_min":7,"x_max":590,"o":"m 274 -14 q 126 13 196 -14 q 7 86 56 39 l 86 221 q 171 165 125 185 q 264 146 217 146 q 361 190 332 146 q 390 335 390 235 l 390 972 l 590 972 l 590 313 q 513 67 590 147 q 274 -14 435 -14 z "},"Ĵ":{"ha":683,"x_min":7,"x_max":608,"o":"m 274 -14 q 126 13 196 -14 q 7 86 56 39 l 86 221 q 171 165 125 185 q 264 146 217 146 q 361 190 332 146 q 390 335 390 235 l 390 972 l 590 972 l 590 313 q 513 67 590 147 q 274 -14 435 -14 m 319 1274 l 422 1274 l 608 1049 l 454 1049 l 371 1157 l 288 1049 l 133 1049 l 319 1274 z "},"K":{"ha":911,"x_min":94,"x_max":896,"o":"m 674 0 l 417 436 l 294 285 l 294 0 l 94 0 l 94 972 l 294 972 l 294 543 l 617 972 l 850 972 l 547 597 l 896 0 l 674 0 z "},"Ķ":{"ha":911,"x_min":94,"x_max":896,"o":"m 674 0 l 417 436 l 294 285 l 294 0 l 94 0 l 94 972 l 294 972 l 294 543 l 617 972 l 850 972 l 547 597 l 896 0 l 674 0 m 460 -100 q 540 -131 510 -100 q 569 -212 569 -162 q 540 -327 569 -267 q 460 -429 510 -387 l 390 -375 q 450 -290 426 -331 q 387 -260 411 -286 q 363 -196 363 -235 q 390 -126 363 -153 q 460 -100 417 -100 z "},"L":{"ha":785,"x_min":94,"x_max":753,"o":"m 94 972 l 294 972 l 294 160 l 753 160 l 753 0 l 94 0 l 94 972 z "},"Ĺ":{"ha":785,"x_min":94,"x_max":753,"o":"m 94 972 l 294 972 l 294 160 l 753 160 l 753 0 l 94 0 l 94 972 m 243 1274 l 415 1274 l 267 1049 l 125 1049 l 243 1274 z "},"Ľ":{"ha":785,"x_min":94,"x_max":753,"o":"m 94 972 l 294 972 l 294 160 l 753 160 l 753 0 l 94 0 l 94 972 m 607 986 q 687 955 657 986 q 717 874 717 924 q 687 761 717 821 q 608 658 657 701 l 538 711 q 597 796 579 761 q 534 826 558 800 q 510 890 510 851 q 537 960 510 933 q 607 986 564 986 z "},"Ļ":{"ha":785,"x_min":94,"x_max":753,"o":"m 94 972 l 294 972 l 294 160 l 753 160 l 753 0 l 94 0 l 94 972 m 414 -100 q 494 -131 464 -100 q 524 -212 524 -162 q 494 -327 524 -267 q 414 -429 464 -387 l 344 -375 q 404 -290 381 -331 q 341 -260 365 -286 q 317 -196 317 -235 q 344 -126 317 -153 q 414 -100 371 -100 z "},"Ŀ":{"ha":785,"x_min":94,"x_max":753,"o":"m 94 972 l 294 972 l 294 160 l 753 160 l 753 0 l 94 0 l 94 972 m 507 363 q 423 396 456 363 q 390 481 390 429 q 423 567 390 533 q 507 600 456 600 q 592 567 558 600 q 625 481 625 533 q 592 396 625 429 q 507 363 560 363 z "},"Ḷ":{"ha":785,"x_min":94,"x_max":753,"o":"m 94 972 l 294 972 l 294 160 l 753 160 l 753 0 l 94 0 l 94 972 m 415 -283 q 349 -257 375 -283 q 322 -192 322 -231 q 349 -126 322 -153 q 415 -100 375 -100 q 482 -126 456 -100 q 508 -192 508 -153 q 482 -257 508 -231 q 415 -283 456 -283 z "},"Ḹ":{"ha":785,"x_min":-42,"x_max":753,"o":"m 94 972 l 294 972 l 294 160 l 753 160 l 753 0 l 94 0 l 94 972 m 415 -283 q 349 -257 375 -283 q 322 -192 322 -231 q 349 -126 322 -153 q 415 -100 375 -100 q 482 -126 456 -100 q 508 -192 508 -153 q 482 -257 508 -231 q 415 -283 456 -283 m -42 1188 l 433 1188 l 433 1072 l -42 1072 l -42 1188 z "},"Ḻ":{"ha":785,"x_min":94,"x_max":753,"o":"m 94 972 l 294 972 l 294 160 l 753 160 l 753 0 l 94 0 l 94 972 m 178 -100 l 653 -100 l 653 -215 l 178 -215 l 178 -100 z "},"Ł":{"ha":785,"x_min":4,"x_max":753,"o":"m 753 160 l 753 0 l 94 0 l 94 356 l 4 318 l 4 474 l 94 511 l 94 972 l 294 972 l 294 596 l 510 686 l 510 525 l 294 438 l 294 160 l 753 160 z "},"M":{"ha":1133,"x_min":94,"x_max":1039,"o":"m 1039 972 l 1039 0 l 842 0 l 842 572 l 638 0 l 496 0 l 292 572 l 292 0 l 94 0 l 94 972 l 304 972 l 567 221 l 829 972 l 1039 972 z "},"Ṃ":{"ha":1133,"x_min":94,"x_max":1039,"o":"m 1039 972 l 1039 0 l 842 0 l 842 572 l 638 0 l 496 0 l 292 572 l 292 0 l 94 0 l 94 972 l 304 972 l 567 221 l 829 972 l 1039 972 m 567 -283 q 500 -257 526 -283 q 474 -192 474 -231 q 500 -126 474 -153 q 567 -100 526 -100 q 633 -126 607 -100 q 660 -192 660 -153 q 633 -257 660 -231 q 567 -283 607 -283 z "},"N":{"ha":971,"x_min":94,"x_max":876,"o":"m 876 972 l 876 0 l 692 0 l 293 639 l 293 0 l 94 0 l 94 972 l 288 972 l 678 343 l 678 972 l 876 972 z "},"Ń":{"ha":971,"x_min":94,"x_max":876,"o":"m 876 972 l 876 0 l 692 0 l 293 639 l 293 0 l 94 0 l 94 972 l 288 972 l 678 343 l 678 972 l 876 972 m 532 1274 l 704 1274 l 556 1049 l 414 1049 l 532 1274 z "},"Ň":{"ha":971,"x_min":94,"x_max":876,"o":"m 876 972 l 876 0 l 692 0 l 293 639 l 293 0 l 94 0 l 94 972 l 288 972 l 678 343 l 678 972 l 876 972 m 247 1274 l 401 1274 l 485 1165 l 568 1274 l 722 1274 l 536 1049 l 433 1049 l 247 1274 z "},"Ņ":{"ha":971,"x_min":94,"x_max":876,"o":"m 876 972 l 876 0 l 692 0 l 293 639 l 293 0 l 94 0 l 94 972 l 288 972 l 678 343 l 678 972 l 876 972 m 483 -100 q 563 -131 533 -100 q 593 -212 593 -162 q 563 -327 593 -267 q 483 -429 533 -387 l 414 -375 q 474 -290 450 -331 q 410 -260 435 -286 q 386 -196 386 -235 q 413 -126 386 -153 q 483 -100 440 -100 z "},"Ṅ":{"ha":971,"x_min":94,"x_max":876,"o":"m 876 972 l 876 0 l 692 0 l 293 639 l 293 0 l 94 0 l 94 972 l 288 972 l 678 343 l 678 972 l 876 972 m 485 1049 q 418 1075 444 1049 q 392 1140 392 1101 q 418 1206 392 1179 q 485 1232 444 1232 q 551 1206 525 1232 q 578 1140 578 1179 q 551 1075 578 1101 q 485 1049 525 1049 z "},"Ṇ":{"ha":971,"x_min":94,"x_max":876,"o":"m 876 972 l 876 0 l 692 0 l 293 639 l 293 0 l 94 0 l 94 972 l 288 972 l 678 343 l 678 972 l 876 972 m 485 -283 q 418 -257 444 -283 q 392 -192 392 -231 q 418 -126 392 -153 q 485 -100 444 -100 q 551 -126 525 -100 q 578 -192 578 -153 q 551 -257 578 -231 q 485 -283 525 -283 z "},"Ŋ":{"ha":971,"x_min":94,"x_max":876,"o":"m 94 972 l 288 972 l 678 344 l 678 972 l 876 972 l 876 -90 q 803 -304 876 -231 q 593 -378 731 -378 q 383 -308 464 -378 l 447 -185 q 578 -235 521 -235 q 656 -199 631 -235 q 681 -89 681 -162 l 679 19 l 293 639 l 293 0 l 94 0 l 94 972 z "},"Ṉ":{"ha":971,"x_min":94,"x_max":876,"o":"m 876 972 l 876 0 l 692 0 l 293 639 l 293 0 l 94 0 l 94 972 l 288 972 l 678 343 l 678 972 l 876 972 m 247 -100 l 722 -100 l 722 -215 l 247 -215 l 247 -100 z "},"Ñ":{"ha":971,"x_min":94,"x_max":876,"o":"m 876 972 l 876 0 l 692 0 l 293 639 l 293 0 l 94 0 l 94 972 l 288 972 l 678 343 l 678 972 l 876 972 m 249 1049 q 291 1178 249 1132 q 394 1224 333 1224 q 447 1213 422 1224 q 501 1185 472 1203 q 534 1167 518 1175 q 563 1158 550 1158 q 600 1229 600 1158 l 711 1229 q 667 1094 711 1140 q 561 1049 624 1049 q 508 1059 532 1049 q 444 1092 485 1069 q 397 1114 410 1114 q 372 1096 382 1114 q 360 1049 361 1078 l 249 1049 z "},"O":{"ha":958,"x_min":43,"x_max":915,"o":"m 479 -14 q 246 46 344 -14 q 95 218 147 106 q 43 486 43 331 q 95 754 43 642 q 246 926 147 867 q 479 986 344 986 q 713 926 615 986 q 863 754 811 867 q 915 486 915 642 q 863 218 915 331 q 713 46 811 106 q 479 -14 615 -14 m 479 144 q 653 235 590 144 q 717 486 717 326 q 653 737 717 646 q 479 828 590 828 q 306 737 369 828 q 243 486 243 646 q 306 235 243 326 q 479 144 369 144 z "},"Ó":{"ha":958,"x_min":43,"x_max":915,"o":"m 479 -14 q 246 46 344 -14 q 95 218 147 106 q 43 486 43 331 q 95 754 43 642 q 246 926 147 867 q 479 986 344 986 q 713 926 615 986 q 863 754 811 867 q 915 486 915 642 q 863 218 915 331 q 713 46 811 106 q 479 -14 615 -14 m 479 144 q 653 235 590 144 q 717 486 717 326 q 653 737 717 646 q 479 828 590 828 q 306 737 369 828 q 243 486 243 646 q 306 235 243 326 q 479 144 369 144 m 526 1274 l 699 1274 l 550 1049 l 408 1049 l 526 1274 z "},"Ŏ":{"ha":958,"x_min":43,"x_max":915,"o":"m 479 -14 q 246 46 344 -14 q 95 218 147 106 q 43 486 43 331 q 95 754 43 642 q 246 926 147 867 q 479 986 344 986 q 713 926 615 986 q 863 754 811 867 q 915 486 915 642 q 863 218 915 331 q 713 46 811 106 q 479 -14 615 -14 m 479 144 q 653 235 590 144 q 717 486 717 326 q 653 737 717 646 q 479 828 590 828 q 306 737 369 828 q 243 486 243 646 q 306 235 243 326 q 479 144 369 144 m 479 1049 q 314 1103 372 1049 q 254 1260 256 1157 l 372 1260 q 401 1186 374 1213 q 479 1160 429 1160 q 557 1186 529 1160 q 586 1260 585 1213 l 704 1260 q 646 1103 704 1158 q 479 1049 588 1049 z "},"Ǒ":{"ha":958,"x_min":43,"x_max":915,"o":"m 479 -14 q 246 46 344 -14 q 95 218 147 106 q 43 486 43 331 q 95 754 43 642 q 246 926 147 867 q 479 986 344 986 q 713 926 615 986 q 863 754 811 867 q 915 486 915 642 q 863 218 915 331 q 713 46 811 106 q 479 -14 615 -14 m 479 144 q 653 235 590 144 q 717 486 717 326 q 653 737 717 646 q 479 828 590 828 q 306 737 369 828 q 243 486 243 646 q 306 235 243 326 q 479 144 369 144 m 242 1274 l 396 1274 l 479 1165 l 563 1274 l 717 1274 l 531 1049 l 428 1049 l 242 1274 z "},"Ô":{"ha":958,"x_min":43,"x_max":915,"o":"m 479 -14 q 246 46 344 -14 q 95 218 147 106 q 43 486 43 331 q 95 754 43 642 q 246 926 147 867 q 479 986 344 986 q 713 926 615 986 q 863 754 811 867 q 915 486 915 642 q 863 218 915 331 q 713 46 811 106 q 479 -14 615 -14 m 479 144 q 653 235 590 144 q 717 486 717 326 q 653 737 717 646 q 479 828 590 828 q 306 737 369 828 q 243 486 243 646 q 306 235 243 326 q 479 144 369 144 m 428 1274 l 531 1274 l 717 1049 l 563 1049 l 479 1157 l 396 1049 l 242 1049 l 428 1274 z "},"Ố":{"ha":958,"x_min":43,"x_max":915,"o":"m 479 -14 q 246 46 344 -14 q 95 218 147 106 q 43 486 43 331 q 95 754 43 642 q 246 926 147 867 q 479 986 344 986 q 713 926 615 986 q 863 754 811 867 q 915 486 915 642 q 863 218 915 331 q 713 46 811 106 q 479 -14 615 -14 m 479 144 q 653 235 590 144 q 717 486 717 326 q 653 737 717 646 q 479 828 590 828 q 306 737 369 828 q 243 486 243 646 q 306 235 243 326 q 479 144 369 144 m 689 1393 l 815 1393 l 728 1243 l 624 1243 l 689 1393 m 428 1274 l 529 1274 l 717 1049 l 561 1049 l 479 1157 l 396 1049 l 242 1049 l 428 1274 z "},"Ộ":{"ha":958,"x_min":43,"x_max":915,"o":"m 479 -14 q 246 46 344 -14 q 95 218 147 106 q 43 486 43 331 q 95 754 43 642 q 246 926 147 867 q 479 986 344 986 q 713 926 615 986 q 863 754 811 867 q 915 486 915 642 q 863 218 915 331 q 713 46 811 106 q 479 -14 615 -14 m 479 144 q 653 235 590 144 q 717 486 717 326 q 653 737 717 646 q 479 828 590 828 q 306 737 369 828 q 243 486 243 646 q 306 235 243 326 q 479 144 369 144 m 479 -283 q 413 -257 439 -283 q 386 -192 386 -231 q 413 -126 386 -153 q 479 -100 439 -100 q 546 -126 519 -100 q 572 -192 572 -153 q 546 -257 572 -231 q 479 -283 519 -283 m 428 1274 l 531 1274 l 717 1049 l 563 1049 l 479 1157 l 396 1049 l 242 1049 l 428 1274 z "},"Ồ":{"ha":958,"x_min":43,"x_max":915,"o":"m 479 -14 q 246 46 344 -14 q 95 218 147 106 q 43 486 43 331 q 95 754 43 642 q 246 926 147 867 q 479 986 344 986 q 713 926 615 986 q 863 754 811 867 q 915 486 915 642 q 863 218 915 331 q 713 46 811 106 q 479 -14 615 -14 m 479 144 q 653 235 590 144 q 717 486 717 326 q 653 737 717 646 q 479 828 590 828 q 306 737 369 828 q 243 486 243 646 q 306 235 243 326 q 479 144 369 144 m 582 1393 l 708 1393 l 774 1243 l 669 1243 l 582 1393 m 428 1274 l 529 1274 l 717 1049 l 561 1049 l 479 1157 l 396 1049 l 242 1049 l 428 1274 z "},"Ổ":{"ha":958,"x_min":43,"x_max":915,"o":"m 479 -14 q 246 46 344 -14 q 95 218 147 106 q 43 486 43 331 q 95 754 43 642 q 246 926 147 867 q 479 986 344 986 q 713 926 615 986 q 863 754 811 867 q 915 486 915 642 q 863 218 915 331 q 713 46 811 106 q 479 -14 615 -14 m 479 144 q 653 235 590 144 q 717 486 717 326 q 653 737 717 646 q 479 828 590 828 q 306 737 369 828 q 243 486 243 646 q 306 235 243 326 q 479 144 369 144 m 668 1218 q 682 1274 668 1254 q 721 1313 696 1293 q 747 1336 739 1326 q 756 1361 756 1346 q 745 1379 756 1372 q 718 1386 735 1386 q 677 1376 697 1386 q 644 1346 657 1365 l 590 1397 q 649 1449 611 1429 q 728 1468 688 1468 q 814 1440 781 1468 q 847 1368 847 1413 q 836 1324 847 1340 q 804 1289 825 1307 q 774 1256 783 1269 q 763 1218 764 1242 l 668 1218 m 428 1274 l 529 1274 l 717 1049 l 561 1049 l 479 1157 l 396 1049 l 242 1049 l 428 1274 z "},"Ỗ":{"ha":958,"x_min":43,"x_max":915,"o":"m 479 -14 q 246 46 344 -14 q 95 218 147 106 q 43 486 43 331 q 95 754 43 642 q 246 926 147 867 q 479 986 344 986 q 713 926 615 986 q 863 754 811 867 q 915 486 915 642 q 863 218 915 331 q 713 46 811 106 q 479 -14 615 -14 m 479 144 q 653 235 590 144 q 717 486 717 326 q 653 737 717 646 q 479 828 590 828 q 306 737 369 828 q 243 486 243 646 q 306 235 243 326 q 479 144 369 144 m 551 1317 q 508 1326 528 1317 q 460 1353 489 1335 q 403 1379 422 1379 q 372 1365 386 1379 q 353 1324 358 1350 l 269 1324 q 400 1464 292 1464 q 444 1456 424 1464 q 497 1431 465 1447 q 524 1417 501 1428 q 564 1406 547 1406 q 611 1463 604 1406 l 692 1463 q 649 1354 685 1392 q 551 1317 613 1317 m 428 1274 l 529 1274 l 717 1049 l 561 1049 l 479 1157 l 396 1049 l 242 1049 l 428 1274 z "},"Ö":{"ha":958,"x_min":43,"x_max":915,"o":"m 479 -14 q 246 46 344 -14 q 95 218 147 106 q 43 486 43 331 q 95 754 43 642 q 246 926 147 867 q 479 986 344 986 q 713 926 615 986 q 863 754 811 867 q 915 486 915 642 q 863 218 915 331 q 713 46 811 106 q 479 -14 615 -14 m 479 144 q 653 235 590 144 q 717 486 717 326 q 653 737 717 646 q 479 828 590 828 q 306 737 369 828 q 243 486 243 646 q 306 235 243 326 q 479 144 369 144 m 333 1049 q 267 1074 293 1049 q 240 1140 240 1100 q 267 1206 240 1181 q 333 1232 293 1232 q 400 1206 374 1232 q 426 1140 426 1179 q 400 1075 426 1101 q 333 1049 374 1049 m 625 1049 q 558 1075 585 1049 q 532 1140 532 1101 q 558 1206 532 1179 q 625 1232 585 1232 q 692 1206 665 1232 q 718 1140 718 1181 q 692 1074 718 1100 q 625 1049 665 1049 z "},"Ọ":{"ha":958,"x_min":43,"x_max":915,"o":"m 479 -14 q 246 46 344 -14 q 95 218 147 106 q 43 486 43 331 q 95 754 43 642 q 246 926 147 867 q 479 986 344 986 q 713 926 615 986 q 863 754 811 867 q 915 486 915 642 q 863 218 915 331 q 713 46 811 106 q 479 -14 615 -14 m 479 144 q 653 235 590 144 q 717 486 717 326 q 653 737 717 646 q 479 828 590 828 q 306 737 369 828 q 243 486 243 646 q 306 235 243 326 q 479 144 369 144 m 479 -283 q 413 -257 439 -283 q 386 -192 386 -231 q 413 -126 386 -153 q 479 -100 439 -100 q 546 -126 519 -100 q 572 -192 572 -153 q 546 -257 572 -231 q 479 -283 519 -283 z "},"Ò":{"ha":958,"x_min":43,"x_max":915,"o":"m 479 -14 q 246 46 344 -14 q 95 218 147 106 q 43 486 43 331 q 95 754 43 642 q 246 926 147 867 q 479 986 344 986 q 713 926 615 986 q 863 754 811 867 q 915 486 915 642 q 863 218 915 331 q 713 46 811 106 q 479 -14 615 -14 m 479 144 q 653 235 590 144 q 717 486 717 326 q 653 737 717 646 q 479 828 590 828 q 306 737 369 828 q 243 486 243 646 q 306 235 243 326 q 479 144 369 144 m 258 1274 l 431 1274 l 549 1049 l 407 1049 l 258 1274 z "},"Ỏ":{"ha":958,"x_min":43,"x_max":915,"o":"m 479 -14 q 246 46 344 -14 q 95 218 147 106 q 43 486 43 331 q 95 754 43 642 q 246 926 147 867 q 479 986 344 986 q 713 926 615 986 q 863 754 811 867 q 915 486 915 642 q 863 218 915 331 q 713 46 811 106 q 479 -14 615 -14 m 479 144 q 653 235 590 144 q 717 486 717 326 q 653 737 717 646 q 479 828 590 828 q 306 737 369 828 q 243 486 243 646 q 306 235 243 326 q 479 144 369 144 m 414 1049 q 429 1113 414 1089 q 472 1163 444 1138 q 503 1197 493 1182 q 514 1233 514 1213 q 468 1269 514 1269 q 381 1200 415 1269 l 307 1268 q 380 1344 333 1317 q 482 1371 426 1371 q 599 1337 557 1371 q 642 1243 642 1303 q 628 1185 642 1208 q 588 1133 614 1161 q 553 1091 565 1110 q 542 1049 542 1072 l 414 1049 z "},"Ơ":{"ha":1025,"x_min":43,"x_max":1083,"o":"m 1083 972 l 1083 900 q 1035 733 1083 807 q 904 621 986 658 q 915 486 915 554 q 863 218 915 331 q 713 46 811 106 q 479 -14 615 -14 q 246 46 344 -14 q 95 218 147 106 q 43 486 43 331 q 95 754 43 642 q 246 926 147 867 q 479 986 344 986 q 722 922 621 986 q 872 735 822 857 q 922 806 907 767 q 936 900 936 844 l 936 972 l 1083 972 m 479 144 q 653 235 590 144 q 717 486 717 326 q 653 737 717 646 q 479 828 590 828 q 306 737 369 828 q 243 486 243 646 q 306 235 243 326 q 479 144 369 144 z "},"Ớ":{"ha":1025,"x_min":43,"x_max":1083,"o":"m 1083 972 l 1083 900 q 1035 733 1083 807 q 904 621 986 658 q 915 486 915 554 q 863 218 915 331 q 713 46 811 106 q 479 -14 615 -14 q 246 46 344 -14 q 95 218 147 106 q 43 486 43 331 q 95 754 43 642 q 246 926 147 867 q 479 986 344 986 q 722 922 621 986 q 872 735 822 857 q 922 806 907 767 q 936 900 936 844 l 936 972 l 1083 972 m 479 144 q 653 235 590 144 q 717 486 717 326 q 653 737 717 646 q 479 828 590 828 q 306 737 369 828 q 243 486 243 646 q 306 235 243 326 q 479 144 369 144 m 526 1274 l 699 1274 l 550 1049 l 408 1049 l 526 1274 z "},"Ợ":{"ha":1025,"x_min":43,"x_max":1083,"o":"m 1083 972 l 1083 900 q 1035 733 1083 807 q 904 621 986 658 q 915 486 915 554 q 863 218 915 331 q 713 46 811 106 q 479 -14 615 -14 q 246 46 344 -14 q 95 218 147 106 q 43 486 43 331 q 95 754 43 642 q 246 926 147 867 q 479 986 344 986 q 722 922 621 986 q 872 735 822 857 q 922 806 907 767 q 936 900 936 844 l 936 972 l 1083 972 m 479 144 q 653 235 590 144 q 717 486 717 326 q 653 737 717 646 q 479 828 590 828 q 306 737 369 828 q 243 486 243 646 q 306 235 243 326 q 479 144 369 144 m 479 -283 q 413 -257 439 -283 q 386 -192 386 -231 q 413 -126 386 -153 q 479 -100 439 -100 q 546 -126 519 -100 q 572 -192 572 -153 q 546 -257 572 -231 q 479 -283 519 -283 z "},"Ờ":{"ha":1025,"x_min":43,"x_max":1083,"o":"m 1083 972 l 1083 900 q 1035 733 1083 807 q 904 621 986 658 q 915 486 915 554 q 863 218 915 331 q 713 46 811 106 q 479 -14 615 -14 q 246 46 344 -14 q 95 218 147 106 q 43 486 43 331 q 95 754 43 642 q 246 926 147 867 q 479 986 344 986 q 722 922 621 986 q 872 735 822 857 q 922 806 907 767 q 936 900 936 844 l 936 972 l 1083 972 m 479 144 q 653 235 590 144 q 717 486 717 326 q 653 737 717 646 q 479 828 590 828 q 306 737 369 828 q 243 486 243 646 q 306 235 243 326 q 479 144 369 144 m 258 1274 l 431 1274 l 549 1049 l 407 1049 l 258 1274 z "},"Ở":{"ha":1025,"x_min":43,"x_max":1083,"o":"m 1083 972 l 1083 900 q 1035 733 1083 807 q 904 621 986 658 q 915 486 915 554 q 863 218 915 331 q 713 46 811 106 q 479 -14 615 -14 q 246 46 344 -14 q 95 218 147 106 q 43 486 43 331 q 95 754 43 642 q 246 926 147 867 q 479 986 344 986 q 722 922 621 986 q 872 735 822 857 q 922 806 907 767 q 936 900 936 844 l 936 972 l 1083 972 m 479 144 q 653 235 590 144 q 717 486 717 326 q 653 737 717 646 q 479 828 590 828 q 306 737 369 828 q 243 486 243 646 q 306 235 243 326 q 479 144 369 144 m 414 1049 q 429 1113 414 1089 q 472 1163 444 1138 q 503 1197 493 1182 q 514 1233 514 1213 q 468 1269 514 1269 q 381 1200 415 1269 l 307 1268 q 380 1344 333 1317 q 482 1371 426 1371 q 599 1337 557 1371 q 642 1243 642 1303 q 628 1185 642 1208 q 588 1133 614 1161 q 553 1091 565 1110 q 542 1049 542 1072 l 414 1049 z "},"Ỡ":{"ha":1025,"x_min":43,"x_max":1083,"o":"m 1083 972 l 1083 900 q 1035 733 1083 807 q 904 621 986 658 q 915 486 915 554 q 863 218 915 331 q 713 46 811 106 q 479 -14 615 -14 q 246 46 344 -14 q 95 218 147 106 q 43 486 43 331 q 95 754 43 642 q 246 926 147 867 q 479 986 344 986 q 722 922 621 986 q 872 735 822 857 q 922 806 907 767 q 936 900 936 844 l 936 972 l 1083 972 m 479 144 q 653 235 590 144 q 717 486 717 326 q 653 737 717 646 q 479 828 590 828 q 306 737 369 828 q 243 486 243 646 q 306 235 243 326 q 479 144 369 144 m 243 1049 q 285 1178 243 1132 q 389 1224 328 1224 q 442 1213 417 1224 q 496 1185 467 1203 q 528 1167 513 1175 q 557 1158 544 1158 q 594 1229 594 1158 l 706 1229 q 662 1094 706 1140 q 556 1049 618 1049 q 503 1059 526 1049 q 439 1092 479 1069 q 392 1114 404 1114 q 366 1096 376 1114 q 354 1049 356 1078 l 243 1049 z "},"Ő":{"ha":958,"x_min":43,"x_max":915,"o":"m 479 -14 q 246 46 344 -14 q 95 218 147 106 q 43 486 43 331 q 95 754 43 642 q 246 926 147 867 q 479 986 344 986 q 713 926 615 986 q 863 754 811 867 q 915 486 915 642 q 863 218 915 331 q 713 46 811 106 q 479 -14 615 -14 m 479 144 q 653 235 590 144 q 717 486 717 326 q 653 737 717 646 q 479 828 590 828 q 306 737 369 828 q 243 486 243 646 q 306 235 243 326 q 479 144 369 144 m 379 1274 l 551 1274 l 403 1049 l 261 1049 l 379 1274 m 622 1274 l 794 1274 l 646 1049 l 504 1049 l 622 1274 z "},"Ō":{"ha":958,"x_min":43,"x_max":915,"o":"m 479 -14 q 246 46 344 -14 q 95 218 147 106 q 43 486 43 331 q 95 754 43 642 q 246 926 147 867 q 479 986 344 986 q 713 926 615 986 q 863 754 811 867 q 915 486 915 642 q 863 218 915 331 q 713 46 811 106 q 479 -14 615 -14 m 479 144 q 653 235 590 144 q 717 486 717 326 q 653 737 717 646 q 479 828 590 828 q 306 737 369 828 q 243 486 243 646 q 306 235 243 326 q 479 144 369 144 m 242 1188 l 717 1188 l 717 1072 l 242 1072 l 242 1188 z "},"Ø":{"ha":958,"x_min":43,"x_max":915,"o":"m 754 897 q 874 729 833 833 q 915 486 915 625 q 863 218 915 331 q 713 46 811 106 q 479 -14 615 -14 q 289 24 372 -14 l 244 -60 l 90 -60 l 175 101 q 77 265 111 167 q 43 486 43 363 q 95 754 43 642 q 246 926 147 867 q 479 986 344 986 q 631 964 564 986 l 653 1007 l 813 1007 l 754 897 m 243 486 q 276 293 243 371 l 551 815 q 479 828 518 828 q 306 737 369 828 q 243 486 243 646 m 479 144 q 653 235 590 144 q 717 486 717 326 q 661 724 717 633 l 369 175 q 479 144 417 144 z "},"Ǿ":{"ha":958,"x_min":43,"x_max":915,"o":"m 754 897 q 874 729 833 833 q 915 486 915 625 q 863 218 915 331 q 713 46 811 106 q 479 -14 615 -14 q 289 24 372 -14 l 244 -60 l 90 -60 l 175 101 q 77 265 111 167 q 43 486 43 363 q 95 754 43 642 q 246 926 147 867 q 479 986 344 986 q 631 964 564 986 l 653 1007 l 813 1007 l 754 897 m 243 486 q 276 293 243 371 l 551 815 q 479 828 518 828 q 306 737 369 828 q 243 486 243 646 m 479 144 q 653 235 590 144 q 717 486 717 326 q 661 724 717 633 l 369 175 q 479 144 417 144 m 526 1274 l 699 1274 l 550 1049 l 408 1049 l 526 1274 z "},"Õ":{"ha":958,"x_min":43,"x_max":915,"o":"m 479 -14 q 246 46 344 -14 q 95 218 147 106 q 43 486 43 331 q 95 754 43 642 q 246 926 147 867 q 479 986 344 986 q 713 926 615 986 q 863 754 811 867 q 915 486 915 642 q 863 218 915 331 q 713 46 811 106 q 479 -14 615 -14 m 479 144 q 653 235 590 144 q 717 486 717 326 q 653 737 717 646 q 479 828 590 828 q 306 737 369 828 q 243 486 243 646 q 306 235 243 326 q 479 144 369 144 m 243 1049 q 285 1178 243 1132 q 389 1224 328 1224 q 442 1213 417 1224 q 496 1185 467 1203 q 528 1167 513 1175 q 557 1158 544 1158 q 594 1229 594 1158 l 706 1229 q 662 1094 706 1140 q 556 1049 618 1049 q 503 1059 526 1049 q 439 1092 479 1069 q 392 1114 404 1114 q 366 1096 376 1114 q 354 1049 356 1078 l 243 1049 z "},"Œ":{"ha":1231,"x_min":43,"x_max":1178,"o":"m 806 813 l 806 583 l 1133 583 l 1133 439 l 806 439 l 806 160 l 1178 160 l 1178 0 l 607 0 l 607 50 q 413 -12 521 -12 q 139 116 235 -12 q 43 486 43 244 q 139 856 43 728 q 413 985 235 985 q 607 925 522 985 l 607 972 l 1178 972 l 1178 813 l 806 813 m 424 144 q 560 232 513 144 q 607 486 607 319 q 560 741 607 654 q 424 828 514 828 q 286 744 331 828 q 242 486 242 660 q 286 228 242 313 q 424 144 331 144 z "},"P":{"ha":819,"x_min":94,"x_max":768,"o":"m 94 972 l 418 972 q 679 894 590 972 q 768 663 768 815 q 677 417 768 501 q 411 333 586 333 l 294 333 l 294 0 l 94 0 l 94 972 m 428 492 q 537 534 500 492 q 574 657 574 576 q 534 773 574 733 q 417 813 494 813 l 294 813 l 294 492 l 428 492 z "},"Þ":{"ha":797,"x_min":94,"x_max":744,"o":"m 94 972 l 293 972 l 293 844 l 397 844 q 656 767 567 844 q 744 543 744 690 q 653 305 744 388 q 390 222 563 222 l 293 222 l 293 0 l 94 0 l 94 972 m 407 381 q 514 421 476 381 q 551 538 551 461 q 512 649 551 611 q 396 688 472 688 l 293 688 l 293 381 l 407 381 z "},"Q":{"ha":958,"x_min":43,"x_max":915,"o":"m 915 486 q 835 165 915 290 q 606 1 754 39 q 903 -44 726 -39 l 872 -181 q 589 -121 736 -174 q 361 -1 442 -68 q 126 162 210 35 q 43 486 43 289 q 95 754 43 642 q 246 926 147 867 q 479 986 344 986 q 713 926 615 986 q 863 754 811 867 q 915 486 915 642 m 243 486 q 306 235 243 326 q 479 144 369 144 q 653 235 590 144 q 717 486 717 326 q 653 737 717 646 q 479 828 590 828 q 306 737 369 828 q 243 486 243 646 z "},"R":{"ha":828,"x_min":94,"x_max":818,"o":"m 94 972 l 438 972 q 685 905 603 972 q 767 701 767 838 q 726 538 767 606 q 610 439 686 469 l 610 436 q 651 399 636 417 q 675 360 665 382 l 818 0 l 606 0 l 494 296 q 451 355 478 340 q 360 369 425 369 l 294 369 l 294 0 l 94 0 l 94 972 m 417 528 q 533 566 493 528 q 572 678 572 604 q 414 813 572 813 l 294 813 l 294 528 l 417 528 z "},"Ŕ":{"ha":828,"x_min":94,"x_max":818,"o":"m 94 972 l 438 972 q 685 905 603 972 q 767 701 767 838 q 726 538 767 606 q 610 439 686 469 l 610 436 q 651 399 636 417 q 675 360 665 382 l 818 0 l 606 0 l 494 296 q 451 355 478 340 q 360 369 425 369 l 294 369 l 294 0 l 94 0 l 94 972 m 417 528 q 533 566 493 528 q 572 678 572 604 q 414 813 572 813 l 294 813 l 294 528 l 417 528 m 463 1274 l 635 1274 l 486 1049 l 344 1049 l 463 1274 z "},"Ř":{"ha":828,"x_min":94,"x_max":818,"o":"m 94 972 l 438 972 q 685 905 603 972 q 767 701 767 838 q 726 538 767 606 q 610 439 686 469 l 610 436 q 651 399 636 417 q 675 360 665 382 l 818 0 l 606 0 l 494 296 q 451 355 478 340 q 360 369 425 369 l 294 369 l 294 0 l 94 0 l 94 972 m 417 528 q 533 566 493 528 q 572 678 572 604 q 414 813 572 813 l 294 813 l 294 528 l 417 528 m 178 1274 l 332 1274 l 415 1165 l 499 1274 l 653 1274 l 467 1049 l 364 1049 l 178 1274 z "},"Ŗ":{"ha":828,"x_min":94,"x_max":818,"o":"m 94 972 l 438 972 q 685 905 603 972 q 767 701 767 838 q 726 538 767 606 q 610 439 686 469 l 610 436 q 651 399 636 417 q 675 360 665 382 l 818 0 l 606 0 l 494 296 q 451 355 478 340 q 360 369 425 369 l 294 369 l 294 0 l 94 0 l 94 972 m 417 528 q 533 566 493 528 q 572 678 572 604 q 414 813 572 813 l 294 813 l 294 528 l 417 528 m 414 -100 q 494 -131 464 -100 q 524 -212 524 -162 q 494 -327 524 -267 q 414 -429 464 -387 l 344 -375 q 404 -290 381 -331 q 341 -260 365 -286 q 317 -196 317 -235 q 344 -126 317 -153 q 414 -100 371 -100 z "},"Ṛ":{"ha":828,"x_min":94,"x_max":818,"o":"m 94 972 l 438 972 q 685 905 603 972 q 767 701 767 838 q 726 538 767 606 q 610 439 686 469 l 610 436 q 651 399 636 417 q 675 360 665 382 l 818 0 l 606 0 l 494 296 q 451 355 478 340 q 360 369 425 369 l 294 369 l 294 0 l 94 0 l 94 972 m 417 528 q 533 566 493 528 q 572 678 572 604 q 414 813 572 813 l 294 813 l 294 528 l 417 528 m 415 -283 q 349 -257 375 -283 q 322 -192 322 -231 q 349 -126 322 -153 q 415 -100 375 -100 q 482 -126 456 -100 q 508 -192 508 -153 q 482 -257 508 -231 q 415 -283 456 -283 z "},"Ṝ":{"ha":828,"x_min":94,"x_max":818,"o":"m 94 972 l 438 972 q 685 905 603 972 q 767 701 767 838 q 726 538 767 606 q 610 439 686 469 l 610 436 q 651 399 636 417 q 675 360 665 382 l 818 0 l 606 0 l 494 296 q 451 355 478 340 q 360 369 425 369 l 294 369 l 294 0 l 94 0 l 94 972 m 417 528 q 533 566 493 528 q 572 678 572 604 q 414 813 572 813 l 294 813 l 294 528 l 417 528 m 415 -283 q 349 -257 375 -283 q 322 -192 322 -231 q 349 -126 322 -153 q 415 -100 375 -100 q 482 -126 456 -100 q 508 -192 508 -153 q 482 -257 508 -231 q 415 -283 456 -283 m 178 1188 l 653 1188 l 653 1072 l 178 1072 l 178 1188 z "},"Ṟ":{"ha":828,"x_min":94,"x_max":818,"o":"m 94 972 l 438 972 q 685 905 603 972 q 767 701 767 838 q 726 538 767 606 q 610 439 686 469 l 610 436 q 651 399 636 417 q 675 360 665 382 l 818 0 l 606 0 l 494 296 q 451 355 478 340 q 360 369 425 369 l 294 369 l 294 0 l 94 0 l 94 972 m 417 528 q 533 566 493 528 q 572 678 572 604 q 414 813 572 813 l 294 813 l 294 528 l 417 528 m 178 -100 l 653 -100 l 653 -215 l 178 -215 l 178 -100 z "},"S":{"ha":765,"x_min":39,"x_max":726,"o":"m 381 -14 q 183 31 271 -14 q 39 158 94 75 l 154 269 q 265 181 200 215 q 388 146 331 146 q 490 175 451 146 q 529 251 529 204 q 517 308 529 286 q 469 353 504 331 q 356 415 435 376 q 192 511 251 467 q 103 608 132 556 q 75 729 75 660 q 115 864 75 806 q 229 954 156 922 q 399 986 303 986 q 585 946 504 986 q 704 835 667 906 l 578 740 q 407 826 508 826 q 308 801 343 826 q 274 731 274 776 q 291 681 274 703 q 354 632 308 658 q 492 563 400 606 q 631 479 581 521 q 704 386 682 438 q 726 264 726 335 q 684 117 726 181 q 563 20 642 54 q 381 -14 485 -14 z "},"Ś":{"ha":765,"x_min":39,"x_max":726,"o":"m 381 -14 q 183 31 271 -14 q 39 158 94 75 l 154 269 q 265 181 200 215 q 388 146 331 146 q 490 175 451 146 q 529 251 529 204 q 517 308 529 286 q 469 353 504 331 q 356 415 435 376 q 192 511 251 467 q 103 608 132 556 q 75 729 75 660 q 115 864 75 806 q 229 954 156 922 q 399 986 303 986 q 585 946 504 986 q 704 835 667 906 l 578 740 q 407 826 508 826 q 308 801 343 826 q 274 731 274 776 q 291 681 274 703 q 354 632 308 658 q 492 563 400 606 q 631 479 581 521 q 704 386 682 438 q 726 264 726 335 q 684 117 726 181 q 563 20 642 54 q 381 -14 485 -14 m 433 1274 l 606 1274 l 457 1049 l 315 1049 l 433 1274 z "},"Š":{"ha":765,"x_min":39,"x_max":726,"o":"m 381 -14 q 183 31 271 -14 q 39 158 94 75 l 154 269 q 265 181 200 215 q 388 146 331 146 q 490 175 451 146 q 529 251 529 204 q 517 308 529 286 q 469 353 504 331 q 356 415 435 376 q 192 511 251 467 q 103 608 132 556 q 75 729 75 660 q 115 864 75 806 q 229 954 156 922 q 399 986 303 986 q 585 946 504 986 q 704 835 667 906 l 578 740 q 407 826 508 826 q 308 801 343 826 q 274 731 274 776 q 291 681 274 703 q 354 632 308 658 q 492 563 400 606 q 631 479 581 521 q 704 386 682 438 q 726 264 726 335 q 684 117 726 181 q 563 20 642 54 q 381 -14 485 -14 m 149 1274 l 303 1274 l 386 1165 l 469 1274 l 624 1274 l 438 1049 l 335 1049 l 149 1274 z "},"Ş":{"ha":765,"x_min":39,"x_max":726,"o":"m 726 264 q 650 77 726 150 q 442 -11 574 4 l 396 -92 q 490 -120 454 -92 q 526 -199 526 -149 q 481 -298 526 -260 q 363 -336 436 -336 q 291 -328 328 -336 q 232 -307 254 -319 l 250 -231 q 342 -247 294 -247 q 386 -235 371 -247 q 401 -203 401 -224 q 376 -169 401 -181 q 308 -160 350 -157 l 268 -114 l 326 -11 q 160 43 235 0 q 39 158 86 86 l 154 269 q 265 181 200 215 q 388 146 331 146 q 490 175 451 146 q 529 251 529 204 q 517 308 529 286 q 469 353 504 331 q 356 415 435 376 q 192 511 251 467 q 103 608 132 556 q 75 729 75 660 q 115 864 75 806 q 229 954 156 922 q 399 986 303 986 q 585 946 504 986 q 704 835 667 906 l 578 740 q 407 826 508 826 q 308 801 343 826 q 274 731 274 776 q 291 681 274 703 q 354 632 308 658 q 492 563 400 606 q 631 479 581 521 q 704 386 682 438 q 726 264 726 335 z "},"Ŝ":{"ha":765,"x_min":39,"x_max":726,"o":"m 381 -14 q 183 31 271 -14 q 39 158 94 75 l 154 269 q 265 181 200 215 q 388 146 331 146 q 490 175 451 146 q 529 251 529 204 q 517 308 529 286 q 469 353 504 331 q 356 415 435 376 q 192 511 251 467 q 103 608 132 556 q 75 729 75 660 q 115 864 75 806 q 229 954 156 922 q 399 986 303 986 q 585 946 504 986 q 704 835 667 906 l 578 740 q 407 826 508 826 q 308 801 343 826 q 274 731 274 776 q 291 681 274 703 q 354 632 308 658 q 492 563 400 606 q 631 479 581 521 q 704 386 682 438 q 726 264 726 335 q 684 117 726 181 q 563 20 642 54 q 381 -14 485 -14 m 335 1274 l 438 1274 l 624 1049 l 469 1049 l 386 1157 l 303 1049 l 149 1049 l 335 1274 z "},"Ș":{"ha":765,"x_min":39,"x_max":726,"o":"m 381 -14 q 183 31 271 -14 q 39 158 94 75 l 154 269 q 265 181 200 215 q 388 146 331 146 q 490 175 451 146 q 529 251 529 204 q 517 308 529 286 q 469 353 504 331 q 356 415 435 376 q 192 511 251 467 q 103 608 132 556 q 75 729 75 660 q 115 864 75 806 q 229 954 156 922 q 399 986 303 986 q 585 946 504 986 q 704 835 667 906 l 578 740 q 407 826 508 826 q 308 801 343 826 q 274 731 274 776 q 291 681 274 703 q 354 632 308 658 q 492 563 400 606 q 631 479 581 521 q 704 386 682 438 q 726 264 726 335 q 684 117 726 181 q 563 20 642 54 q 381 -14 485 -14 m 385 -100 q 465 -131 435 -100 q 494 -212 494 -162 q 465 -327 494 -267 q 385 -429 435 -387 l 315 -375 q 375 -290 351 -331 q 312 -260 336 -286 q 288 -196 288 -235 q 315 -126 288 -153 q 385 -100 342 -100 z "},"Ṡ":{"ha":765,"x_min":39,"x_max":726,"o":"m 381 -14 q 183 31 271 -14 q 39 158 94 75 l 154 269 q 265 181 200 215 q 388 146 331 146 q 490 175 451 146 q 529 251 529 204 q 517 308 529 286 q 469 353 504 331 q 356 415 435 376 q 192 511 251 467 q 103 608 132 556 q 75 729 75 660 q 115 864 75 806 q 229 954 156 922 q 399 986 303 986 q 585 946 504 986 q 704 835 667 906 l 578 740 q 407 826 508 826 q 308 801 343 826 q 274 731 274 776 q 291 681 274 703 q 354 632 308 658 q 492 563 400 606 q 631 479 581 521 q 704 386 682 438 q 726 264 726 335 q 684 117 726 181 q 563 20 642 54 q 381 -14 485 -14 m 386 1049 q 319 1075 346 1049 q 293 1140 293 1101 q 319 1206 293 1179 q 386 1232 346 1232 q 453 1206 426 1232 q 479 1140 479 1179 q 453 1075 479 1101 q 386 1049 426 1049 z "},"Ṣ":{"ha":765,"x_min":39,"x_max":726,"o":"m 381 -14 q 183 31 271 -14 q 39 158 94 75 l 154 269 q 265 181 200 215 q 388 146 331 146 q 490 175 451 146 q 529 251 529 204 q 517 308 529 286 q 469 353 504 331 q 356 415 435 376 q 192 511 251 467 q 103 608 132 556 q 75 729 75 660 q 115 864 75 806 q 229 954 156 922 q 399 986 303 986 q 585 946 504 986 q 704 835 667 906 l 578 740 q 407 826 508 826 q 308 801 343 826 q 274 731 274 776 q 291 681 274 703 q 354 632 308 658 q 492 563 400 606 q 631 479 581 521 q 704 386 682 438 q 726 264 726 335 q 684 117 726 181 q 563 20 642 54 q 381 -14 485 -14 m 386 -283 q 319 -257 346 -283 q 293 -192 293 -231 q 319 -126 293 -153 q 386 -100 346 -100 q 453 -126 426 -100 q 479 -192 479 -153 q 453 -257 479 -231 q 386 -283 426 -283 z "},"ẞ":{"ha":889,"x_min":94,"x_max":850,"o":"m 556 -14 q 410 21 469 -14 q 324 121 351 56 l 429 199 q 551 128 472 128 q 635 166 604 128 q 665 268 665 204 q 640 353 665 319 q 558 410 615 386 q 396 456 500 435 l 396 542 l 532 813 l 293 813 l 293 0 l 94 0 l 94 972 l 746 972 l 746 861 l 581 558 q 850 271 850 496 q 813 123 850 188 q 709 22 776 58 q 556 -14 642 -14 z "},"Ə":{"ha":956,"x_min":43,"x_max":913,"o":"m 460 985 q 702 925 600 985 q 858 752 804 865 q 913 482 913 639 q 858 217 913 329 q 704 47 804 106 q 468 -12 604 -12 q 154 116 265 -12 q 43 475 43 244 l 43 558 l 710 558 q 631 758 694 688 q 461 828 567 828 q 311 789 379 828 q 196 674 243 750 l 83 790 q 235 933 135 881 q 460 985 335 985 m 472 144 q 638 214 576 144 q 711 414 699 283 l 244 413 l 244 400 q 304 211 244 278 q 472 144 364 144 z "},"T":{"ha":819,"x_min":21,"x_max":799,"o":"m 310 825 l 21 825 l 21 972 l 799 972 l 799 825 l 510 825 l 510 0 l 310 0 l 310 825 z "},"Ŧ":{"ha":819,"x_min":21,"x_max":799,"o":"m 510 825 l 510 535 l 719 535 l 719 401 l 510 401 l 510 0 l 310 0 l 310 401 l 101 401 l 101 535 l 310 535 l 310 825 l 21 825 l 21 972 l 799 972 l 799 825 l 510 825 z "},"Ť":{"ha":819,"x_min":21,"x_max":799,"o":"m 310 825 l 21 825 l 21 972 l 799 972 l 799 825 l 510 825 l 510 0 l 310 0 l 310 825 m 172 1274 l 326 1274 l 410 1165 l 493 1274 l 647 1274 l 461 1049 l 358 1049 l 172 1274 z "},"Ţ":{"ha":819,"x_min":21,"x_max":799,"o":"m 472 0 l 419 -92 q 514 -120 478 -92 q 550 -199 550 -149 q 505 -298 550 -260 q 386 -336 460 -336 q 315 -328 351 -336 q 256 -307 278 -319 l 274 -231 q 365 -247 317 -247 q 410 -235 394 -247 q 425 -203 425 -224 q 399 -169 425 -181 q 332 -160 374 -157 l 292 -114 l 357 0 l 310 0 l 310 825 l 21 825 l 21 972 l 799 972 l 799 825 l 510 825 l 510 0 l 472 0 z "},"Ț":{"ha":819,"x_min":21,"x_max":799,"o":"m 310 825 l 21 825 l 21 972 l 799 972 l 799 825 l 510 825 l 510 0 l 310 0 l 310 825 m 408 -100 q 488 -131 458 -100 q 518 -212 518 -162 q 488 -327 518 -267 q 408 -429 458 -387 l 339 -375 q 399 -290 375 -331 q 335 -260 360 -286 q 311 -196 311 -235 q 338 -126 311 -153 q 408 -100 365 -100 z "},"Ṭ":{"ha":819,"x_min":21,"x_max":799,"o":"m 310 825 l 21 825 l 21 972 l 799 972 l 799 825 l 510 825 l 510 0 l 310 0 l 310 825 m 410 -283 q 343 -257 369 -283 q 317 -192 317 -231 q 343 -126 317 -153 q 410 -100 369 -100 q 476 -126 450 -100 q 503 -192 503 -153 q 476 -257 503 -231 q 410 -283 450 -283 z "},"Ṯ":{"ha":819,"x_min":21,"x_max":799,"o":"m 310 825 l 21 825 l 21 972 l 799 972 l 799 825 l 510 825 l 510 0 l 310 0 l 310 825 m 172 -100 l 647 -100 l 647 -215 l 172 -215 l 172 -100 z "},"U":{"ha":919,"x_min":83,"x_max":838,"o":"m 460 -14 q 178 86 274 -14 q 83 379 83 186 l 83 972 l 283 972 l 283 382 q 460 146 283 146 q 638 382 638 146 l 638 972 l 838 972 l 838 379 q 742 86 838 186 q 460 -14 646 -14 z "},"Ú":{"ha":919,"x_min":83,"x_max":838,"o":"m 460 -14 q 178 86 274 -14 q 83 379 83 186 l 83 972 l 283 972 l 283 382 q 460 146 283 146 q 638 382 638 146 l 638 972 l 838 972 l 838 379 q 742 86 838 186 q 460 -14 646 -14 m 507 1274 l 679 1274 l 531 1049 l 389 1049 l 507 1274 z "},"Ŭ":{"ha":919,"x_min":83,"x_max":838,"o":"m 460 -14 q 178 86 274 -14 q 83 379 83 186 l 83 972 l 283 972 l 283 382 q 460 146 283 146 q 638 382 638 146 l 638 972 l 838 972 l 838 379 q 742 86 838 186 q 460 -14 646 -14 m 460 1049 q 294 1103 353 1049 q 235 1260 236 1157 l 353 1260 q 382 1186 354 1213 q 460 1160 410 1160 q 538 1186 510 1160 q 567 1260 565 1213 l 685 1260 q 626 1103 685 1158 q 460 1049 568 1049 z "},"Ǔ":{"ha":919,"x_min":83,"x_max":838,"o":"m 460 -14 q 178 86 274 -14 q 83 379 83 186 l 83 972 l 283 972 l 283 382 q 460 146 283 146 q 638 382 638 146 l 638 972 l 838 972 l 838 379 q 742 86 838 186 q 460 -14 646 -14 m 222 1274 l 376 1274 l 460 1165 l 543 1274 l 697 1274 l 511 1049 l 408 1049 l 222 1274 z "},"Û":{"ha":919,"x_min":83,"x_max":838,"o":"m 460 -14 q 178 86 274 -14 q 83 379 83 186 l 83 972 l 283 972 l 283 382 q 460 146 283 146 q 638 382 638 146 l 638 972 l 838 972 l 838 379 q 742 86 838 186 q 460 -14 646 -14 m 408 1274 l 511 1274 l 697 1049 l 543 1049 l 460 1157 l 376 1049 l 222 1049 l 408 1274 z "},"Ü":{"ha":919,"x_min":83,"x_max":838,"o":"m 460 -14 q 178 86 274 -14 q 83 379 83 186 l 83 972 l 283 972 l 283 382 q 460 146 283 146 q 638 382 638 146 l 638 972 l 838 972 l 838 379 q 742 86 838 186 q 460 -14 646 -14 m 314 1049 q 247 1074 274 1049 q 221 1140 221 1100 q 247 1206 221 1181 q 314 1232 274 1232 q 381 1206 354 1232 q 407 1140 407 1179 q 381 1075 407 1101 q 314 1049 354 1049 m 606 1049 q 539 1075 565 1049 q 513 1140 513 1101 q 539 1206 513 1179 q 606 1232 565 1232 q 672 1206 646 1232 q 699 1140 699 1181 q 672 1074 699 1100 q 606 1049 646 1049 z "},"Ǘ":{"ha":919,"x_min":83,"x_max":838,"o":"m 460 -14 q 178 86 274 -14 q 83 379 83 186 l 83 972 l 283 972 l 283 382 q 460 146 283 146 q 638 382 638 146 l 638 972 l 838 972 l 838 379 q 742 86 838 186 q 460 -14 646 -14 m 463 1439 l 600 1439 l 513 1288 l 397 1288 l 463 1439 m 314 1049 q 247 1074 274 1049 q 221 1140 221 1100 q 247 1206 221 1181 q 314 1232 274 1232 q 381 1206 354 1232 q 407 1140 407 1179 q 381 1075 407 1101 q 314 1049 354 1049 m 606 1049 q 539 1075 565 1049 q 513 1140 513 1101 q 539 1206 513 1179 q 606 1232 565 1232 q 672 1206 646 1232 q 699 1140 699 1181 q 672 1074 699 1100 q 606 1049 646 1049 z "},"Ǚ":{"ha":919,"x_min":83,"x_max":838,"o":"m 460 -14 q 178 86 274 -14 q 83 379 83 186 l 83 972 l 283 972 l 283 382 q 460 146 283 146 q 638 382 638 146 l 638 972 l 838 972 l 838 379 q 742 86 838 186 q 460 -14 646 -14 m 240 1439 l 378 1439 l 460 1342 l 542 1439 l 679 1439 l 510 1258 l 410 1258 l 240 1439 m 314 1049 q 247 1074 274 1049 q 221 1140 221 1100 q 247 1206 221 1181 q 314 1232 274 1232 q 381 1206 354 1232 q 407 1140 407 1179 q 381 1075 407 1101 q 314 1049 354 1049 m 606 1049 q 539 1075 565 1049 q 513 1140 513 1101 q 539 1206 513 1179 q 606 1232 565 1232 q 672 1206 646 1232 q 699 1140 699 1181 q 672 1074 699 1100 q 606 1049 646 1049 z "},"Ǜ":{"ha":919,"x_min":83,"x_max":838,"o":"m 460 -14 q 178 86 274 -14 q 83 379 83 186 l 83 972 l 283 972 l 283 382 q 460 146 283 146 q 638 382 638 146 l 638 972 l 838 972 l 838 379 q 742 86 838 186 q 460 -14 646 -14 m 314 1439 l 451 1439 l 517 1288 l 401 1288 l 314 1439 m 314 1049 q 247 1074 274 1049 q 221 1140 221 1100 q 247 1206 221 1181 q 314 1232 274 1232 q 381 1206 354 1232 q 407 1140 407 1179 q 381 1075 407 1101 q 314 1049 354 1049 m 606 1049 q 539 1075 565 1049 q 513 1140 513 1101 q 539 1206 513 1179 q 606 1232 565 1232 q 672 1206 646 1232 q 699 1140 699 1181 q 672 1074 699 1100 q 606 1049 646 1049 z "},"Ǖ":{"ha":919,"x_min":83,"x_max":838,"o":"m 460 -14 q 178 86 274 -14 q 83 379 83 186 l 83 972 l 283 972 l 283 382 q 460 146 283 146 q 638 382 638 146 l 638 972 l 838 972 l 838 379 q 742 86 838 186 q 460 -14 646 -14 m 254 1397 l 667 1397 l 667 1306 l 254 1306 l 254 1397 m 314 1049 q 247 1074 274 1049 q 221 1140 221 1100 q 247 1206 221 1181 q 314 1232 274 1232 q 381 1206 354 1232 q 407 1140 407 1179 q 381 1075 407 1101 q 314 1049 354 1049 m 606 1049 q 539 1075 565 1049 q 513 1140 513 1101 q 539 1206 513 1179 q 606 1232 565 1232 q 672 1206 646 1232 q 699 1140 699 1181 q 672 1074 699 1100 q 606 1049 646 1049 z "},"Ụ":{"ha":919,"x_min":83,"x_max":838,"o":"m 460 -14 q 178 86 274 -14 q 83 379 83 186 l 83 972 l 283 972 l 283 382 q 460 146 283 146 q 638 382 638 146 l 638 972 l 838 972 l 838 379 q 742 86 838 186 q 460 -14 646 -14 m 460 -283 q 393 -257 419 -283 q 367 -192 367 -231 q 393 -126 367 -153 q 460 -100 419 -100 q 526 -126 500 -100 q 553 -192 553 -153 q 526 -257 553 -231 q 460 -283 500 -283 z "},"Ù":{"ha":919,"x_min":83,"x_max":838,"o":"m 460 -14 q 178 86 274 -14 q 83 379 83 186 l 83 972 l 283 972 l 283 382 q 460 146 283 146 q 638 382 638 146 l 638 972 l 838 972 l 838 379 q 742 86 838 186 q 460 -14 646 -14 m 239 1274 l 411 1274 l 529 1049 l 388 1049 l 239 1274 z "},"Ủ":{"ha":919,"x_min":83,"x_max":838,"o":"m 460 -14 q 178 86 274 -14 q 83 379 83 186 l 83 972 l 283 972 l 283 382 q 460 146 283 146 q 638 382 638 146 l 638 972 l 838 972 l 838 379 q 742 86 838 186 q 460 -14 646 -14 m 394 1049 q 410 1113 394 1089 q 453 1163 425 1138 q 484 1197 474 1182 q 494 1233 494 1213 q 449 1269 494 1269 q 361 1200 396 1269 l 288 1268 q 360 1344 314 1317 q 463 1371 407 1371 q 580 1337 538 1371 q 622 1243 622 1303 q 608 1185 622 1208 q 568 1133 594 1161 q 534 1091 546 1110 q 522 1049 522 1072 l 394 1049 z "},"Ư":{"ha":1032,"x_min":83,"x_max":1088,"o":"m 1088 972 l 1088 900 q 1018 704 1088 788 q 838 597 949 621 l 838 379 q 742 86 838 186 q 460 -14 646 -14 q 178 86 274 -14 q 83 379 83 186 l 83 972 l 283 972 l 283 382 q 460 146 283 146 q 638 382 638 146 l 638 972 l 838 972 l 838 704 q 917 788 894 743 q 940 900 940 832 l 940 972 l 1088 972 z "},"Ứ":{"ha":1032,"x_min":83,"x_max":1088,"o":"m 1088 972 l 1088 900 q 1018 704 1088 788 q 838 597 949 621 l 838 379 q 742 86 838 186 q 460 -14 646 -14 q 178 86 274 -14 q 83 379 83 186 l 83 972 l 283 972 l 283 382 q 460 146 283 146 q 638 382 638 146 l 638 972 l 838 972 l 838 704 q 917 788 894 743 q 940 900 940 832 l 940 972 l 1088 972 m 507 1274 l 679 1274 l 531 1049 l 389 1049 l 507 1274 z "},"Ự":{"ha":1032,"x_min":83,"x_max":1088,"o":"m 1088 972 l 1088 900 q 1018 704 1088 788 q 838 597 949 621 l 838 379 q 742 86 838 186 q 460 -14 646 -14 q 178 86 274 -14 q 83 379 83 186 l 83 972 l 283 972 l 283 382 q 460 146 283 146 q 638 382 638 146 l 638 972 l 838 972 l 838 704 q 917 788 894 743 q 940 900 940 832 l 940 972 l 1088 972 m 460 -283 q 393 -257 419 -283 q 367 -192 367 -231 q 393 -126 367 -153 q 460 -100 419 -100 q 526 -126 500 -100 q 553 -192 553 -153 q 526 -257 553 -231 q 460 -283 500 -283 z "},"Ừ":{"ha":1032,"x_min":83,"x_max":1088,"o":"m 1088 972 l 1088 900 q 1018 704 1088 788 q 838 597 949 621 l 838 379 q 742 86 838 186 q 460 -14 646 -14 q 178 86 274 -14 q 83 379 83 186 l 83 972 l 283 972 l 283 382 q 460 146 283 146 q 638 382 638 146 l 638 972 l 838 972 l 838 704 q 917 788 894 743 q 940 900 940 832 l 940 972 l 1088 972 m 239 1274 l 411 1274 l 529 1049 l 388 1049 l 239 1274 z "},"Ử":{"ha":1032,"x_min":83,"x_max":1088,"o":"m 1088 972 l 1088 900 q 1018 704 1088 788 q 838 597 949 621 l 838 379 q 742 86 838 186 q 460 -14 646 -14 q 178 86 274 -14 q 83 379 83 186 l 83 972 l 283 972 l 283 382 q 460 146 283 146 q 638 382 638 146 l 638 972 l 838 972 l 838 704 q 917 788 894 743 q 940 900 940 832 l 940 972 l 1088 972 m 394 1049 q 410 1113 394 1089 q 453 1163 425 1138 q 484 1197 474 1182 q 494 1233 494 1213 q 449 1269 494 1269 q 361 1200 396 1269 l 288 1268 q 360 1344 314 1317 q 463 1371 407 1371 q 580 1337 538 1371 q 622 1243 622 1303 q 608 1185 622 1208 q 568 1133 594 1161 q 534 1091 546 1110 q 522 1049 522 1072 l 394 1049 z "},"Ữ":{"ha":1032,"x_min":83,"x_max":1088,"o":"m 1088 972 l 1088 900 q 1018 704 1088 788 q 838 597 949 621 l 838 379 q 742 86 838 186 q 460 -14 646 -14 q 178 86 274 -14 q 83 379 83 186 l 83 972 l 283 972 l 283 382 q 460 146 283 146 q 638 382 638 146 l 638 972 l 838 972 l 838 704 q 917 788 894 743 q 940 900 940 832 l 940 972 l 1088 972 m 224 1049 q 266 1178 224 1132 q 369 1224 308 1224 q 422 1213 397 1224 q 476 1185 447 1203 q 509 1167 493 1175 q 538 1158 525 1158 q 575 1229 575 1158 l 686 1229 q 642 1094 686 1140 q 536 1049 599 1049 q 483 1059 507 1049 q 419 1092 460 1069 q 372 1114 385 1114 q 347 1096 357 1114 q 335 1049 336 1078 l 224 1049 z "},"Ű":{"ha":919,"x_min":83,"x_max":838,"o":"m 460 -14 q 178 86 274 -14 q 83 379 83 186 l 83 972 l 283 972 l 283 382 q 460 146 283 146 q 638 382 638 146 l 638 972 l 838 972 l 838 379 q 742 86 838 186 q 460 -14 646 -14 m 360 1274 l 532 1274 l 383 1049 l 242 1049 l 360 1274 m 603 1274 l 775 1274 l 626 1049 l 485 1049 l 603 1274 z "},"Ū":{"ha":919,"x_min":83,"x_max":838,"o":"m 460 -14 q 178 86 274 -14 q 83 379 83 186 l 83 972 l 283 972 l 283 382 q 460 146 283 146 q 638 382 638 146 l 638 972 l 838 972 l 838 379 q 742 86 838 186 q 460 -14 646 -14 m 222 1188 l 697 1188 l 697 1072 l 222 1072 l 222 1188 z "},"Ų":{"ha":919,"x_min":83,"x_max":838,"o":"m 838 972 l 838 379 q 763 110 838 208 q 543 -8 688 13 q 432 -158 432 -89 q 449 -194 432 -179 q 499 -208 465 -208 q 585 -186 525 -208 l 610 -269 q 543 -310 583 -296 q 461 -325 503 -325 q 346 -288 388 -325 q 304 -182 304 -251 q 414 -12 304 -78 q 167 99 250 0 q 83 379 83 197 l 83 972 l 283 972 l 283 382 q 460 146 283 146 q 638 382 638 146 l 638 972 l 838 972 z "},"Ů":{"ha":919,"x_min":83,"x_max":838,"o":"m 460 -14 q 178 86 274 -14 q 83 379 83 186 l 83 972 l 283 972 l 283 382 q 460 146 283 146 q 638 382 638 146 l 638 972 l 838 972 l 838 379 q 742 86 838 186 q 460 -14 646 -14 m 460 1043 q 353 1082 394 1043 q 313 1182 313 1121 q 353 1282 313 1243 q 460 1321 394 1321 q 566 1282 525 1321 q 607 1182 607 1243 q 566 1082 607 1121 q 460 1043 525 1043 m 460 1111 q 509 1131 490 1111 q 528 1182 528 1150 q 509 1233 528 1214 q 460 1253 490 1253 q 410 1233 429 1253 q 392 1182 392 1214 q 410 1131 392 1150 q 460 1111 429 1111 z "},"Ũ":{"ha":919,"x_min":83,"x_max":838,"o":"m 460 -14 q 178 86 274 -14 q 83 379 83 186 l 83 972 l 283 972 l 283 382 q 460 146 283 146 q 638 382 638 146 l 638 972 l 838 972 l 838 379 q 742 86 838 186 q 460 -14 646 -14 m 224 1049 q 266 1178 224 1132 q 369 1224 308 1224 q 422 1213 397 1224 q 476 1185 447 1203 q 509 1167 493 1175 q 538 1158 525 1158 q 575 1229 575 1158 l 686 1229 q 642 1094 686 1140 q 536 1049 599 1049 q 483 1059 507 1049 q 419 1092 460 1069 q 372 1114 385 1114 q 347 1096 357 1114 q 335 1049 336 1078 l 224 1049 z "},"V":{"ha":899,"x_min":21,"x_max":878,"o":"m 878 972 l 540 0 l 358 0 l 21 972 l 229 972 l 450 254 l 669 972 l 878 972 z "},"W":{"ha":1214,"x_min":35,"x_max":1179,"o":"m 1179 972 l 975 0 l 785 0 l 607 724 l 429 0 l 239 0 l 35 972 l 247 972 l 353 329 l 513 972 l 701 972 l 861 329 l 967 972 l 1179 972 z "},"Ẃ":{"ha":1214,"x_min":35,"x_max":1179,"o":"m 1179 972 l 975 0 l 785 0 l 607 724 l 429 0 l 239 0 l 35 972 l 247 972 l 353 329 l 513 972 l 701 972 l 861 329 l 967 972 l 1179 972 m 654 1274 l 826 1274 l 678 1049 l 536 1049 l 654 1274 z "},"Ŵ":{"ha":1214,"x_min":35,"x_max":1179,"o":"m 1179 972 l 975 0 l 785 0 l 607 724 l 429 0 l 239 0 l 35 972 l 247 972 l 353 329 l 513 972 l 701 972 l 861 329 l 967 972 l 1179 972 m 556 1274 l 658 1274 l 844 1049 l 690 1049 l 607 1157 l 524 1049 l 369 1049 l 556 1274 z "},"Ẅ":{"ha":1214,"x_min":35,"x_max":1179,"o":"m 1179 972 l 975 0 l 785 0 l 607 724 l 429 0 l 239 0 l 35 972 l 247 972 l 353 329 l 513 972 l 701 972 l 861 329 l 967 972 l 1179 972 m 461 1049 q 394 1074 421 1049 q 368 1140 368 1100 q 394 1206 368 1181 q 461 1232 421 1232 q 528 1206 501 1232 q 554 1140 554 1179 q 528 1075 554 1101 q 461 1049 501 1049 m 753 1049 q 686 1075 713 1049 q 660 1140 660 1101 q 686 1206 660 1179 q 753 1232 713 1232 q 819 1206 793 1232 q 846 1140 846 1181 q 819 1074 846 1100 q 753 1049 793 1049 z "},"Ẁ":{"ha":1214,"x_min":35,"x_max":1179,"o":"m 1179 972 l 975 0 l 785 0 l 607 724 l 429 0 l 239 0 l 35 972 l 247 972 l 353 329 l 513 972 l 701 972 l 861 329 l 967 972 l 1179 972 m 386 1274 l 558 1274 l 676 1049 l 535 1049 l 386 1274 z "},"X":{"ha":910,"x_min":38,"x_max":874,"o":"m 340 497 l 50 972 l 275 972 l 456 657 l 635 972 l 861 972 l 571 497 l 874 0 l 651 0 l 456 332 l 260 0 l 38 0 l 340 497 z "},"Y":{"ha":872,"x_min":21,"x_max":851,"o":"m 336 389 l 21 972 l 238 972 l 436 569 l 635 972 l 851 972 l 536 389 l 536 0 l 336 0 l 336 389 z "},"Ý":{"ha":872,"x_min":21,"x_max":851,"o":"m 336 389 l 21 972 l 238 972 l 436 569 l 635 972 l 851 972 l 536 389 l 536 0 l 336 0 l 336 389 m 483 1274 l 656 1274 l 507 1049 l 365 1049 l 483 1274 z "},"Ŷ":{"ha":872,"x_min":21,"x_max":851,"o":"m 336 389 l 21 972 l 238 972 l 436 569 l 635 972 l 851 972 l 536 389 l 536 0 l 336 0 l 336 389 m 385 1274 l 488 1274 l 674 1049 l 519 1049 l 436 1157 l 353 1049 l 199 1049 l 385 1274 z "},"Ÿ":{"ha":872,"x_min":21,"x_max":851,"o":"m 336 389 l 21 972 l 238 972 l 436 569 l 635 972 l 851 972 l 536 389 l 536 0 l 336 0 l 336 389 m 290 1049 q 224 1074 250 1049 q 197 1140 197 1100 q 224 1206 197 1181 q 290 1232 250 1232 q 357 1206 331 1232 q 383 1140 383 1179 q 357 1075 383 1101 q 290 1049 331 1049 m 582 1049 q 515 1075 542 1049 q 489 1140 489 1101 q 515 1206 489 1179 q 582 1232 542 1232 q 649 1206 622 1232 q 675 1140 675 1181 q 649 1074 675 1100 q 582 1049 622 1049 z "},"Ẏ":{"ha":872,"x_min":21,"x_max":851,"o":"m 336 389 l 21 972 l 238 972 l 436 569 l 635 972 l 851 972 l 536 389 l 536 0 l 336 0 l 336 389 m 436 1049 q 369 1075 396 1049 q 343 1140 343 1101 q 369 1206 343 1179 q 436 1232 396 1232 q 503 1206 476 1232 q 529 1140 529 1179 q 503 1075 529 1101 q 436 1049 476 1049 z "},"Ỵ":{"ha":872,"x_min":21,"x_max":851,"o":"m 336 389 l 21 972 l 238 972 l 436 569 l 635 972 l 851 972 l 536 389 l 536 0 l 336 0 l 336 389 m 436 -283 q 369 -257 396 -283 q 343 -192 343 -231 q 369 -126 343 -153 q 436 -100 396 -100 q 503 -126 476 -100 q 529 -192 529 -153 q 503 -257 529 -231 q 436 -283 476 -283 z "},"Ỳ":{"ha":872,"x_min":21,"x_max":851,"o":"m 336 389 l 21 972 l 238 972 l 436 569 l 635 972 l 851 972 l 536 389 l 536 0 l 336 0 l 336 389 m 215 1274 l 388 1274 l 506 1049 l 364 1049 l 215 1274 z "},"Ỷ":{"ha":872,"x_min":21,"x_max":851,"o":"m 336 389 l 21 972 l 238 972 l 436 569 l 635 972 l 851 972 l 536 389 l 536 0 l 336 0 l 336 389 m 371 1049 q 386 1113 371 1089 q 429 1163 401 1138 q 460 1197 450 1182 q 471 1233 471 1213 q 425 1269 471 1269 q 338 1200 372 1269 l 264 1268 q 337 1344 290 1317 q 439 1371 383 1371 q 556 1337 514 1371 q 599 1243 599 1303 q 585 1185 599 1208 q 544 1133 571 1161 q 510 1091 522 1110 q 499 1049 499 1072 l 371 1049 z "},"Ỹ":{"ha":872,"x_min":21,"x_max":851,"o":"m 336 389 l 21 972 l 238 972 l 436 569 l 635 972 l 851 972 l 536 389 l 536 0 l 336 0 l 336 389 m 200 1049 q 242 1178 200 1132 q 346 1224 285 1224 q 399 1213 374 1224 q 453 1185 424 1203 q 485 1167 469 1175 q 514 1158 501 1158 q 551 1229 551 1158 l 663 1229 q 619 1094 663 1140 q 513 1049 575 1049 q 460 1059 483 1049 q 396 1092 436 1069 q 349 1114 361 1114 q 323 1096 333 1114 q 311 1049 313 1078 l 200 1049 z "},"Z":{"ha":822,"x_min":38,"x_max":785,"o":"m 38 97 l 517 813 l 76 813 l 76 972 l 767 972 l 767 872 l 292 160 l 785 160 l 785 0 l 38 0 l 38 97 z "},"Ź":{"ha":822,"x_min":38,"x_max":785,"o":"m 38 97 l 517 813 l 76 813 l 76 972 l 767 972 l 767 872 l 292 160 l 785 160 l 785 0 l 38 0 l 38 97 m 458 1274 l 631 1274 l 482 1049 l 340 1049 l 458 1274 z "},"Ž":{"ha":822,"x_min":38,"x_max":785,"o":"m 38 97 l 517 813 l 76 813 l 76 972 l 767 972 l 767 872 l 292 160 l 785 160 l 785 0 l 38 0 l 38 97 m 174 1274 l 328 1274 l 411 1165 l 494 1274 l 649 1274 l 463 1049 l 360 1049 l 174 1274 z "},"Ż":{"ha":822,"x_min":38,"x_max":785,"o":"m 38 97 l 517 813 l 76 813 l 76 972 l 767 972 l 767 872 l 292 160 l 785 160 l 785 0 l 38 0 l 38 97 m 411 1049 q 344 1075 371 1049 q 318 1140 318 1101 q 344 1206 318 1179 q 411 1232 371 1232 q 478 1206 451 1232 q 504 1140 504 1179 q 478 1075 504 1101 q 411 1049 451 1049 z "},"Ẓ":{"ha":822,"x_min":38,"x_max":785,"o":"m 38 97 l 517 813 l 76 813 l 76 972 l 767 972 l 767 872 l 292 160 l 785 160 l 785 0 l 38 0 l 38 97 m 411 -283 q 344 -257 371 -283 q 318 -192 318 -231 q 344 -126 318 -153 q 411 -100 371 -100 q 478 -126 451 -100 q 504 -192 504 -153 q 478 -257 504 -231 q 411 -283 451 -283 z "},"a":{"ha":735,"x_min":42,"x_max":671,"o":"m 279 -14 q 157 15 211 -14 q 72 94 103 43 q 42 207 42 144 q 126 371 42 314 q 368 428 211 428 l 476 428 l 476 457 q 444 542 476 513 q 351 572 411 572 q 232 550 289 572 q 139 489 175 528 l 61 592 q 196 677 118 646 q 357 708 274 708 q 575 643 496 708 q 654 463 654 578 l 654 146 q 659 71 654 114 q 671 0 664 28 l 514 0 q 501 35 506 18 q 494 83 497 53 l 492 83 q 279 -14 413 -14 m 322 119 q 433 153 389 119 q 476 240 476 188 l 476 310 l 363 310 q 253 283 292 310 q 215 207 215 257 q 244 142 215 165 q 322 119 272 119 z "},"á":{"ha":735,"x_min":42,"x_max":671,"o":"m 279 -14 q 157 15 211 -14 q 72 94 103 43 q 42 207 42 144 q 126 371 42 314 q 368 428 211 428 l 476 428 l 476 457 q 444 542 476 513 q 351 572 411 572 q 232 550 289 572 q 139 489 175 528 l 61 592 q 196 677 118 646 q 357 708 274 708 q 575 643 496 708 q 654 463 654 578 l 654 146 q 659 71 654 114 q 671 0 664 28 l 514 0 q 501 35 506 18 q 494 83 497 53 l 492 83 q 279 -14 413 -14 m 322 119 q 433 153 389 119 q 476 240 476 188 l 476 310 l 363 310 q 253 283 292 310 q 215 207 215 257 q 244 142 215 165 q 322 119 272 119 m 410 996 l 582 996 l 433 771 l 292 771 l 410 996 z "},"ă":{"ha":735,"x_min":42,"x_max":671,"o":"m 279 -14 q 157 15 211 -14 q 72 94 103 43 q 42 207 42 144 q 126 371 42 314 q 368 428 211 428 l 476 428 l 476 457 q 444 542 476 513 q 351 572 411 572 q 232 550 289 572 q 139 489 175 528 l 61 592 q 196 677 118 646 q 357 708 274 708 q 575 643 496 708 q 654 463 654 578 l 654 146 q 659 71 654 114 q 671 0 664 28 l 514 0 q 501 35 506 18 q 494 83 497 53 l 492 83 q 279 -14 413 -14 m 322 119 q 433 153 389 119 q 476 240 476 188 l 476 310 l 363 310 q 253 283 292 310 q 215 207 215 257 q 244 142 215 165 q 322 119 272 119 m 363 771 q 197 825 256 771 q 138 982 139 879 l 256 982 q 285 908 257 935 q 363 882 313 882 q 440 908 413 882 q 469 982 468 935 l 588 982 q 529 826 588 881 q 363 771 471 771 z "},"ắ":{"ha":735,"x_min":42,"x_max":671,"o":"m 279 -14 q 157 15 211 -14 q 72 94 103 43 q 42 207 42 144 q 126 371 42 314 q 368 428 211 428 l 476 428 l 476 457 q 444 542 476 513 q 351 572 411 572 q 232 550 289 572 q 139 489 175 528 l 61 592 q 196 677 118 646 q 357 708 274 708 q 575 643 496 708 q 654 463 654 578 l 654 146 q 659 71 654 114 q 671 0 664 28 l 514 0 q 501 35 506 18 q 494 83 497 53 l 492 83 q 279 -14 413 -14 m 322 119 q 433 153 389 119 q 476 240 476 188 l 476 310 l 363 310 q 253 283 292 310 q 215 207 215 257 q 244 142 215 165 q 322 119 272 119 m 374 1169 l 500 1169 l 411 1018 l 307 1018 l 374 1169 m 363 771 q 197 825 256 771 q 138 982 139 879 l 256 982 q 285 908 257 935 q 363 882 313 882 q 440 908 413 882 q 469 982 468 935 l 588 982 q 529 826 588 881 q 363 771 471 771 z "},"ặ":{"ha":735,"x_min":42,"x_max":671,"o":"m 279 -14 q 157 15 211 -14 q 72 94 103 43 q 42 207 42 144 q 126 371 42 314 q 368 428 211 428 l 476 428 l 476 457 q 444 542 476 513 q 351 572 411 572 q 232 550 289 572 q 139 489 175 528 l 61 592 q 196 677 118 646 q 357 708 274 708 q 575 643 496 708 q 654 463 654 578 l 654 146 q 659 71 654 114 q 671 0 664 28 l 514 0 q 501 35 506 18 q 494 83 497 53 l 492 83 q 279 -14 413 -14 m 322 119 q 433 153 389 119 q 476 240 476 188 l 476 310 l 363 310 q 253 283 292 310 q 215 207 215 257 q 244 142 215 165 q 322 119 272 119 m 365 -283 q 299 -257 325 -283 q 272 -192 272 -231 q 299 -126 272 -153 q 365 -100 325 -100 q 432 -126 406 -100 q 458 -192 458 -153 q 432 -257 458 -231 q 365 -283 406 -283 m 363 771 q 197 825 256 771 q 138 982 139 879 l 256 982 q 285 908 257 935 q 363 882 313 882 q 440 908 413 882 q 469 982 468 935 l 588 982 q 529 826 588 881 q 363 771 471 771 z "},"ằ":{"ha":735,"x_min":42,"x_max":671,"o":"m 279 -14 q 157 15 211 -14 q 72 94 103 43 q 42 207 42 144 q 126 371 42 314 q 368 428 211 428 l 476 428 l 476 457 q 444 542 476 513 q 351 572 411 572 q 232 550 289 572 q 139 489 175 528 l 61 592 q 196 677 118 646 q 357 708 274 708 q 575 643 496 708 q 654 463 654 578 l 654 146 q 659 71 654 114 q 671 0 664 28 l 514 0 q 501 35 506 18 q 494 83 497 53 l 492 83 q 279 -14 413 -14 m 322 119 q 433 153 389 119 q 476 240 476 188 l 476 310 l 363 310 q 253 283 292 310 q 215 207 215 257 q 244 142 215 165 q 322 119 272 119 m 218 1169 l 344 1169 l 411 1018 l 306 1018 l 218 1169 m 363 771 q 197 825 256 771 q 138 982 139 879 l 256 982 q 285 908 257 935 q 363 882 313 882 q 440 908 413 882 q 469 982 468 935 l 588 982 q 529 826 588 881 q 363 771 471 771 z "},"ẳ":{"ha":735,"x_min":42,"x_max":671,"o":"m 279 -14 q 157 15 211 -14 q 72 94 103 43 q 42 207 42 144 q 126 371 42 314 q 368 428 211 428 l 476 428 l 476 457 q 444 542 476 513 q 351 572 411 572 q 232 550 289 572 q 139 489 175 528 l 61 592 q 196 677 118 646 q 357 708 274 708 q 575 643 496 708 q 654 463 654 578 l 654 146 q 659 71 654 114 q 671 0 664 28 l 514 0 q 501 35 506 18 q 494 83 497 53 l 492 83 q 279 -14 413 -14 m 322 119 q 433 153 389 119 q 476 240 476 188 l 476 310 l 363 310 q 253 283 292 310 q 215 207 215 257 q 244 142 215 165 q 322 119 272 119 m 315 1015 q 328 1069 315 1050 q 368 1110 342 1089 q 394 1132 386 1122 q 403 1157 403 1142 q 393 1176 403 1168 q 365 1183 383 1183 q 324 1172 344 1183 q 292 1143 303 1161 l 238 1194 q 296 1246 258 1226 q 375 1265 333 1265 q 461 1237 428 1265 q 494 1164 494 1208 q 483 1119 494 1136 q 451 1085 472 1103 q 421 1051 431 1065 q 410 1015 411 1038 l 315 1015 m 363 771 q 197 825 256 771 q 138 982 139 879 l 256 982 q 285 908 257 935 q 363 882 313 882 q 440 908 413 882 q 469 982 468 935 l 588 982 q 529 826 588 881 q 363 771 471 771 z "},"ẵ":{"ha":735,"x_min":42,"x_max":671,"o":"m 279 -14 q 157 15 211 -14 q 72 94 103 43 q 42 207 42 144 q 126 371 42 314 q 368 428 211 428 l 476 428 l 476 457 q 444 542 476 513 q 351 572 411 572 q 232 550 289 572 q 139 489 175 528 l 61 592 q 196 677 118 646 q 357 708 274 708 q 575 643 496 708 q 654 463 654 578 l 654 146 q 659 71 654 114 q 671 0 664 28 l 514 0 q 501 35 506 18 q 494 83 497 53 l 492 83 q 279 -14 413 -14 m 322 119 q 433 153 389 119 q 476 240 476 188 l 476 310 l 363 310 q 253 283 292 310 q 215 207 215 257 q 244 142 215 165 q 322 119 272 119 m 436 1033 q 392 1042 411 1033 q 343 1069 372 1051 q 310 1090 322 1083 q 286 1096 299 1096 q 256 1081 269 1096 q 236 1040 242 1067 l 153 1040 q 283 1181 175 1181 q 330 1172 307 1181 q 382 1146 353 1163 q 417 1128 399 1136 q 447 1121 435 1121 q 494 1179 488 1121 l 575 1179 q 532 1071 568 1108 q 436 1033 496 1033 m 363 771 q 197 825 256 771 q 138 982 139 879 l 256 982 q 285 908 257 935 q 363 882 313 882 q 440 908 413 882 q 469 982 468 935 l 588 982 q 529 826 588 881 q 363 771 471 771 z "},"ǎ":{"ha":735,"x_min":42,"x_max":671,"o":"m 279 -14 q 157 15 211 -14 q 72 94 103 43 q 42 207 42 144 q 126 371 42 314 q 368 428 211 428 l 476 428 l 476 457 q 444 542 476 513 q 351 572 411 572 q 232 550 289 572 q 139 489 175 528 l 61 592 q 196 677 118 646 q 357 708 274 708 q 575 643 496 708 q 654 463 654 578 l 654 146 q 659 71 654 114 q 671 0 664 28 l 514 0 q 501 35 506 18 q 494 83 497 53 l 492 83 q 279 -14 413 -14 m 322 119 q 433 153 389 119 q 476 240 476 188 l 476 310 l 363 310 q 253 283 292 310 q 215 207 215 257 q 244 142 215 165 q 322 119 272 119 m 125 996 l 279 996 l 363 888 l 446 996 l 600 996 l 414 771 l 311 771 l 125 996 z "},"â":{"ha":735,"x_min":42,"x_max":671,"o":"m 279 -14 q 157 15 211 -14 q 72 94 103 43 q 42 207 42 144 q 126 371 42 314 q 368 428 211 428 l 476 428 l 476 457 q 444 542 476 513 q 351 572 411 572 q 232 550 289 572 q 139 489 175 528 l 61 592 q 196 677 118 646 q 357 708 274 708 q 575 643 496 708 q 654 463 654 578 l 654 146 q 659 71 654 114 q 671 0 664 28 l 514 0 q 501 35 506 18 q 494 83 497 53 l 492 83 q 279 -14 413 -14 m 322 119 q 433 153 389 119 q 476 240 476 188 l 476 310 l 363 310 q 253 283 292 310 q 215 207 215 257 q 244 142 215 165 q 322 119 272 119 m 311 996 l 414 996 l 600 771 l 446 771 l 363 879 l 279 771 l 125 771 l 311 996 z "},"ấ":{"ha":735,"x_min":42,"x_max":699,"o":"m 279 -14 q 157 15 211 -14 q 72 94 103 43 q 42 207 42 144 q 126 371 42 314 q 368 428 211 428 l 476 428 l 476 457 q 444 542 476 513 q 351 572 411 572 q 232 550 289 572 q 139 489 175 528 l 61 592 q 196 677 118 646 q 357 708 274 708 q 575 643 496 708 q 654 463 654 578 l 654 146 q 659 71 654 114 q 671 0 664 28 l 514 0 q 501 35 506 18 q 494 83 497 53 l 492 83 q 279 -14 413 -14 m 322 119 q 433 153 389 119 q 476 240 476 188 l 476 310 l 363 310 q 253 283 292 310 q 215 207 215 257 q 244 142 215 165 q 322 119 272 119 m 572 1115 l 699 1115 l 611 965 l 507 965 l 572 1115 m 311 996 l 413 996 l 600 771 l 444 771 l 363 879 l 279 771 l 125 771 l 311 996 z "},"ậ":{"ha":735,"x_min":42,"x_max":671,"o":"m 279 -14 q 157 15 211 -14 q 72 94 103 43 q 42 207 42 144 q 126 371 42 314 q 368 428 211 428 l 476 428 l 476 457 q 444 542 476 513 q 351 572 411 572 q 232 550 289 572 q 139 489 175 528 l 61 592 q 196 677 118 646 q 357 708 274 708 q 575 643 496 708 q 654 463 654 578 l 654 146 q 659 71 654 114 q 671 0 664 28 l 514 0 q 501 35 506 18 q 494 83 497 53 l 492 83 q 279 -14 413 -14 m 322 119 q 433 153 389 119 q 476 240 476 188 l 476 310 l 363 310 q 253 283 292 310 q 215 207 215 257 q 244 142 215 165 q 322 119 272 119 m 365 -283 q 299 -257 325 -283 q 272 -192 272 -231 q 299 -126 272 -153 q 365 -100 325 -100 q 432 -126 406 -100 q 458 -192 458 -153 q 432 -257 458 -231 q 365 -283 406 -283 m 311 996 l 414 996 l 600 771 l 446 771 l 363 879 l 279 771 l 125 771 l 311 996 z "},"ầ":{"ha":735,"x_min":42,"x_max":671,"o":"m 279 -14 q 157 15 211 -14 q 72 94 103 43 q 42 207 42 144 q 126 371 42 314 q 368 428 211 428 l 476 428 l 476 457 q 444 542 476 513 q 351 572 411 572 q 232 550 289 572 q 139 489 175 528 l 61 592 q 196 677 118 646 q 357 708 274 708 q 575 643 496 708 q 654 463 654 578 l 654 146 q 659 71 654 114 q 671 0 664 28 l 514 0 q 501 35 506 18 q 494 83 497 53 l 492 83 q 279 -14 413 -14 m 322 119 q 433 153 389 119 q 476 240 476 188 l 476 310 l 363 310 q 253 283 292 310 q 215 207 215 257 q 244 142 215 165 q 322 119 272 119 m 465 1115 l 592 1115 l 657 965 l 553 965 l 465 1115 m 311 996 l 413 996 l 600 771 l 444 771 l 363 879 l 279 771 l 125 771 l 311 996 z "},"ẩ":{"ha":735,"x_min":42,"x_max":731,"o":"m 279 -14 q 157 15 211 -14 q 72 94 103 43 q 42 207 42 144 q 126 371 42 314 q 368 428 211 428 l 476 428 l 476 457 q 444 542 476 513 q 351 572 411 572 q 232 550 289 572 q 139 489 175 528 l 61 592 q 196 677 118 646 q 357 708 274 708 q 575 643 496 708 q 654 463 654 578 l 654 146 q 659 71 654 114 q 671 0 664 28 l 514 0 q 501 35 506 18 q 494 83 497 53 l 492 83 q 279 -14 413 -14 m 322 119 q 433 153 389 119 q 476 240 476 188 l 476 310 l 363 310 q 253 283 292 310 q 215 207 215 257 q 244 142 215 165 q 322 119 272 119 m 551 940 q 565 996 551 976 q 604 1035 579 1015 q 631 1058 622 1049 q 639 1083 639 1068 q 628 1101 639 1094 q 601 1108 618 1108 q 560 1098 581 1108 q 528 1068 540 1088 l 474 1119 q 533 1171 494 1151 q 611 1190 571 1190 q 697 1163 664 1190 q 731 1090 731 1135 q 719 1046 731 1063 q 688 1011 708 1029 q 657 978 667 992 q 646 940 647 964 l 551 940 m 311 996 l 413 996 l 600 771 l 444 771 l 363 879 l 279 771 l 125 771 l 311 996 z "},"ẫ":{"ha":735,"x_min":42,"x_max":671,"o":"m 279 -14 q 157 15 211 -14 q 72 94 103 43 q 42 207 42 144 q 126 371 42 314 q 368 428 211 428 l 476 428 l 476 457 q 444 542 476 513 q 351 572 411 572 q 232 550 289 572 q 139 489 175 528 l 61 592 q 196 677 118 646 q 357 708 274 708 q 575 643 496 708 q 654 463 654 578 l 654 146 q 659 71 654 114 q 671 0 664 28 l 514 0 q 501 35 506 18 q 494 83 497 53 l 492 83 q 279 -14 413 -14 m 322 119 q 433 153 389 119 q 476 240 476 188 l 476 310 l 363 310 q 253 283 292 310 q 215 207 215 257 q 244 142 215 165 q 322 119 272 119 m 435 1039 q 392 1048 411 1039 q 343 1075 372 1057 q 286 1101 306 1101 q 256 1087 269 1101 q 236 1046 242 1072 l 153 1046 q 283 1186 175 1186 q 328 1178 307 1186 q 381 1153 349 1169 q 408 1139 385 1150 q 447 1128 431 1128 q 494 1185 488 1128 l 575 1185 q 532 1076 568 1114 q 435 1039 496 1039 m 311 996 l 413 996 l 600 771 l 444 771 l 363 879 l 279 771 l 125 771 l 311 996 z "},"ä":{"ha":735,"x_min":42,"x_max":671,"o":"m 279 -14 q 157 15 211 -14 q 72 94 103 43 q 42 207 42 144 q 126 371 42 314 q 368 428 211 428 l 476 428 l 476 457 q 444 542 476 513 q 351 572 411 572 q 232 550 289 572 q 139 489 175 528 l 61 592 q 196 677 118 646 q 357 708 274 708 q 575 643 496 708 q 654 463 654 578 l 654 146 q 659 71 654 114 q 671 0 664 28 l 514 0 q 501 35 506 18 q 494 83 497 53 l 492 83 q 279 -14 413 -14 m 322 119 q 433 153 389 119 q 476 240 476 188 l 476 310 l 363 310 q 253 283 292 310 q 215 207 215 257 q 244 142 215 165 q 322 119 272 119 m 217 771 q 150 797 176 771 q 124 863 124 822 q 150 928 124 903 q 217 954 176 954 q 283 928 257 954 q 310 863 310 901 q 283 797 310 824 q 217 771 257 771 m 508 771 q 442 797 468 771 q 415 863 415 824 q 442 928 415 901 q 508 954 468 954 q 575 928 549 954 q 601 863 601 903 q 575 797 601 822 q 508 771 549 771 z "},"ạ":{"ha":735,"x_min":42,"x_max":671,"o":"m 279 -14 q 157 15 211 -14 q 72 94 103 43 q 42 207 42 144 q 126 371 42 314 q 368 428 211 428 l 476 428 l 476 457 q 444 542 476 513 q 351 572 411 572 q 232 550 289 572 q 139 489 175 528 l 61 592 q 196 677 118 646 q 357 708 274 708 q 575 643 496 708 q 654 463 654 578 l 654 146 q 659 71 654 114 q 671 0 664 28 l 514 0 q 501 35 506 18 q 494 83 497 53 l 492 83 q 279 -14 413 -14 m 322 119 q 433 153 389 119 q 476 240 476 188 l 476 310 l 363 310 q 253 283 292 310 q 215 207 215 257 q 244 142 215 165 q 322 119 272 119 m 365 -283 q 299 -257 325 -283 q 272 -192 272 -231 q 299 -126 272 -153 q 365 -100 325 -100 q 432 -126 406 -100 q 458 -192 458 -153 q 432 -257 458 -231 q 365 -283 406 -283 z "},"à":{"ha":735,"x_min":42,"x_max":671,"o":"m 279 -14 q 157 15 211 -14 q 72 94 103 43 q 42 207 42 144 q 126 371 42 314 q 368 428 211 428 l 476 428 l 476 457 q 444 542 476 513 q 351 572 411 572 q 232 550 289 572 q 139 489 175 528 l 61 592 q 196 677 118 646 q 357 708 274 708 q 575 643 496 708 q 654 463 654 578 l 654 146 q 659 71 654 114 q 671 0 664 28 l 514 0 q 501 35 506 18 q 494 83 497 53 l 492 83 q 279 -14 413 -14 m 322 119 q 433 153 389 119 q 476 240 476 188 l 476 310 l 363 310 q 253 283 292 310 q 215 207 215 257 q 244 142 215 165 q 322 119 272 119 m 142 996 l 314 996 l 432 771 l 290 771 l 142 996 z "},"ả":{"ha":735,"x_min":42,"x_max":671,"o":"m 279 -14 q 157 15 211 -14 q 72 94 103 43 q 42 207 42 144 q 126 371 42 314 q 368 428 211 428 l 476 428 l 476 457 q 444 542 476 513 q 351 572 411 572 q 232 550 289 572 q 139 489 175 528 l 61 592 q 196 677 118 646 q 357 708 274 708 q 575 643 496 708 q 654 463 654 578 l 654 146 q 659 71 654 114 q 671 0 664 28 l 514 0 q 501 35 506 18 q 494 83 497 53 l 492 83 q 279 -14 413 -14 m 322 119 q 433 153 389 119 q 476 240 476 188 l 476 310 l 363 310 q 253 283 292 310 q 215 207 215 257 q 244 142 215 165 q 322 119 272 119 m 297 771 q 313 835 297 811 q 356 885 328 860 q 387 919 376 904 q 397 956 397 935 q 351 992 397 992 q 264 922 299 992 l 190 990 q 263 1066 217 1039 q 365 1093 310 1093 q 483 1059 440 1093 q 525 965 525 1025 q 511 907 525 931 q 471 856 497 883 q 437 813 449 832 q 425 771 425 794 l 297 771 z "},"ɑ":{"ha":751,"x_min":38,"x_max":685,"o":"m 319 -14 q 113 85 188 -14 q 38 358 38 185 q 73 544 38 465 q 173 666 108 624 q 322 708 238 708 q 426 688 383 708 q 503 624 469 667 l 506 624 l 506 694 l 681 694 l 681 185 q 685 0 681 44 l 519 0 q 517 92 517 33 l 514 92 q 432 15 485 43 q 319 -14 379 -14 m 354 122 q 463 164 421 122 q 506 276 506 206 l 506 419 q 462 531 506 486 q 354 576 418 576 q 249 519 285 576 q 213 356 213 463 q 249 183 213 243 q 354 122 286 122 z "},"ā":{"ha":735,"x_min":42,"x_max":671,"o":"m 279 -14 q 157 15 211 -14 q 72 94 103 43 q 42 207 42 144 q 126 371 42 314 q 368 428 211 428 l 476 428 l 476 457 q 444 542 476 513 q 351 572 411 572 q 232 550 289 572 q 139 489 175 528 l 61 592 q 196 677 118 646 q 357 708 274 708 q 575 643 496 708 q 654 463 654 578 l 654 146 q 659 71 654 114 q 671 0 664 28 l 514 0 q 501 35 506 18 q 494 83 497 53 l 492 83 q 279 -14 413 -14 m 322 119 q 433 153 389 119 q 476 240 476 188 l 476 310 l 363 310 q 253 283 292 310 q 215 207 215 257 q 244 142 215 165 q 322 119 272 119 m 125 910 l 600 910 l 600 794 l 125 794 l 125 910 z "},"ą":{"ha":735,"x_min":42,"x_max":701,"o":"m 701 -269 q 635 -310 675 -296 q 553 -325 594 -325 q 438 -288 479 -325 q 396 -182 396 -251 q 526 0 396 -69 l 514 0 q 501 35 506 18 q 494 83 497 53 l 492 83 q 279 -14 413 -14 q 157 15 211 -14 q 72 94 103 43 q 42 207 42 144 q 126 371 42 314 q 368 428 211 428 l 476 428 l 476 457 q 444 542 476 513 q 351 572 411 572 q 232 550 289 572 q 139 489 175 528 l 61 592 q 196 677 118 646 q 357 708 274 708 q 575 643 496 708 q 654 463 654 578 l 654 146 q 659 71 654 114 q 671 0 664 28 l 647 0 q 524 -158 524 -85 q 540 -194 524 -179 q 590 -208 557 -208 q 676 -186 617 -208 l 701 -269 m 476 310 l 363 310 q 253 283 292 310 q 215 207 215 257 q 244 142 215 165 q 322 119 272 119 q 433 153 389 119 q 476 240 476 188 l 476 310 z "},"å":{"ha":735,"x_min":42,"x_max":671,"o":"m 279 -14 q 157 15 211 -14 q 72 94 103 43 q 42 207 42 144 q 126 371 42 314 q 368 428 211 428 l 476 428 l 476 457 q 444 542 476 513 q 351 572 411 572 q 232 550 289 572 q 139 489 175 528 l 61 592 q 196 677 118 646 q 357 708 274 708 q 575 643 496 708 q 654 463 654 578 l 654 146 q 659 71 654 114 q 671 0 664 28 l 514 0 q 501 35 506 18 q 494 83 497 53 l 492 83 q 279 -14 413 -14 m 322 119 q 433 153 389 119 q 476 240 476 188 l 476 310 l 363 310 q 253 283 292 310 q 215 207 215 257 q 244 142 215 165 q 322 119 272 119 m 363 765 q 256 804 297 765 q 215 904 215 843 q 256 1004 215 965 q 363 1043 297 1043 q 469 1004 428 1043 q 510 904 510 965 q 469 804 510 843 q 363 765 428 765 m 363 833 q 412 853 393 833 q 431 904 431 872 q 412 956 431 936 q 363 975 393 975 q 313 956 332 975 q 294 904 294 936 q 313 853 294 872 q 363 833 332 833 z "},"ǻ":{"ha":735,"x_min":42,"x_max":671,"o":"m 381 1242 l 531 1242 l 432 1090 l 303 1090 l 381 1242 m 363 765 q 256 804 297 765 q 215 904 215 843 q 256 1004 215 965 q 363 1043 297 1043 q 467 1004 426 1043 q 508 904 508 965 q 467 804 508 843 q 363 765 426 765 m 363 833 q 412 853 393 833 q 431 904 431 872 q 412 956 431 936 q 363 975 393 975 q 313 956 332 975 q 294 904 294 936 q 313 853 294 872 q 363 833 332 833 m 279 -14 q 157 15 211 -14 q 72 94 103 43 q 42 207 42 144 q 126 371 42 314 q 368 428 211 428 l 476 428 l 476 457 q 444 542 476 513 q 351 572 411 572 q 232 550 289 572 q 139 489 175 528 l 61 592 q 196 677 118 646 q 357 708 274 708 q 575 643 496 708 q 654 463 654 578 l 654 146 q 659 71 654 114 q 671 0 664 28 l 514 0 q 501 35 506 18 q 494 83 497 53 l 492 83 q 279 -14 413 -14 m 322 119 q 433 153 389 119 q 476 240 476 188 l 476 310 l 363 310 q 253 283 292 310 q 215 207 215 257 q 244 142 215 165 q 322 119 272 119 z "},"ã":{"ha":735,"x_min":42,"x_max":671,"o":"m 279 -14 q 157 15 211 -14 q 72 94 103 43 q 42 207 42 144 q 126 371 42 314 q 368 428 211 428 l 476 428 l 476 457 q 444 542 476 513 q 351 572 411 572 q 232 550 289 572 q 139 489 175 528 l 61 592 q 196 677 118 646 q 357 708 274 708 q 575 643 496 708 q 654 463 654 578 l 654 146 q 659 71 654 114 q 671 0 664 28 l 514 0 q 501 35 506 18 q 494 83 497 53 l 492 83 q 279 -14 413 -14 m 322 119 q 433 153 389 119 q 476 240 476 188 l 476 310 l 363 310 q 253 283 292 310 q 215 207 215 257 q 244 142 215 165 q 322 119 272 119 m 126 771 q 169 900 126 854 q 272 946 211 946 q 325 935 300 946 q 379 907 350 925 q 412 889 396 897 q 440 881 428 881 q 478 951 478 881 l 589 951 q 545 817 589 863 q 439 771 501 771 q 386 781 410 771 q 322 814 363 792 q 275 836 288 836 q 249 818 260 836 q 238 771 239 800 l 126 771 z "},"æ":{"ha":1142,"x_min":42,"x_max":1097,"o":"m 1097 297 l 633 297 q 797 135 653 135 q 897 156 854 135 q 983 225 939 176 l 1078 133 q 960 26 1039 67 q 786 -14 881 -14 q 654 10 714 -14 q 551 78 594 33 q 441 10 504 35 q 310 -14 378 -14 q 115 47 189 -14 q 42 206 42 107 q 115 363 42 311 q 338 415 189 415 l 456 415 l 456 457 q 426 543 456 514 q 339 572 396 572 q 224 551 276 572 q 136 489 172 529 l 60 592 q 188 678 115 649 q 344 708 261 708 q 567 629 492 708 q 785 708 654 708 q 1015 617 933 708 q 1097 358 1097 526 l 1097 297 m 924 422 q 887 526 924 489 q 782 564 850 564 q 685 526 722 564 q 636 415 647 488 l 924 415 l 924 422 m 456 297 l 350 297 q 247 275 281 297 q 214 206 214 253 q 240 142 214 164 q 314 119 267 119 q 415 154 375 119 q 456 240 456 189 l 456 297 z "},"ǽ":{"ha":1142,"x_min":42,"x_max":1097,"o":"m 1097 297 l 633 297 q 797 135 653 135 q 897 156 854 135 q 983 225 939 176 l 1078 133 q 960 26 1039 67 q 786 -14 881 -14 q 654 10 714 -14 q 551 78 594 33 q 441 10 504 35 q 310 -14 378 -14 q 115 47 189 -14 q 42 206 42 107 q 115 363 42 311 q 338 415 189 415 l 456 415 l 456 457 q 426 543 456 514 q 339 572 396 572 q 224 551 276 572 q 136 489 172 529 l 60 592 q 188 678 115 649 q 344 708 261 708 q 567 629 492 708 q 785 708 654 708 q 1015 617 933 708 q 1097 358 1097 526 l 1097 297 m 924 422 q 887 526 924 489 q 782 564 850 564 q 685 526 722 564 q 636 415 647 488 l 924 415 l 924 422 m 456 297 l 350 297 q 247 275 281 297 q 214 206 214 253 q 240 142 214 164 q 314 119 267 119 q 415 154 375 119 q 456 240 456 189 l 456 297 m 619 996 l 792 996 l 643 771 l 501 771 l 619 996 z "},"b":{"ha":775,"x_min":68,"x_max":738,"o":"m 444 -14 q 327 15 383 -14 q 239 92 271 44 l 236 92 q 235 0 236 25 l 68 0 q 72 185 72 40 l 72 1031 l 249 1031 l 249 624 l 251 624 q 453 708 311 708 q 662 615 586 708 q 738 358 738 522 q 659 85 738 185 q 444 -14 581 -14 m 410 122 q 522 183 483 122 q 561 356 561 243 q 522 519 561 463 q 410 576 483 576 q 294 532 340 576 q 249 419 249 488 l 249 276 q 292 165 249 207 q 410 122 336 122 z "},"c":{"ha":683,"x_min":38,"x_max":664,"o":"m 383 -14 q 130 83 222 -14 q 38 347 38 179 q 130 613 38 517 q 383 708 222 708 q 553 672 481 708 q 664 569 625 636 l 557 476 q 487 547 531 522 q 392 572 443 572 q 261 513 308 572 q 214 347 214 453 q 261 182 214 242 q 392 122 308 122 q 486 148 443 122 q 557 218 529 174 l 664 125 q 553 22 625 58 q 383 -14 481 -14 z "},"ć":{"ha":683,"x_min":38,"x_max":664,"o":"m 383 -14 q 130 83 222 -14 q 38 347 38 179 q 130 613 38 517 q 383 708 222 708 q 553 672 481 708 q 664 569 625 636 l 557 476 q 487 547 531 522 q 392 572 443 572 q 261 513 308 572 q 214 347 214 453 q 261 182 214 242 q 392 122 308 122 q 486 148 443 122 q 557 218 529 174 l 664 125 q 553 22 625 58 q 383 -14 481 -14 m 439 996 l 611 996 l 463 771 l 321 771 l 439 996 z "},"č":{"ha":683,"x_min":38,"x_max":664,"o":"m 383 -14 q 130 83 222 -14 q 38 347 38 179 q 130 613 38 517 q 383 708 222 708 q 553 672 481 708 q 664 569 625 636 l 557 476 q 487 547 531 522 q 392 572 443 572 q 261 513 308 572 q 214 347 214 453 q 261 182 214 242 q 392 122 308 122 q 486 148 443 122 q 557 218 529 174 l 664 125 q 553 22 625 58 q 383 -14 481 -14 m 154 996 l 308 996 l 392 888 l 475 996 l 629 996 l 443 771 l 340 771 l 154 996 z "},"ç":{"ha":683,"x_min":38,"x_max":664,"o":"m 392 122 q 486 148 443 122 q 557 218 529 174 l 664 125 q 576 35 632 69 q 449 -10 521 0 l 401 -92 q 496 -120 460 -92 q 532 -199 532 -149 q 487 -298 532 -260 q 368 -336 442 -336 q 297 -328 333 -336 q 238 -307 260 -319 l 256 -231 q 349 -247 301 -247 q 392 -235 376 -247 q 407 -203 407 -224 q 382 -169 407 -181 q 315 -160 357 -157 l 275 -114 l 332 -11 q 115 98 193 4 q 38 347 38 192 q 130 613 38 517 q 383 708 222 708 q 553 672 481 708 q 664 569 625 636 l 557 476 q 487 547 531 522 q 392 572 443 572 q 261 513 308 572 q 214 347 214 453 q 261 182 214 242 q 392 122 308 122 z "},"ĉ":{"ha":683,"x_min":38,"x_max":664,"o":"m 383 -14 q 130 83 222 -14 q 38 347 38 179 q 130 613 38 517 q 383 708 222 708 q 553 672 481 708 q 664 569 625 636 l 557 476 q 487 547 531 522 q 392 572 443 572 q 261 513 308 572 q 214 347 214 453 q 261 182 214 242 q 392 122 308 122 q 486 148 443 122 q 557 218 529 174 l 664 125 q 553 22 625 58 q 383 -14 481 -14 m 340 996 l 443 996 l 629 771 l 475 771 l 392 879 l 308 771 l 154 771 l 340 996 z "},"ċ":{"ha":683,"x_min":38,"x_max":664,"o":"m 383 -14 q 130 83 222 -14 q 38 347 38 179 q 130 613 38 517 q 383 708 222 708 q 553 672 481 708 q 664 569 625 636 l 557 476 q 487 547 531 522 q 392 572 443 572 q 261 513 308 572 q 214 347 214 453 q 261 182 214 242 q 392 122 308 122 q 486 148 443 122 q 557 218 529 174 l 664 125 q 553 22 625 58 q 383 -14 481 -14 m 392 771 q 325 797 351 771 q 299 863 299 824 q 325 928 299 901 q 392 954 351 954 q 458 928 432 954 q 485 863 485 901 q 458 797 485 824 q 392 771 432 771 z "},"d":{"ha":775,"x_min":38,"x_max":707,"o":"m 331 -14 q 116 85 194 -14 q 38 358 38 185 q 74 543 38 464 q 177 665 110 622 q 335 708 244 708 q 442 688 396 708 q 524 624 489 667 l 526 624 l 526 1031 l 703 1031 l 703 185 q 707 0 703 40 l 540 0 q 539 92 539 24 l 536 92 q 448 15 504 44 q 331 -14 392 -14 m 365 122 q 483 165 439 122 q 526 276 526 207 l 526 419 q 481 532 526 488 q 365 576 435 576 q 253 519 292 576 q 214 356 214 463 q 253 183 214 243 q 365 122 292 122 z "},"ð":{"ha":713,"x_min":44,"x_max":669,"o":"m 454 817 q 613 609 556 731 q 669 351 669 488 q 630 159 669 242 q 518 31 590 76 q 349 -14 446 -14 q 190 25 260 -14 q 83 135 121 64 q 44 297 44 206 q 83 464 44 390 q 190 579 121 538 q 344 621 258 621 q 440 596 393 621 q 333 739 400 678 l 158 625 l 94 719 l 233 810 q 92 860 161 849 l 106 965 q 353 888 242 950 l 518 994 l 582 899 l 454 817 m 356 124 q 459 172 421 124 q 497 303 497 219 q 459 437 497 388 q 356 486 421 486 q 256 438 292 486 q 219 303 219 389 q 256 172 219 221 q 356 124 292 124 z "},"ď":{"ha":1031,"x_min":38,"x_max":1017,"o":"m 331 -14 q 116 85 194 -14 q 38 358 38 185 q 74 543 38 464 q 177 665 110 622 q 335 708 244 708 q 442 688 396 708 q 524 624 489 667 l 526 624 l 526 1031 l 703 1031 l 703 185 q 707 0 703 40 l 540 0 q 539 92 539 24 l 536 92 q 448 15 504 44 q 331 -14 392 -14 m 365 122 q 483 165 439 122 q 526 276 526 207 l 526 419 q 481 532 526 488 q 365 576 435 576 q 253 519 292 576 q 214 356 214 463 q 253 183 214 243 q 365 122 292 122 m 907 1061 q 987 1030 957 1061 q 1017 949 1017 999 q 987 836 1017 896 q 908 733 957 776 l 838 786 q 897 871 879 836 q 834 901 858 875 q 810 965 810 926 q 837 1035 810 1008 q 907 1061 864 1061 z "},"đ":{"ha":814,"x_min":38,"x_max":786,"o":"m 703 811 l 703 185 q 707 0 703 40 l 540 0 q 539 92 539 24 l 536 92 q 448 15 504 44 q 331 -14 392 -14 q 116 85 194 -14 q 38 358 38 185 q 74 543 38 464 q 177 665 110 622 q 335 708 244 708 q 442 688 396 708 q 524 624 489 667 l 526 624 l 526 811 l 332 811 l 332 932 l 526 932 l 526 1031 l 703 1031 l 703 932 l 786 932 l 786 811 l 703 811 m 526 419 q 481 532 526 488 q 365 576 435 576 q 253 519 292 576 q 214 356 214 463 q 253 183 214 243 q 365 122 292 122 q 483 165 439 122 q 526 276 526 207 l 526 419 z "},"ḍ":{"ha":775,"x_min":38,"x_max":707,"o":"m 331 -14 q 116 85 194 -14 q 38 358 38 185 q 74 543 38 464 q 177 665 110 622 q 335 708 244 708 q 442 688 396 708 q 524 624 489 667 l 526 624 l 526 1031 l 703 1031 l 703 185 q 707 0 703 40 l 540 0 q 539 92 539 24 l 536 92 q 448 15 504 44 q 331 -14 392 -14 m 365 122 q 483 165 439 122 q 526 276 526 207 l 526 419 q 481 532 526 488 q 365 576 435 576 q 253 519 292 576 q 214 356 214 463 q 253 183 214 243 q 365 122 292 122 m 401 -283 q 335 -257 361 -283 q 308 -192 308 -231 q 335 -126 308 -153 q 401 -100 361 -100 q 468 -126 442 -100 q 494 -192 494 -153 q 468 -257 494 -231 q 401 -283 442 -283 z "},"ḏ":{"ha":775,"x_min":38,"x_max":707,"o":"m 331 -14 q 116 85 194 -14 q 38 358 38 185 q 74 543 38 464 q 177 665 110 622 q 335 708 244 708 q 442 688 396 708 q 524 624 489 667 l 526 624 l 526 1031 l 703 1031 l 703 185 q 707 0 703 40 l 540 0 q 539 92 539 24 l 536 92 q 448 15 504 44 q 331 -14 392 -14 m 365 122 q 483 165 439 122 q 526 276 526 207 l 526 419 q 481 532 526 488 q 365 576 435 576 q 253 519 292 576 q 214 356 214 463 q 253 183 214 243 q 365 122 292 122 m 164 -100 l 639 -100 l 639 -215 l 164 -215 l 164 -100 z "},"e":{"ha":753,"x_min":44,"x_max":710,"o":"m 710 282 l 226 282 q 397 135 249 135 q 503 156 458 135 q 592 225 549 176 l 688 133 q 566 26 647 67 q 388 -14 485 -14 q 135 81 225 -14 q 44 344 44 176 q 135 611 44 514 q 386 708 226 708 q 624 613 539 708 q 710 346 710 517 l 710 282 m 536 411 q 495 523 536 482 q 382 564 454 564 q 276 522 317 564 q 225 403 236 479 l 536 403 l 536 411 z "},"é":{"ha":753,"x_min":44,"x_max":710,"o":"m 710 282 l 226 282 q 397 135 249 135 q 503 156 458 135 q 592 225 549 176 l 688 133 q 566 26 647 67 q 388 -14 485 -14 q 135 81 225 -14 q 44 344 44 176 q 135 611 44 514 q 386 708 226 708 q 624 613 539 708 q 710 346 710 517 l 710 282 m 536 411 q 495 523 536 482 q 382 564 454 564 q 276 522 317 564 q 225 403 236 479 l 536 403 l 536 411 m 428 996 l 600 996 l 451 771 l 310 771 l 428 996 z "},"ĕ":{"ha":753,"x_min":44,"x_max":710,"o":"m 710 282 l 226 282 q 397 135 249 135 q 503 156 458 135 q 592 225 549 176 l 688 133 q 566 26 647 67 q 388 -14 485 -14 q 135 81 225 -14 q 44 344 44 176 q 135 611 44 514 q 386 708 226 708 q 624 613 539 708 q 710 346 710 517 l 710 282 m 536 411 q 495 523 536 482 q 382 564 454 564 q 276 522 317 564 q 225 403 236 479 l 536 403 l 536 411 m 381 771 q 215 825 274 771 q 156 982 157 879 l 274 982 q 303 908 275 935 q 381 882 331 882 q 458 908 431 882 q 488 982 486 935 l 606 982 q 547 826 606 881 q 381 771 489 771 z "},"ě":{"ha":753,"x_min":44,"x_max":710,"o":"m 710 282 l 226 282 q 397 135 249 135 q 503 156 458 135 q 592 225 549 176 l 688 133 q 566 26 647 67 q 388 -14 485 -14 q 135 81 225 -14 q 44 344 44 176 q 135 611 44 514 q 386 708 226 708 q 624 613 539 708 q 710 346 710 517 l 710 282 m 536 411 q 495 523 536 482 q 382 564 454 564 q 276 522 317 564 q 225 403 236 479 l 536 403 l 536 411 m 143 996 l 297 996 l 381 888 l 464 996 l 618 996 l 432 771 l 329 771 l 143 996 z "},"ê":{"ha":753,"x_min":44,"x_max":710,"o":"m 710 282 l 226 282 q 397 135 249 135 q 503 156 458 135 q 592 225 549 176 l 688 133 q 566 26 647 67 q 388 -14 485 -14 q 135 81 225 -14 q 44 344 44 176 q 135 611 44 514 q 386 708 226 708 q 624 613 539 708 q 710 346 710 517 l 710 282 m 536 411 q 495 523 536 482 q 382 564 454 564 q 276 522 317 564 q 225 403 236 479 l 536 403 l 536 411 m 329 996 l 432 996 l 618 771 l 464 771 l 381 879 l 297 771 l 143 771 l 329 996 z "},"ế":{"ha":753,"x_min":44,"x_max":717,"o":"m 710 282 l 226 282 q 397 135 249 135 q 503 156 458 135 q 592 225 549 176 l 688 133 q 566 26 647 67 q 388 -14 485 -14 q 135 81 225 -14 q 44 344 44 176 q 135 611 44 514 q 386 708 226 708 q 624 613 539 708 q 710 346 710 517 l 710 282 m 536 411 q 495 523 536 482 q 382 564 454 564 q 276 522 317 564 q 225 403 236 479 l 536 403 l 536 411 m 590 1115 l 717 1115 l 629 965 l 525 965 l 590 1115 m 329 996 l 431 996 l 618 771 l 463 771 l 381 879 l 297 771 l 143 771 l 329 996 z "},"ệ":{"ha":753,"x_min":44,"x_max":710,"o":"m 710 282 l 226 282 q 397 135 249 135 q 503 156 458 135 q 592 225 549 176 l 688 133 q 566 26 647 67 q 388 -14 485 -14 q 135 81 225 -14 q 44 344 44 176 q 135 611 44 514 q 386 708 226 708 q 624 613 539 708 q 710 346 710 517 l 710 282 m 536 411 q 495 523 536 482 q 382 564 454 564 q 276 522 317 564 q 225 403 236 479 l 536 403 l 536 411 m 388 -283 q 321 -257 347 -283 q 294 -192 294 -231 q 321 -126 294 -153 q 388 -100 347 -100 q 454 -126 428 -100 q 481 -192 481 -153 q 454 -257 481 -231 q 388 -283 428 -283 m 329 996 l 432 996 l 618 771 l 464 771 l 381 879 l 297 771 l 143 771 l 329 996 z "},"ề":{"ha":753,"x_min":44,"x_max":710,"o":"m 710 282 l 226 282 q 397 135 249 135 q 503 156 458 135 q 592 225 549 176 l 688 133 q 566 26 647 67 q 388 -14 485 -14 q 135 81 225 -14 q 44 344 44 176 q 135 611 44 514 q 386 708 226 708 q 624 613 539 708 q 710 346 710 517 l 710 282 m 536 411 q 495 523 536 482 q 382 564 454 564 q 276 522 317 564 q 225 403 236 479 l 536 403 l 536 411 m 483 1115 l 610 1115 l 675 965 l 571 965 l 483 1115 m 329 996 l 431 996 l 618 771 l 463 771 l 381 879 l 297 771 l 143 771 l 329 996 z "},"ể":{"ha":753,"x_min":44,"x_max":749,"o":"m 710 282 l 226 282 q 397 135 249 135 q 503 156 458 135 q 592 225 549 176 l 688 133 q 566 26 647 67 q 388 -14 485 -14 q 135 81 225 -14 q 44 344 44 176 q 135 611 44 514 q 386 708 226 708 q 624 613 539 708 q 710 346 710 517 l 710 282 m 536 411 q 495 523 536 482 q 382 564 454 564 q 276 522 317 564 q 225 403 236 479 l 536 403 l 536 411 m 569 940 q 583 996 569 976 q 622 1035 597 1015 q 649 1058 640 1049 q 657 1083 657 1068 q 647 1101 657 1094 q 619 1108 636 1108 q 578 1098 599 1108 q 546 1068 558 1088 l 492 1119 q 551 1171 513 1151 q 629 1190 589 1190 q 715 1163 682 1190 q 749 1090 749 1135 q 738 1046 749 1063 q 706 1011 726 1029 q 675 978 685 992 q 664 940 665 964 l 569 940 m 329 996 l 431 996 l 618 771 l 463 771 l 381 879 l 297 771 l 143 771 l 329 996 z "},"ễ":{"ha":753,"x_min":44,"x_max":710,"o":"m 710 282 l 226 282 q 397 135 249 135 q 503 156 458 135 q 592 225 549 176 l 688 133 q 566 26 647 67 q 388 -14 485 -14 q 135 81 225 -14 q 44 344 44 176 q 135 611 44 514 q 386 708 226 708 q 624 613 539 708 q 710 346 710 517 l 710 282 m 536 411 q 495 523 536 482 q 382 564 454 564 q 276 522 317 564 q 225 403 236 479 l 536 403 l 536 411 m 453 1039 q 410 1048 429 1039 q 361 1075 390 1057 q 304 1101 324 1101 q 274 1087 288 1101 q 254 1046 260 1072 l 171 1046 q 301 1186 193 1186 q 346 1178 325 1186 q 399 1153 367 1169 q 426 1139 403 1150 q 465 1128 449 1128 q 513 1185 506 1128 l 593 1185 q 550 1076 586 1114 q 453 1039 514 1039 m 329 996 l 431 996 l 618 771 l 463 771 l 381 879 l 297 771 l 143 771 l 329 996 z "},"ë":{"ha":753,"x_min":44,"x_max":710,"o":"m 710 282 l 226 282 q 397 135 249 135 q 503 156 458 135 q 592 225 549 176 l 688 133 q 566 26 647 67 q 388 -14 485 -14 q 135 81 225 -14 q 44 344 44 176 q 135 611 44 514 q 386 708 226 708 q 624 613 539 708 q 710 346 710 517 l 710 282 m 536 411 q 495 523 536 482 q 382 564 454 564 q 276 522 317 564 q 225 403 236 479 l 536 403 l 536 411 m 235 771 q 168 797 194 771 q 142 863 142 822 q 168 928 142 903 q 235 954 194 954 q 301 928 275 954 q 328 863 328 901 q 301 797 328 824 q 235 771 275 771 m 526 771 q 460 797 486 771 q 433 863 433 824 q 460 928 433 901 q 526 954 486 954 q 593 928 567 954 q 619 863 619 903 q 593 797 619 822 q 526 771 567 771 z "},"ė":{"ha":753,"x_min":44,"x_max":710,"o":"m 710 282 l 226 282 q 397 135 249 135 q 503 156 458 135 q 592 225 549 176 l 688 133 q 566 26 647 67 q 388 -14 485 -14 q 135 81 225 -14 q 44 344 44 176 q 135 611 44 514 q 386 708 226 708 q 624 613 539 708 q 710 346 710 517 l 710 282 m 536 411 q 495 523 536 482 q 382 564 454 564 q 276 522 317 564 q 225 403 236 479 l 536 403 l 536 411 m 381 771 q 314 797 340 771 q 288 863 288 824 q 314 928 288 901 q 381 954 340 954 q 447 928 421 954 q 474 863 474 901 q 447 797 474 824 q 381 771 421 771 z "},"ẹ":{"ha":753,"x_min":44,"x_max":710,"o":"m 710 282 l 226 282 q 397 135 249 135 q 503 156 458 135 q 592 225 549 176 l 688 133 q 566 26 647 67 q 388 -14 485 -14 q 135 81 225 -14 q 44 344 44 176 q 135 611 44 514 q 386 708 226 708 q 624 613 539 708 q 710 346 710 517 l 710 282 m 536 411 q 495 523 536 482 q 382 564 454 564 q 276 522 317 564 q 225 403 236 479 l 536 403 l 536 411 m 388 -283 q 321 -257 347 -283 q 294 -192 294 -231 q 321 -126 294 -153 q 388 -100 347 -100 q 454 -126 428 -100 q 481 -192 481 -153 q 454 -257 481 -231 q 388 -283 428 -283 z "},"è":{"ha":753,"x_min":44,"x_max":710,"o":"m 710 282 l 226 282 q 397 135 249 135 q 503 156 458 135 q 592 225 549 176 l 688 133 q 566 26 647 67 q 388 -14 485 -14 q 135 81 225 -14 q 44 344 44 176 q 135 611 44 514 q 386 708 226 708 q 624 613 539 708 q 710 346 710 517 l 710 282 m 536 411 q 495 523 536 482 q 382 564 454 564 q 276 522 317 564 q 225 403 236 479 l 536 403 l 536 411 m 160 996 l 332 996 l 450 771 l 308 771 l 160 996 z "},"ẻ":{"ha":753,"x_min":44,"x_max":710,"o":"m 710 282 l 226 282 q 397 135 249 135 q 503 156 458 135 q 592 225 549 176 l 688 133 q 566 26 647 67 q 388 -14 485 -14 q 135 81 225 -14 q 44 344 44 176 q 135 611 44 514 q 386 708 226 708 q 624 613 539 708 q 710 346 710 517 l 710 282 m 536 411 q 495 523 536 482 q 382 564 454 564 q 276 522 317 564 q 225 403 236 479 l 536 403 l 536 411 m 315 771 q 331 835 315 811 q 374 885 346 860 q 405 919 394 904 q 415 956 415 935 q 369 992 415 992 q 282 922 317 992 l 208 990 q 281 1066 235 1039 q 383 1093 328 1093 q 501 1059 458 1093 q 543 965 543 1025 q 529 907 543 931 q 489 856 515 883 q 455 813 467 832 q 443 771 443 794 l 315 771 z "},"ē":{"ha":753,"x_min":44,"x_max":710,"o":"m 710 282 l 226 282 q 397 135 249 135 q 503 156 458 135 q 592 225 549 176 l 688 133 q 566 26 647 67 q 388 -14 485 -14 q 135 81 225 -14 q 44 344 44 176 q 135 611 44 514 q 386 708 226 708 q 624 613 539 708 q 710 346 710 517 l 710 282 m 536 411 q 495 523 536 482 q 382 564 454 564 q 276 522 317 564 q 225 403 236 479 l 536 403 l 536 411 m 143 910 l 618 910 l 618 794 l 143 794 l 143 910 z "},"ę":{"ha":753,"x_min":44,"x_max":710,"o":"m 710 282 l 226 282 q 397 135 249 135 q 503 156 458 135 q 592 225 549 176 l 688 133 q 594 42 657 81 q 518 -82 518 -22 q 535 -117 518 -103 q 585 -132 551 -132 q 671 -108 614 -132 l 697 -192 q 631 -233 671 -218 q 547 -249 590 -249 q 432 -211 474 -249 q 390 -104 390 -174 q 417 -12 390 -53 q 388 -14 407 -14 q 135 81 225 -14 q 44 344 44 176 q 135 611 44 514 q 386 708 226 708 q 624 613 539 708 q 710 346 710 517 l 710 282 m 536 411 q 495 523 536 482 q 382 564 454 564 q 276 522 317 564 q 225 403 236 479 l 536 403 l 536 411 z "},"ẽ":{"ha":753,"x_min":44,"x_max":710,"o":"m 710 282 l 226 282 q 397 135 249 135 q 503 156 458 135 q 592 225 549 176 l 688 133 q 566 26 647 67 q 388 -14 485 -14 q 135 81 225 -14 q 44 344 44 176 q 135 611 44 514 q 386 708 226 708 q 624 613 539 708 q 710 346 710 517 l 710 282 m 536 411 q 495 523 536 482 q 382 564 454 564 q 276 522 317 564 q 225 403 236 479 l 536 403 l 536 411 m 144 771 q 187 900 144 854 q 290 946 229 946 q 343 935 318 946 q 397 907 368 925 q 430 889 414 897 q 458 881 446 881 q 496 951 496 881 l 607 951 q 563 817 607 863 q 457 771 519 771 q 404 781 428 771 q 340 814 381 792 q 293 836 306 836 q 267 818 278 836 q 256 771 257 800 l 144 771 z "},"ə":{"ha":753,"x_min":44,"x_max":710,"o":"m 365 708 q 619 614 528 708 q 710 350 710 519 q 619 83 710 181 q 368 -14 528 -14 q 130 82 215 -14 q 44 349 44 178 l 44 413 l 528 413 q 356 560 506 560 q 250 539 296 560 q 161 471 204 518 l 65 561 q 187 668 104 628 q 365 708 269 708 m 371 131 q 477 173 436 131 q 529 292 518 215 l 217 292 l 217 283 q 258 172 217 213 q 371 131 299 131 z "},"f":{"ha":524,"x_min":15,"x_max":536,"o":"m 129 574 l 15 574 l 15 694 l 129 694 l 129 778 q 193 938 129 879 q 368 996 257 996 q 464 980 419 996 q 536 936 508 964 l 475 831 q 436 854 458 846 q 392 863 414 863 q 328 836 351 863 q 306 764 306 810 l 306 694 l 501 694 l 501 574 l 306 574 l 306 0 l 129 0 l 129 574 z "},"g":{"ha":771,"x_min":38,"x_max":703,"o":"m 703 694 l 703 28 q 615 -238 703 -149 q 356 -328 528 -328 q 203 -308 275 -328 q 76 -253 132 -289 l 136 -132 q 242 -172 186 -157 q 347 -186 297 -186 q 488 -127 442 -186 q 533 51 533 -68 l 533 74 q 457 16 506 36 q 342 -4 408 -4 q 117 90 197 -4 q 38 357 38 185 q 114 616 38 524 q 329 708 190 708 q 539 607 474 708 l 542 607 l 556 694 l 703 694 m 526 390 q 488 528 526 481 q 375 576 449 576 q 256 519 297 576 q 214 353 214 461 q 255 189 214 244 q 375 133 296 133 q 488 177 449 133 q 526 301 526 221 l 526 390 z "},"ğ":{"ha":771,"x_min":38,"x_max":703,"o":"m 703 694 l 703 28 q 615 -238 703 -149 q 356 -328 528 -328 q 203 -308 275 -328 q 76 -253 132 -289 l 136 -132 q 242 -172 186 -157 q 347 -186 297 -186 q 488 -127 442 -186 q 533 51 533 -68 l 533 74 q 457 16 506 36 q 342 -4 408 -4 q 117 90 197 -4 q 38 357 38 185 q 114 616 38 524 q 329 708 190 708 q 539 607 474 708 l 542 607 l 556 694 l 703 694 m 526 390 q 488 528 526 481 q 375 576 449 576 q 256 519 297 576 q 214 353 214 461 q 255 189 214 244 q 375 133 296 133 q 488 177 449 133 q 526 301 526 221 l 526 390 m 368 771 q 203 825 261 771 q 143 982 144 879 l 261 982 q 290 908 263 935 q 368 882 318 882 q 446 908 418 882 q 475 982 474 935 l 593 982 q 535 826 593 881 q 368 771 476 771 z "},"ǧ":{"ha":771,"x_min":38,"x_max":703,"o":"m 703 694 l 703 28 q 615 -238 703 -149 q 356 -328 528 -328 q 203 -308 275 -328 q 76 -253 132 -289 l 136 -132 q 242 -172 186 -157 q 347 -186 297 -186 q 488 -127 442 -186 q 533 51 533 -68 l 533 74 q 457 16 506 36 q 342 -4 408 -4 q 117 90 197 -4 q 38 357 38 185 q 114 616 38 524 q 329 708 190 708 q 539 607 474 708 l 542 607 l 556 694 l 703 694 m 526 390 q 488 528 526 481 q 375 576 449 576 q 256 519 297 576 q 214 353 214 461 q 255 189 214 244 q 375 133 296 133 q 488 177 449 133 q 526 301 526 221 l 526 390 m 131 996 l 285 996 l 368 888 l 451 996 l 606 996 l 419 771 l 317 771 l 131 996 z "},"ĝ":{"ha":771,"x_min":38,"x_max":703,"o":"m 703 694 l 703 28 q 615 -238 703 -149 q 356 -328 528 -328 q 203 -308 275 -328 q 76 -253 132 -289 l 136 -132 q 242 -172 186 -157 q 347 -186 297 -186 q 488 -127 442 -186 q 533 51 533 -68 l 533 74 q 457 16 506 36 q 342 -4 408 -4 q 117 90 197 -4 q 38 357 38 185 q 114 616 38 524 q 329 708 190 708 q 539 607 474 708 l 542 607 l 556 694 l 703 694 m 526 390 q 488 528 526 481 q 375 576 449 576 q 256 519 297 576 q 214 353 214 461 q 255 189 214 244 q 375 133 296 133 q 488 177 449 133 q 526 301 526 221 l 526 390 m 317 996 l 419 996 l 606 771 l 451 771 l 368 879 l 285 771 l 131 771 l 317 996 z "},"ģ":{"ha":771,"x_min":38,"x_max":703,"o":"m 703 694 l 703 28 q 615 -238 703 -149 q 356 -328 528 -328 q 203 -308 275 -328 q 76 -253 132 -289 l 136 -132 q 242 -172 186 -157 q 347 -186 297 -186 q 488 -127 442 -186 q 533 51 533 -68 l 533 74 q 457 16 506 36 q 342 -4 408 -4 q 117 90 197 -4 q 38 357 38 185 q 114 616 38 524 q 329 708 190 708 q 539 607 474 708 l 542 607 l 556 694 l 703 694 m 526 390 q 488 528 526 481 q 375 576 449 576 q 256 519 297 576 q 214 353 214 461 q 255 189 214 244 q 375 133 296 133 q 488 177 449 133 q 526 301 526 221 l 526 390 m 389 961 q 451 931 428 957 q 475 867 475 906 q 449 797 475 824 q 379 771 422 771 q 299 802 329 771 q 268 883 268 833 q 299 997 268 936 q 378 1100 329 1057 l 449 1046 q 389 961 407 996 z "},"ġ":{"ha":771,"x_min":38,"x_max":703,"o":"m 703 694 l 703 28 q 615 -238 703 -149 q 356 -328 528 -328 q 203 -308 275 -328 q 76 -253 132 -289 l 136 -132 q 242 -172 186 -157 q 347 -186 297 -186 q 488 -127 442 -186 q 533 51 533 -68 l 533 74 q 457 16 506 36 q 342 -4 408 -4 q 117 90 197 -4 q 38 357 38 185 q 114 616 38 524 q 329 708 190 708 q 539 607 474 708 l 542 607 l 556 694 l 703 694 m 526 390 q 488 528 526 481 q 375 576 449 576 q 256 519 297 576 q 214 353 214 461 q 255 189 214 244 q 375 133 296 133 q 488 177 449 133 q 526 301 526 221 l 526 390 m 368 771 q 301 797 328 771 q 275 863 275 824 q 301 928 275 901 q 368 954 328 954 q 435 928 408 954 q 461 863 461 901 q 435 797 461 824 q 368 771 408 771 z "},"ḡ":{"ha":771,"x_min":38,"x_max":703,"o":"m 703 694 l 703 28 q 615 -238 703 -149 q 356 -328 528 -328 q 203 -308 275 -328 q 76 -253 132 -289 l 136 -132 q 242 -172 186 -157 q 347 -186 297 -186 q 488 -127 442 -186 q 533 51 533 -68 l 533 74 q 457 16 506 36 q 342 -4 408 -4 q 117 90 197 -4 q 38 357 38 185 q 114 616 38 524 q 329 708 190 708 q 539 607 474 708 l 542 607 l 556 694 l 703 694 m 526 390 q 488 528 526 481 q 375 576 449 576 q 256 519 297 576 q 214 353 214 461 q 255 189 214 244 q 375 133 296 133 q 488 177 449 133 q 526 301 526 221 l 526 390 m 131 910 l 606 910 l 606 794 l 131 794 l 131 910 z "},"h":{"ha":788,"x_min":67,"x_max":721,"o":"m 67 1031 l 244 1031 l 244 613 q 334 683 276 657 q 460 708 392 708 q 649 631 578 708 q 721 417 721 553 l 721 0 l 543 0 l 543 404 q 508 531 543 485 q 413 576 474 576 q 290 523 336 576 q 244 378 244 469 l 244 0 l 67 0 l 67 1031 z "},"ħ":{"ha":788,"x_min":-15,"x_max":721,"o":"m 460 708 q 649 631 578 708 q 721 417 721 553 l 721 0 l 543 0 l 543 404 q 508 531 543 485 q 413 576 474 576 q 290 523 336 576 q 244 378 244 469 l 244 0 l 67 0 l 67 811 l -15 811 l -15 932 l 67 932 l 67 1031 l 244 1031 l 244 932 l 428 932 l 428 811 l 244 811 l 244 613 q 334 683 276 657 q 460 708 392 708 z "},"ḫ":{"ha":788,"x_min":67,"x_max":721,"o":"m 67 1031 l 244 1031 l 244 613 q 334 683 276 657 q 460 708 392 708 q 649 631 578 708 q 721 417 721 553 l 721 0 l 543 0 l 543 404 q 508 531 543 485 q 413 576 474 576 q 290 523 336 576 q 244 378 244 469 l 244 0 l 67 0 l 67 1031 m 393 -311 q 228 -257 286 -311 q 168 -100 169 -203 l 288 -100 q 316 -174 289 -147 q 393 -200 343 -200 q 471 -174 443 -200 q 500 -100 499 -147 l 618 -100 q 560 -256 618 -201 q 393 -311 501 -311 z "},"ĥ":{"ha":788,"x_min":67,"x_max":721,"o":"m 67 1031 l 244 1031 l 244 613 q 334 683 276 657 q 460 708 392 708 q 649 631 578 708 q 721 417 721 553 l 721 0 l 543 0 l 543 404 q 508 531 543 485 q 413 576 474 576 q 290 523 336 576 q 244 378 244 469 l 244 0 l 67 0 l 67 1031 m 256 1332 l 358 1332 l 544 1107 l 390 1107 l 307 1215 l 224 1107 l 69 1107 l 256 1332 z "},"ḥ":{"ha":788,"x_min":67,"x_max":721,"o":"m 67 1031 l 244 1031 l 244 613 q 334 683 276 657 q 460 708 392 708 q 649 631 578 708 q 721 417 721 553 l 721 0 l 543 0 l 543 404 q 508 531 543 485 q 413 576 474 576 q 290 523 336 576 q 244 378 244 469 l 244 0 l 67 0 l 67 1031 m 393 -283 q 326 -257 353 -283 q 300 -192 300 -231 q 326 -126 300 -153 q 393 -100 353 -100 q 460 -126 433 -100 q 486 -192 486 -153 q 460 -257 486 -231 q 393 -283 433 -283 z "},"i":{"ha":379,"x_min":76,"x_max":303,"o":"m 189 775 q 107 803 138 775 q 76 879 76 832 q 107 955 76 926 q 189 983 138 983 q 272 955 240 983 q 303 879 303 926 q 272 803 303 832 q 189 775 242 775 m 101 694 l 278 694 l 278 0 l 101 0 l 101 694 z "},"ı":{"ha":388,"x_min":107,"x_max":282,"o":"m 107 694 l 282 694 l 282 0 l 107 0 l 107 694 z "},"í":{"ha":388,"x_min":107,"x_max":414,"o":"m 107 694 l 282 694 l 282 0 l 107 0 l 107 694 m 242 996 l 414 996 l 265 771 l 124 771 l 242 996 z "},"ĭ":{"ha":388,"x_min":-31,"x_max":419,"o":"m 107 694 l 282 694 l 282 0 l 107 0 l 107 694 m 194 771 q 29 825 88 771 q -31 982 -29 879 l 88 982 q 117 908 89 935 q 194 882 144 882 q 272 908 244 882 q 301 982 300 935 l 419 982 q 361 826 419 881 q 194 771 303 771 z "},"ǐ":{"ha":388,"x_min":-43,"x_max":432,"o":"m 107 694 l 282 694 l 282 0 l 107 0 l 107 694 m -43 996 l 111 996 l 194 888 l 278 996 l 432 996 l 246 771 l 143 771 l -43 996 z "},"î":{"ha":388,"x_min":-43,"x_max":432,"o":"m 107 694 l 282 694 l 282 0 l 107 0 l 107 694 m 143 996 l 246 996 l 432 771 l 278 771 l 194 879 l 111 771 l -43 771 l 143 996 z "},"ï":{"ha":388,"x_min":-44,"x_max":433,"o":"m 107 694 l 282 694 l 282 0 l 107 0 l 107 694 m 49 771 q -18 797 8 771 q -44 863 -44 822 q -18 928 -44 903 q 49 954 8 954 q 115 928 89 954 q 142 863 142 901 q 115 797 142 824 q 49 771 89 771 m 340 771 q 274 797 300 771 q 247 863 247 824 q 274 928 247 901 q 340 954 300 954 q 407 928 381 954 q 433 863 433 903 q 407 797 433 822 q 340 771 381 771 z "},"ị":{"ha":379,"x_min":76,"x_max":303,"o":"m 189 775 q 107 803 138 775 q 76 879 76 832 q 107 955 76 926 q 189 983 138 983 q 272 955 240 983 q 303 879 303 926 q 272 803 303 832 q 189 775 242 775 m 101 694 l 278 694 l 278 0 l 101 0 l 101 694 m 189 -283 q 122 -257 149 -283 q 96 -192 96 -231 q 122 -126 96 -153 q 189 -100 149 -100 q 256 -126 229 -100 q 282 -192 282 -153 q 256 -257 282 -231 q 189 -283 229 -283 z "},"ì":{"ha":388,"x_min":-26,"x_max":282,"o":"m 107 694 l 282 694 l 282 0 l 107 0 l 107 694 m -26 996 l 146 996 l 264 771 l 122 771 l -26 996 z "},"ỉ":{"ha":388,"x_min":22,"x_max":357,"o":"m 107 694 l 282 694 l 282 0 l 107 0 l 107 694 m 129 771 q 144 835 129 811 q 188 885 160 860 q 219 919 208 904 q 229 956 229 935 q 183 992 229 992 q 96 922 131 992 l 22 990 q 95 1066 49 1039 q 197 1093 142 1093 q 315 1059 272 1093 q 357 965 357 1025 q 343 907 357 931 q 303 856 329 883 q 269 813 281 832 q 257 771 257 794 l 129 771 z "},"ĳ":{"ha":765,"x_min":76,"x_max":703,"o":"m 189 775 q 107 803 138 775 q 76 879 76 832 q 107 955 76 926 q 189 983 138 983 q 272 955 240 983 q 303 879 303 926 q 272 803 303 832 q 189 775 242 775 m 101 694 l 278 694 l 278 0 l 101 0 l 101 694 m 589 775 q 506 804 538 775 q 474 879 474 833 q 506 953 474 924 q 589 983 538 983 q 671 954 639 983 q 703 879 703 925 q 672 804 703 833 q 589 775 640 775 m 425 -285 q 289 -268 353 -285 l 299 -144 q 388 -149 343 -149 q 476 -121 447 -149 q 504 -36 504 -93 l 504 694 l 682 694 l 682 -33 q 425 -285 682 -285 z "},"ī":{"ha":388,"x_min":-43,"x_max":432,"o":"m 107 694 l 282 694 l 282 0 l 107 0 l 107 694 m -43 910 l 432 910 l 432 794 l -43 794 l -43 910 z "},"į":{"ha":379,"x_min":6,"x_max":311,"o":"m 189 775 q 107 803 138 775 q 76 879 76 832 q 107 955 76 926 q 189 983 138 983 q 272 955 240 983 q 303 879 303 926 q 272 803 303 832 q 189 775 242 775 m 311 -269 q 244 -310 285 -296 q 163 -325 204 -325 q 47 -288 89 -325 q 6 -182 6 -251 q 136 0 6 -69 l 101 0 l 101 694 l 278 694 l 278 0 l 257 0 q 133 -158 133 -85 q 150 -194 133 -179 q 200 -208 167 -208 q 286 -186 226 -208 l 311 -269 z "},"ĩ":{"ha":388,"x_min":-42,"x_max":421,"o":"m 107 694 l 282 694 l 282 0 l 107 0 l 107 694 m -42 771 q 1 900 -42 854 q 104 946 43 946 q 157 935 132 946 q 211 907 182 925 q 244 889 228 897 q 272 881 260 881 q 310 951 310 881 l 421 951 q 377 817 421 863 q 271 771 333 771 q 218 781 242 771 q 154 814 194 792 q 107 836 119 836 q 81 818 92 836 q 69 771 71 800 l -42 771 z "},"j":{"ha":388,"x_min":-90,"x_max":324,"o":"m 210 775 q 126 804 158 775 q 94 879 94 833 q 126 953 94 924 q 210 983 158 983 q 292 954 260 983 q 324 879 324 925 q 292 804 324 833 q 210 775 261 775 m 46 -285 q -90 -268 -26 -285 l -81 -144 q 8 -149 -36 -149 q 97 -121 68 -149 q 125 -36 125 -93 l 125 694 l 303 694 l 303 -33 q 46 -285 303 -285 z "},"ȷ":{"ha":385,"x_min":-90,"x_max":283,"o":"m 43 -285 q -90 -268 -32 -285 l -81 -144 q 7 -149 -43 -149 q 107 -36 107 -149 l 107 694 l 283 694 l 283 -33 q 226 -220 283 -156 q 43 -285 168 -285 z "},"ĵ":{"ha":385,"x_min":-90,"x_max":435,"o":"m 43 -285 q -90 -268 -32 -285 l -81 -144 q 7 -149 -43 -149 q 107 -36 107 -149 l 107 694 l 283 694 l 283 -33 q 226 -220 283 -156 q 43 -285 168 -285 m 146 996 l 249 996 l 435 771 l 281 771 l 197 879 l 114 771 l -40 771 l 146 996 z "},"k":{"ha":740,"x_min":69,"x_max":736,"o":"m 536 0 l 331 324 l 247 242 l 247 0 l 69 0 l 69 1031 l 247 1031 l 247 454 l 492 694 l 710 694 l 453 443 l 736 0 l 536 0 z "},"ķ":{"ha":740,"x_min":69,"x_max":736,"o":"m 536 0 l 331 324 l 247 242 l 247 0 l 69 0 l 69 1031 l 247 1031 l 247 454 l 492 694 l 710 694 l 453 443 l 736 0 l 536 0 m 368 -100 q 448 -131 418 -100 q 478 -212 478 -162 q 448 -327 478 -267 q 368 -429 418 -387 l 299 -375 q 358 -290 335 -331 q 295 -260 319 -286 q 271 -196 271 -235 q 298 -126 271 -153 q 368 -100 325 -100 z "},"ĸ":{"ha":740,"x_min":69,"x_max":736,"o":"m 536 0 l 349 299 l 247 188 l 247 0 l 69 0 l 69 694 l 247 694 l 247 403 l 493 694 l 710 694 l 467 428 l 736 0 l 536 0 z "},"l":{"ha":418,"x_min":79,"x_max":425,"o":"m 261 -14 q 126 34 172 -14 q 79 172 79 82 l 79 1031 l 256 1031 l 256 169 q 272 124 256 139 q 319 110 288 110 q 399 128 351 110 l 425 33 q 261 -14 363 -14 z "},"ĺ":{"ha":418,"x_min":79,"x_max":425,"o":"m 261 -14 q 126 34 172 -14 q 79 172 79 82 l 79 1031 l 256 1031 l 256 169 q 272 124 256 139 q 319 110 288 110 q 399 128 351 110 l 425 33 q 261 -14 363 -14 m 215 1332 l 388 1332 l 239 1107 l 97 1107 l 215 1332 z "},"ľ":{"ha":539,"x_min":79,"x_max":558,"o":"m 261 -14 q 126 34 172 -14 q 79 172 79 82 l 79 1031 l 256 1031 l 256 169 q 272 124 256 139 q 319 110 288 110 q 399 128 351 110 l 425 33 q 261 -14 363 -14 m 449 1033 q 528 1002 499 1033 q 558 921 558 971 q 528 808 558 868 q 450 706 499 749 l 379 758 q 439 843 421 808 q 376 873 400 847 q 351 938 351 899 q 378 1007 351 981 q 449 1033 406 1033 z "},"ļ":{"ha":418,"x_min":79,"x_max":425,"o":"m 261 -14 q 126 34 172 -14 q 79 172 79 82 l 79 1031 l 256 1031 l 256 169 q 272 124 256 139 q 319 110 288 110 q 399 128 351 110 l 425 33 q 261 -14 363 -14 m 254 -100 q 334 -131 304 -100 q 364 -212 364 -162 q 334 -327 364 -267 q 254 -429 304 -387 l 185 -375 q 244 -290 221 -331 q 181 -260 206 -286 q 157 -196 157 -235 q 184 -126 157 -153 q 254 -100 211 -100 z "},"ŀ":{"ha":569,"x_min":79,"x_max":547,"o":"m 261 -14 q 126 34 172 -14 q 79 172 79 82 l 79 1031 l 256 1031 l 256 169 q 272 124 256 139 q 319 110 288 110 q 399 128 351 110 l 425 33 q 261 -14 363 -14 m 429 350 q 345 383 378 350 q 313 468 313 417 q 345 554 313 521 q 429 588 378 588 q 514 554 481 588 q 547 468 547 521 q 515 383 547 417 q 429 350 482 350 z "},"ḷ":{"ha":418,"x_min":79,"x_max":425,"o":"m 261 -14 q 126 34 172 -14 q 79 172 79 82 l 79 1031 l 256 1031 l 256 169 q 272 124 256 139 q 319 110 288 110 q 399 128 351 110 l 425 33 q 261 -14 363 -14 m 256 -283 q 189 -257 215 -283 q 163 -192 163 -231 q 189 -126 163 -153 q 256 -100 215 -100 q 322 -126 296 -100 q 349 -192 349 -153 q 322 -257 349 -231 q 256 -283 296 -283 z "},"ḹ":{"ha":418,"x_min":-69,"x_max":425,"o":"m 261 -14 q 126 34 172 -14 q 79 172 79 82 l 79 1031 l 256 1031 l 256 169 q 272 124 256 139 q 319 110 288 110 q 399 128 351 110 l 425 33 q 261 -14 363 -14 m 256 -283 q 189 -257 215 -283 q 163 -192 163 -231 q 189 -126 163 -153 q 256 -100 215 -100 q 322 -126 296 -100 q 349 -192 349 -153 q 322 -257 349 -231 q 256 -283 296 -283 m -69 1246 l 406 1246 l 406 1131 l -69 1131 l -69 1246 z "},"ḻ":{"ha":418,"x_min":18,"x_max":493,"o":"m 261 -14 q 126 34 172 -14 q 79 172 79 82 l 79 1031 l 256 1031 l 256 169 q 272 124 256 139 q 319 110 288 110 q 399 128 351 110 l 425 33 q 261 -14 363 -14 m 18 -100 l 493 -100 l 493 -215 l 18 -215 l 18 -100 z "},"ł":{"ha":453,"x_min":25,"x_max":438,"o":"m 438 33 q 274 -14 375 -14 q 138 34 185 -14 q 92 172 92 82 l 92 419 l 25 392 l 25 521 l 92 549 l 92 1031 l 268 1031 l 268 622 l 397 676 l 397 550 l 268 494 l 268 169 q 284 124 268 139 q 332 110 300 110 q 411 128 364 110 l 438 33 z "},"m":{"ha":1175,"x_min":61,"x_max":1101,"o":"m 67 510 q 61 694 67 649 l 217 694 q 224 574 224 639 l 226 574 q 307 672 249 636 q 443 708 365 708 q 571 676 518 708 q 642 586 624 643 q 726 676 669 643 q 854 708 783 708 q 1035 634 969 708 q 1101 429 1101 560 l 1101 0 l 925 0 l 925 410 q 893 524 925 483 q 806 565 861 565 q 708 523 744 565 q 671 408 671 481 l 671 0 l 496 0 l 496 404 q 465 523 496 481 q 379 565 435 565 q 281 520 319 565 q 243 404 243 475 l 243 0 l 67 0 l 67 510 z "},"ṃ":{"ha":1175,"x_min":61,"x_max":1101,"o":"m 67 510 q 61 694 67 649 l 217 694 q 224 574 224 639 l 226 574 q 307 672 249 636 q 443 708 365 708 q 571 676 518 708 q 642 586 624 643 q 726 676 669 643 q 854 708 783 708 q 1035 634 969 708 q 1101 429 1101 560 l 1101 0 l 925 0 l 925 410 q 893 524 925 483 q 806 565 861 565 q 708 523 744 565 q 671 408 671 481 l 671 0 l 496 0 l 496 404 q 465 523 496 481 q 379 565 435 565 q 281 520 319 565 q 243 404 243 475 l 243 0 l 67 0 l 67 510 m 583 -283 q 517 -257 543 -283 q 490 -192 490 -231 q 517 -126 490 -153 q 583 -100 543 -100 q 650 -126 624 -100 q 676 -192 676 -153 q 650 -257 676 -231 q 583 -283 624 -283 z "},"n":{"ha":782,"x_min":60,"x_max":708,"o":"m 65 511 q 60 694 65 638 l 226 694 q 233 574 233 636 l 238 574 q 326 672 263 635 q 467 708 389 708 q 647 628 586 708 q 708 390 708 547 l 708 0 l 532 0 l 532 392 q 503 524 532 482 q 410 565 474 565 q 290 513 336 565 q 243 379 243 461 l 243 0 l 65 0 l 65 511 z "},"ń":{"ha":782,"x_min":60,"x_max":708,"o":"m 65 511 q 60 694 65 638 l 226 694 q 233 574 233 636 l 238 574 q 326 672 263 635 q 467 708 389 708 q 647 628 586 708 q 708 390 708 547 l 708 0 l 532 0 l 532 392 q 503 524 532 482 q 410 565 474 565 q 290 513 336 565 q 243 379 243 461 l 243 0 l 65 0 l 65 511 m 435 996 l 607 996 l 458 771 l 317 771 l 435 996 z "},"ŉ":{"ha":949,"x_min":15,"x_max":875,"o":"m 113 986 q 192 955 163 986 q 222 874 222 924 q 192 761 222 821 q 114 658 163 701 l 43 711 q 103 796 85 761 q 40 826 64 800 q 15 890 15 851 q 42 960 15 933 q 113 986 69 986 m 232 511 q 226 694 232 638 l 393 694 q 400 574 400 636 l 404 574 q 492 672 429 635 q 633 708 556 708 q 814 628 753 708 q 875 390 875 547 l 875 0 l 699 0 l 699 392 q 669 524 699 482 q 576 565 640 565 q 456 513 503 565 q 410 379 410 461 l 410 0 l 232 0 l 232 511 z "},"ň":{"ha":782,"x_min":60,"x_max":708,"o":"m 65 511 q 60 694 65 638 l 226 694 q 233 574 233 636 l 238 574 q 326 672 263 635 q 467 708 389 708 q 647 628 586 708 q 708 390 708 547 l 708 0 l 532 0 l 532 392 q 503 524 532 482 q 410 565 474 565 q 290 513 336 565 q 243 379 243 461 l 243 0 l 65 0 l 65 511 m 150 996 l 304 996 l 388 888 l 471 996 l 625 996 l 439 771 l 336 771 l 150 996 z "},"ņ":{"ha":782,"x_min":60,"x_max":708,"o":"m 65 511 q 60 694 65 638 l 226 694 q 233 574 233 636 l 238 574 q 326 672 263 635 q 467 708 389 708 q 647 628 586 708 q 708 390 708 547 l 708 0 l 532 0 l 532 392 q 503 524 532 482 q 410 565 474 565 q 290 513 336 565 q 243 379 243 461 l 243 0 l 65 0 l 65 511 m 386 -100 q 466 -131 436 -100 q 496 -212 496 -162 q 466 -327 496 -267 q 386 -429 436 -387 l 317 -375 q 376 -290 353 -331 q 313 -260 338 -286 q 289 -196 289 -235 q 316 -126 289 -153 q 386 -100 343 -100 z "},"ṅ":{"ha":782,"x_min":60,"x_max":708,"o":"m 65 511 q 60 694 65 638 l 226 694 q 233 574 233 636 l 238 574 q 326 672 263 635 q 467 708 389 708 q 647 628 586 708 q 708 390 708 547 l 708 0 l 532 0 l 532 392 q 503 524 532 482 q 410 565 474 565 q 290 513 336 565 q 243 379 243 461 l 243 0 l 65 0 l 65 511 m 388 771 q 321 797 347 771 q 294 863 294 824 q 321 928 294 901 q 388 954 347 954 q 454 928 428 954 q 481 863 481 901 q 454 797 481 824 q 388 771 428 771 z "},"ṇ":{"ha":782,"x_min":60,"x_max":708,"o":"m 65 511 q 60 694 65 638 l 226 694 q 233 574 233 636 l 238 574 q 326 672 263 635 q 467 708 389 708 q 647 628 586 708 q 708 390 708 547 l 708 0 l 532 0 l 532 392 q 503 524 532 482 q 410 565 474 565 q 290 513 336 565 q 243 379 243 461 l 243 0 l 65 0 l 65 511 m 388 -283 q 321 -257 347 -283 q 294 -192 294 -231 q 321 -126 294 -153 q 388 -100 347 -100 q 454 -126 428 -100 q 481 -192 481 -153 q 454 -257 481 -231 q 388 -283 428 -283 z "},"ŋ":{"ha":782,"x_min":60,"x_max":708,"o":"m 467 -285 q 335 -268 394 -285 l 344 -144 q 431 -149 386 -149 q 532 -36 532 -149 l 532 392 q 503 524 532 482 q 410 565 474 565 q 290 513 336 565 q 243 379 243 461 l 243 0 l 65 0 l 65 511 q 60 694 65 638 l 226 694 q 233 574 233 636 l 238 574 q 326 672 263 635 q 467 708 389 708 q 647 628 586 708 q 708 390 708 547 l 708 -35 q 467 -285 708 -285 z "},"ṉ":{"ha":782,"x_min":60,"x_max":708,"o":"m 65 511 q 60 694 65 638 l 226 694 q 233 574 233 636 l 238 574 q 326 672 263 635 q 467 708 389 708 q 647 628 586 708 q 708 390 708 547 l 708 0 l 532 0 l 532 392 q 503 524 532 482 q 410 565 474 565 q 290 513 336 565 q 243 379 243 461 l 243 0 l 65 0 l 65 511 m 150 -100 l 625 -100 l 625 -215 l 150 -215 l 150 -100 z "},"ñ":{"ha":782,"x_min":60,"x_max":708,"o":"m 65 511 q 60 694 65 638 l 226 694 q 233 574 233 636 l 238 574 q 326 672 263 635 q 467 708 389 708 q 647 628 586 708 q 708 390 708 547 l 708 0 l 532 0 l 532 392 q 503 524 532 482 q 410 565 474 565 q 290 513 336 565 q 243 379 243 461 l 243 0 l 65 0 l 65 511 m 151 771 q 194 900 151 854 q 297 946 236 946 q 350 935 325 946 q 404 907 375 925 q 437 889 421 897 q 465 881 453 881 q 503 951 503 881 l 614 951 q 570 817 614 863 q 464 771 526 771 q 411 781 435 771 q 347 814 388 792 q 300 836 313 836 q 274 818 285 836 q 263 771 264 800 l 151 771 z "},"o":{"ha":804,"x_min":44,"x_max":760,"o":"m 401 -14 q 139 82 233 -14 q 44 347 44 178 q 139 613 44 517 q 401 708 233 708 q 665 613 569 708 q 760 347 760 517 q 665 82 760 178 q 401 -14 569 -14 m 401 118 q 535 179 486 118 q 583 347 583 240 q 535 515 583 454 q 401 576 486 576 q 269 515 317 576 q 221 347 221 454 q 269 179 221 240 q 401 118 317 118 z "},"ó":{"ha":804,"x_min":44,"x_max":760,"o":"m 401 -14 q 139 82 233 -14 q 44 347 44 178 q 139 613 44 517 q 401 708 233 708 q 665 613 569 708 q 760 347 760 517 q 665 82 760 178 q 401 -14 569 -14 m 401 118 q 535 179 486 118 q 583 347 583 240 q 535 515 583 454 q 401 576 486 576 q 269 515 317 576 q 221 347 221 454 q 269 179 221 240 q 401 118 317 118 m 449 996 l 621 996 l 472 771 l 331 771 l 449 996 z "},"ŏ":{"ha":804,"x_min":44,"x_max":760,"o":"m 401 -14 q 139 82 233 -14 q 44 347 44 178 q 139 613 44 517 q 401 708 233 708 q 665 613 569 708 q 760 347 760 517 q 665 82 760 178 q 401 -14 569 -14 m 401 118 q 535 179 486 118 q 583 347 583 240 q 535 515 583 454 q 401 576 486 576 q 269 515 317 576 q 221 347 221 454 q 269 179 221 240 q 401 118 317 118 m 401 771 q 236 825 294 771 q 176 982 178 879 l 294 982 q 324 908 296 935 q 401 882 351 882 q 479 908 451 882 q 508 982 507 935 l 626 982 q 568 826 626 881 q 401 771 510 771 z "},"ǒ":{"ha":804,"x_min":44,"x_max":760,"o":"m 401 -14 q 139 82 233 -14 q 44 347 44 178 q 139 613 44 517 q 401 708 233 708 q 665 613 569 708 q 760 347 760 517 q 665 82 760 178 q 401 -14 569 -14 m 401 118 q 535 179 486 118 q 583 347 583 240 q 535 515 583 454 q 401 576 486 576 q 269 515 317 576 q 221 347 221 454 q 269 179 221 240 q 401 118 317 118 m 164 996 l 318 996 l 401 888 l 485 996 l 639 996 l 453 771 l 350 771 l 164 996 z "},"ô":{"ha":804,"x_min":44,"x_max":760,"o":"m 401 -14 q 139 82 233 -14 q 44 347 44 178 q 139 613 44 517 q 401 708 233 708 q 665 613 569 708 q 760 347 760 517 q 665 82 760 178 q 401 -14 569 -14 m 401 118 q 535 179 486 118 q 583 347 583 240 q 535 515 583 454 q 401 576 486 576 q 269 515 317 576 q 221 347 221 454 q 269 179 221 240 q 401 118 317 118 m 350 996 l 453 996 l 639 771 l 485 771 l 401 879 l 318 771 l 164 771 l 350 996 z "},"ố":{"ha":804,"x_min":44,"x_max":760,"o":"m 401 -14 q 139 82 233 -14 q 44 347 44 178 q 139 613 44 517 q 401 708 233 708 q 665 613 569 708 q 760 347 760 517 q 665 82 760 178 q 401 -14 569 -14 m 401 118 q 535 179 486 118 q 583 347 583 240 q 535 515 583 454 q 401 576 486 576 q 269 515 317 576 q 221 347 221 454 q 269 179 221 240 q 401 118 317 118 m 611 1115 l 738 1115 l 650 965 l 546 965 l 611 1115 m 350 996 l 451 996 l 639 771 l 483 771 l 401 879 l 318 771 l 164 771 l 350 996 z "},"ộ":{"ha":804,"x_min":44,"x_max":760,"o":"m 401 -14 q 139 82 233 -14 q 44 347 44 178 q 139 613 44 517 q 401 708 233 708 q 665 613 569 708 q 760 347 760 517 q 665 82 760 178 q 401 -14 569 -14 m 401 118 q 535 179 486 118 q 583 347 583 240 q 535 515 583 454 q 401 576 486 576 q 269 515 317 576 q 221 347 221 454 q 269 179 221 240 q 401 118 317 118 m 401 -283 q 335 -257 361 -283 q 308 -192 308 -231 q 335 -126 308 -153 q 401 -100 361 -100 q 468 -126 442 -100 q 494 -192 494 -153 q 468 -257 494 -231 q 401 -283 442 -283 m 350 996 l 453 996 l 639 771 l 485 771 l 401 879 l 318 771 l 164 771 l 350 996 z "},"ồ":{"ha":804,"x_min":44,"x_max":760,"o":"m 401 -14 q 139 82 233 -14 q 44 347 44 178 q 139 613 44 517 q 401 708 233 708 q 665 613 569 708 q 760 347 760 517 q 665 82 760 178 q 401 -14 569 -14 m 401 118 q 535 179 486 118 q 583 347 583 240 q 535 515 583 454 q 401 576 486 576 q 269 515 317 576 q 221 347 221 454 q 269 179 221 240 q 401 118 317 118 m 504 1115 l 631 1115 l 696 965 l 592 965 l 504 1115 m 350 996 l 451 996 l 639 771 l 483 771 l 401 879 l 318 771 l 164 771 l 350 996 z "},"ổ":{"ha":804,"x_min":44,"x_max":769,"o":"m 401 -14 q 139 82 233 -14 q 44 347 44 178 q 139 613 44 517 q 401 708 233 708 q 665 613 569 708 q 760 347 760 517 q 665 82 760 178 q 401 -14 569 -14 m 401 118 q 535 179 486 118 q 583 347 583 240 q 535 515 583 454 q 401 576 486 576 q 269 515 317 576 q 221 347 221 454 q 269 179 221 240 q 401 118 317 118 m 590 940 q 604 996 590 976 q 643 1035 618 1015 q 669 1058 661 1049 q 678 1083 678 1068 q 667 1101 678 1094 q 640 1108 657 1108 q 599 1098 619 1108 q 567 1068 579 1088 l 513 1119 q 572 1171 533 1151 q 650 1190 610 1190 q 736 1163 703 1190 q 769 1090 769 1135 q 758 1046 769 1063 q 726 1011 747 1029 q 696 978 706 992 q 685 940 686 964 l 590 940 m 350 996 l 451 996 l 639 771 l 483 771 l 401 879 l 318 771 l 164 771 l 350 996 z "},"ỗ":{"ha":804,"x_min":44,"x_max":760,"o":"m 401 -14 q 139 82 233 -14 q 44 347 44 178 q 139 613 44 517 q 401 708 233 708 q 665 613 569 708 q 760 347 760 517 q 665 82 760 178 q 401 -14 569 -14 m 401 118 q 535 179 486 118 q 583 347 583 240 q 535 515 583 454 q 401 576 486 576 q 269 515 317 576 q 221 347 221 454 q 269 179 221 240 q 401 118 317 118 m 474 1039 q 431 1048 450 1039 q 382 1075 411 1057 q 325 1101 344 1101 q 294 1087 308 1101 q 275 1046 281 1072 l 192 1046 q 322 1186 214 1186 q 367 1178 346 1186 q 419 1153 388 1169 q 447 1139 424 1150 q 486 1128 469 1128 q 533 1185 526 1128 l 614 1185 q 571 1076 607 1114 q 474 1039 535 1039 m 350 996 l 451 996 l 639 771 l 483 771 l 401 879 l 318 771 l 164 771 l 350 996 z "},"ö":{"ha":804,"x_min":44,"x_max":760,"o":"m 401 -14 q 139 82 233 -14 q 44 347 44 178 q 139 613 44 517 q 401 708 233 708 q 665 613 569 708 q 760 347 760 517 q 665 82 760 178 q 401 -14 569 -14 m 401 118 q 535 179 486 118 q 583 347 583 240 q 535 515 583 454 q 401 576 486 576 q 269 515 317 576 q 221 347 221 454 q 269 179 221 240 q 401 118 317 118 m 256 771 q 189 797 215 771 q 163 863 163 822 q 189 928 163 903 q 256 954 215 954 q 322 928 296 954 q 349 863 349 901 q 322 797 349 824 q 256 771 296 771 m 547 771 q 481 797 507 771 q 454 863 454 824 q 481 928 454 901 q 547 954 507 954 q 614 928 588 954 q 640 863 640 903 q 614 797 640 822 q 547 771 588 771 z "},"ọ":{"ha":804,"x_min":44,"x_max":760,"o":"m 401 -14 q 139 82 233 -14 q 44 347 44 178 q 139 613 44 517 q 401 708 233 708 q 665 613 569 708 q 760 347 760 517 q 665 82 760 178 q 401 -14 569 -14 m 401 118 q 535 179 486 118 q 583 347 583 240 q 535 515 583 454 q 401 576 486 576 q 269 515 317 576 q 221 347 221 454 q 269 179 221 240 q 401 118 317 118 m 401 -283 q 335 -257 361 -283 q 308 -192 308 -231 q 335 -126 308 -153 q 401 -100 361 -100 q 468 -126 442 -100 q 494 -192 494 -153 q 468 -257 494 -231 q 401 -283 442 -283 z "},"ò":{"ha":804,"x_min":44,"x_max":760,"o":"m 401 -14 q 139 82 233 -14 q 44 347 44 178 q 139 613 44 517 q 401 708 233 708 q 665 613 569 708 q 760 347 760 517 q 665 82 760 178 q 401 -14 569 -14 m 401 118 q 535 179 486 118 q 583 347 583 240 q 535 515 583 454 q 401 576 486 576 q 269 515 317 576 q 221 347 221 454 q 269 179 221 240 q 401 118 317 118 m 181 996 l 353 996 l 471 771 l 329 771 l 181 996 z "},"ỏ":{"ha":804,"x_min":44,"x_max":760,"o":"m 401 -14 q 139 82 233 -14 q 44 347 44 178 q 139 613 44 517 q 401 708 233 708 q 665 613 569 708 q 760 347 760 517 q 665 82 760 178 q 401 -14 569 -14 m 401 118 q 535 179 486 118 q 583 347 583 240 q 535 515 583 454 q 401 576 486 576 q 269 515 317 576 q 221 347 221 454 q 269 179 221 240 q 401 118 317 118 m 336 771 q 351 835 336 811 q 394 885 367 860 q 426 919 415 904 q 436 956 436 935 q 390 992 436 992 q 303 922 338 992 l 229 990 q 302 1066 256 1039 q 404 1093 349 1093 q 522 1059 479 1093 q 564 965 564 1025 q 550 907 564 931 q 510 856 536 883 q 476 813 488 832 q 464 771 464 794 l 336 771 z "},"ơ":{"ha":904,"x_min":44,"x_max":942,"o":"m 942 706 l 942 633 q 892 465 942 539 q 760 353 843 390 l 760 347 q 665 82 760 178 q 401 -14 569 -14 q 139 82 233 -14 q 44 347 44 178 q 139 613 44 517 q 401 708 233 708 q 622 649 533 708 q 742 479 710 589 q 782 546 769 510 q 794 633 794 582 l 794 706 l 942 706 m 401 118 q 535 179 486 118 q 583 347 583 240 q 535 515 583 454 q 401 576 486 576 q 269 515 317 576 q 221 347 221 454 q 269 179 221 240 q 401 118 317 118 z "},"ớ":{"ha":904,"x_min":44,"x_max":942,"o":"m 942 706 l 942 633 q 892 465 942 539 q 760 353 843 390 l 760 347 q 665 82 760 178 q 401 -14 569 -14 q 139 82 233 -14 q 44 347 44 178 q 139 613 44 517 q 401 708 233 708 q 622 649 533 708 q 742 479 710 589 q 782 546 769 510 q 794 633 794 582 l 794 706 l 942 706 m 401 118 q 535 179 486 118 q 583 347 583 240 q 535 515 583 454 q 401 576 486 576 q 269 515 317 576 q 221 347 221 454 q 269 179 221 240 q 401 118 317 118 m 449 996 l 621 996 l 472 771 l 331 771 l 449 996 z "},"ợ":{"ha":904,"x_min":44,"x_max":942,"o":"m 942 706 l 942 633 q 892 465 942 539 q 760 353 843 390 l 760 347 q 665 82 760 178 q 401 -14 569 -14 q 139 82 233 -14 q 44 347 44 178 q 139 613 44 517 q 401 708 233 708 q 622 649 533 708 q 742 479 710 589 q 782 546 769 510 q 794 633 794 582 l 794 706 l 942 706 m 401 118 q 535 179 486 118 q 583 347 583 240 q 535 515 583 454 q 401 576 486 576 q 269 515 317 576 q 221 347 221 454 q 269 179 221 240 q 401 118 317 118 m 401 -283 q 335 -257 361 -283 q 308 -192 308 -231 q 335 -126 308 -153 q 401 -100 361 -100 q 468 -126 442 -100 q 494 -192 494 -153 q 468 -257 494 -231 q 401 -283 442 -283 z "},"ờ":{"ha":904,"x_min":44,"x_max":942,"o":"m 942 706 l 942 633 q 892 465 942 539 q 760 353 843 390 l 760 347 q 665 82 760 178 q 401 -14 569 -14 q 139 82 233 -14 q 44 347 44 178 q 139 613 44 517 q 401 708 233 708 q 622 649 533 708 q 742 479 710 589 q 782 546 769 510 q 794 633 794 582 l 794 706 l 942 706 m 401 118 q 535 179 486 118 q 583 347 583 240 q 535 515 583 454 q 401 576 486 576 q 269 515 317 576 q 221 347 221 454 q 269 179 221 240 q 401 118 317 118 m 181 996 l 353 996 l 471 771 l 329 771 l 181 996 z "},"ở":{"ha":904,"x_min":44,"x_max":942,"o":"m 942 706 l 942 633 q 892 465 942 539 q 760 353 843 390 l 760 347 q 665 82 760 178 q 401 -14 569 -14 q 139 82 233 -14 q 44 347 44 178 q 139 613 44 517 q 401 708 233 708 q 622 649 533 708 q 742 479 710 589 q 782 546 769 510 q 794 633 794 582 l 794 706 l 942 706 m 401 118 q 535 179 486 118 q 583 347 583 240 q 535 515 583 454 q 401 576 486 576 q 269 515 317 576 q 221 347 221 454 q 269 179 221 240 q 401 118 317 118 m 336 771 q 351 835 336 811 q 394 885 367 860 q 426 919 415 904 q 436 956 436 935 q 390 992 436 992 q 303 922 338 992 l 229 990 q 302 1066 256 1039 q 404 1093 349 1093 q 522 1059 479 1093 q 564 965 564 1025 q 550 907 564 931 q 510 856 536 883 q 476 813 488 832 q 464 771 464 794 l 336 771 z "},"ỡ":{"ha":904,"x_min":44,"x_max":942,"o":"m 942 706 l 942 633 q 892 465 942 539 q 760 353 843 390 l 760 347 q 665 82 760 178 q 401 -14 569 -14 q 139 82 233 -14 q 44 347 44 178 q 139 613 44 517 q 401 708 233 708 q 622 649 533 708 q 742 479 710 589 q 782 546 769 510 q 794 633 794 582 l 794 706 l 942 706 m 401 118 q 535 179 486 118 q 583 347 583 240 q 535 515 583 454 q 401 576 486 576 q 269 515 317 576 q 221 347 221 454 q 269 179 221 240 q 401 118 317 118 m 165 771 q 208 900 165 854 q 311 946 250 946 q 364 935 339 946 q 418 907 389 925 q 451 889 435 897 q 479 881 467 881 q 517 951 517 881 l 628 951 q 584 817 628 863 q 478 771 540 771 q 425 781 449 771 q 361 814 401 792 q 314 836 326 836 q 288 818 299 836 q 276 771 278 800 l 165 771 z "},"ő":{"ha":804,"x_min":44,"x_max":760,"o":"m 308 978 l 469 978 l 331 765 l 197 765 l 308 978 m 536 978 l 697 978 l 558 765 l 425 765 l 536 978 m 401 -14 q 139 82 233 -14 q 44 347 44 178 q 139 613 44 517 q 401 708 233 708 q 665 613 569 708 q 760 347 760 517 q 665 82 760 178 q 401 -14 569 -14 m 401 118 q 535 179 486 118 q 583 347 583 240 q 535 515 583 454 q 401 576 486 576 q 269 515 317 576 q 221 347 221 454 q 269 179 221 240 q 401 118 317 118 z "},"ō":{"ha":804,"x_min":44,"x_max":760,"o":"m 401 -14 q 139 82 233 -14 q 44 347 44 178 q 139 613 44 517 q 401 708 233 708 q 665 613 569 708 q 760 347 760 517 q 665 82 760 178 q 401 -14 569 -14 m 401 118 q 535 179 486 118 q 583 347 583 240 q 535 515 583 454 q 401 576 486 576 q 269 515 317 576 q 221 347 221 454 q 269 179 221 240 q 401 118 317 118 m 164 910 l 639 910 l 639 794 l 164 794 l 164 910 z "},"ø":{"ha":804,"x_min":44,"x_max":760,"o":"m 621 649 q 724 526 688 603 q 760 347 760 450 q 665 82 760 178 q 401 -14 569 -14 q 276 3 333 -14 l 243 -60 l 121 -60 l 178 49 q 78 171 113 94 q 44 347 44 247 q 139 613 44 517 q 401 708 233 708 q 518 694 467 708 l 543 743 l 671 743 l 621 649 m 221 347 q 256 197 221 258 l 451 569 q 401 576 426 576 q 269 515 317 576 q 221 347 221 454 m 401 118 q 535 179 486 118 q 583 347 583 240 q 543 504 583 444 l 343 126 q 401 118 371 118 z "},"ǿ":{"ha":804,"x_min":44,"x_max":760,"o":"m 621 649 q 724 526 688 603 q 760 347 760 450 q 665 82 760 178 q 401 -14 569 -14 q 276 3 333 -14 l 243 -60 l 121 -60 l 178 49 q 78 171 113 94 q 44 347 44 247 q 139 613 44 517 q 401 708 233 708 q 518 694 467 708 l 543 743 l 671 743 l 621 649 m 221 347 q 256 197 221 258 l 451 569 q 401 576 426 576 q 269 515 317 576 q 221 347 221 454 m 401 118 q 535 179 486 118 q 583 347 583 240 q 543 504 583 444 l 343 126 q 401 118 371 118 m 449 996 l 621 996 l 472 771 l 331 771 l 449 996 z "},"õ":{"ha":804,"x_min":44,"x_max":760,"o":"m 401 -14 q 139 82 233 -14 q 44 347 44 178 q 139 613 44 517 q 401 708 233 708 q 665 613 569 708 q 760 347 760 517 q 665 82 760 178 q 401 -14 569 -14 m 401 118 q 535 179 486 118 q 583 347 583 240 q 535 515 583 454 q 401 576 486 576 q 269 515 317 576 q 221 347 221 454 q 269 179 221 240 q 401 118 317 118 m 165 771 q 208 900 165 854 q 311 946 250 946 q 364 935 339 946 q 418 907 389 925 q 451 889 435 897 q 479 881 467 881 q 517 951 517 881 l 628 951 q 584 817 628 863 q 478 771 540 771 q 425 781 449 771 q 361 814 401 792 q 314 836 326 836 q 288 818 299 836 q 276 771 278 800 l 165 771 z "},"œ":{"ha":1197,"x_min":44,"x_max":1153,"o":"m 1153 297 l 689 297 q 853 135 707 135 q 952 156 910 135 q 1039 225 994 176 l 1133 133 q 1015 26 1094 67 q 842 -14 936 -14 q 707 11 768 -14 q 603 82 646 36 q 369 -14 526 -14 q 127 78 210 -14 q 44 347 44 169 q 127 617 44 525 q 369 708 210 708 q 604 611 528 708 q 708 683 647 658 q 840 708 768 708 q 1071 617 989 708 q 1153 358 1153 526 l 1153 297 m 369 118 q 475 176 439 118 q 511 347 511 233 q 475 519 511 461 q 369 576 439 576 q 258 518 296 576 q 219 347 219 460 q 258 176 219 235 q 369 118 296 118 m 979 422 q 942 526 979 489 q 838 564 906 564 q 740 526 778 564 q 692 415 703 488 l 979 415 l 979 422 z "},"p":{"ha":785,"x_min":68,"x_max":740,"o":"m 74 510 q 68 694 74 622 l 235 694 q 239 603 239 653 l 242 603 q 332 681 276 653 q 456 708 388 708 q 664 611 588 708 q 740 346 740 514 q 663 82 740 178 q 450 -14 586 -14 q 332 8 383 -14 q 256 71 281 31 l 251 71 l 251 -336 l 74 -336 l 74 510 m 411 118 q 524 178 485 118 q 563 351 563 239 q 414 572 563 572 q 297 530 342 572 q 251 418 251 488 l 251 275 q 297 163 251 208 q 411 118 343 118 z "},"þ":{"ha":753,"x_min":68,"x_max":710,"o":"m 68 1031 l 243 1031 l 243 642 q 319 690 269 672 q 424 708 368 708 q 634 615 558 708 q 710 356 710 521 q 673 160 710 243 q 567 31 636 76 q 407 -14 499 -14 q 310 1 354 -14 q 243 40 267 15 l 243 -308 l 68 -308 l 68 1031 m 382 118 q 494 181 454 118 q 535 354 535 244 q 496 518 535 460 q 388 576 457 576 q 282 531 321 576 q 243 411 243 486 l 243 304 q 280 167 243 217 q 382 118 317 118 z "},"q":{"ha":785,"x_min":44,"x_max":717,"o":"m 533 78 l 529 78 q 449 10 501 35 q 331 -14 396 -14 q 121 83 197 -14 q 44 347 44 179 q 121 613 44 517 q 333 708 197 708 q 457 682 403 708 q 542 608 511 656 l 544 608 q 549 694 544 661 l 717 694 q 710 510 710 594 l 710 -336 l 533 -336 l 533 78 m 374 118 q 488 163 442 118 q 533 275 533 208 l 533 418 q 488 529 533 486 q 371 572 443 572 q 259 517 297 572 q 221 351 221 461 q 260 178 221 239 q 374 118 300 118 z "},"r":{"ha":551,"x_min":71,"x_max":538,"o":"m 75 525 q 71 694 75 643 l 239 694 q 244 572 244 640 l 244 558 l 250 558 q 343 667 276 626 q 496 708 410 708 q 538 704 513 708 l 538 564 q 504 567 532 567 q 380 531 438 567 q 288 434 322 494 q 253 304 253 374 l 253 0 l 75 0 l 75 525 z "},"ŕ":{"ha":551,"x_min":71,"x_max":538,"o":"m 75 525 q 71 694 75 643 l 239 694 q 244 572 244 640 l 244 558 l 250 558 q 343 667 276 626 q 496 708 410 708 q 538 704 513 708 l 538 564 q 504 567 532 567 q 380 531 438 567 q 288 434 322 494 q 253 304 253 374 l 253 0 l 75 0 l 75 525 m 324 996 l 496 996 l 347 771 l 206 771 l 324 996 z "},"ř":{"ha":551,"x_min":39,"x_max":538,"o":"m 75 525 q 71 694 75 643 l 239 694 q 244 572 244 640 l 244 558 l 250 558 q 343 667 276 626 q 496 708 410 708 q 538 704 513 708 l 538 564 q 504 567 532 567 q 380 531 438 567 q 288 434 322 494 q 253 304 253 374 l 253 0 l 75 0 l 75 525 m 39 996 l 193 996 l 276 888 l 360 996 l 514 996 l 328 771 l 225 771 l 39 996 z "},"ŗ":{"ha":551,"x_min":69,"x_max":538,"o":"m 75 525 q 71 694 75 643 l 239 694 q 244 572 244 640 l 244 558 l 250 558 q 343 667 276 626 q 496 708 410 708 q 538 704 513 708 l 538 564 q 504 567 532 567 q 380 531 438 567 q 288 434 322 494 q 253 304 253 374 l 253 0 l 75 0 l 75 525 m 167 -100 q 247 -131 217 -100 q 276 -212 276 -162 q 247 -327 276 -267 q 167 -429 217 -387 l 97 -375 q 157 -290 133 -331 q 94 -260 118 -286 q 69 -196 69 -235 q 97 -126 69 -153 q 167 -100 124 -100 z "},"ṛ":{"ha":551,"x_min":71,"x_max":538,"o":"m 75 525 q 71 694 75 643 l 239 694 q 244 572 244 640 l 244 558 l 250 558 q 343 667 276 626 q 496 708 410 708 q 538 704 513 708 l 538 564 q 504 567 532 567 q 380 531 438 567 q 288 434 322 494 q 253 304 253 374 l 253 0 l 75 0 l 75 525 m 168 -283 q 101 -257 128 -283 q 75 -192 75 -231 q 101 -126 75 -153 q 168 -100 128 -100 q 235 -126 208 -100 q 261 -192 261 -153 q 235 -257 261 -231 q 168 -283 208 -283 z "},"ṝ":{"ha":551,"x_min":39,"x_max":538,"o":"m 75 525 q 71 694 75 643 l 239 694 q 244 572 244 640 l 244 558 l 250 558 q 343 667 276 626 q 496 708 410 708 q 538 704 513 708 l 538 564 q 504 567 532 567 q 380 531 438 567 q 288 434 322 494 q 253 304 253 374 l 253 0 l 75 0 l 75 525 m 168 -283 q 101 -257 128 -283 q 75 -192 75 -231 q 101 -126 75 -153 q 168 -100 128 -100 q 235 -126 208 -100 q 261 -192 261 -153 q 235 -257 261 -231 q 168 -283 208 -283 m 39 910 l 514 910 l 514 794 l 39 794 l 39 910 z "},"ṟ":{"ha":551,"x_min":33,"x_max":538,"o":"m 75 525 q 71 694 75 643 l 239 694 q 244 572 244 640 l 244 558 l 250 558 q 343 667 276 626 q 496 708 410 708 q 538 704 513 708 l 538 564 q 504 567 532 567 q 380 531 438 567 q 288 434 322 494 q 253 304 253 374 l 253 0 l 75 0 l 75 525 m 33 -100 l 508 -100 l 508 -215 l 33 -215 l 33 -100 z "},"s":{"ha":613,"x_min":38,"x_max":575,"o":"m 293 -14 q 134 22 203 -14 q 38 118 65 58 l 147 194 q 211 139 172 160 q 290 118 250 118 q 368 142 338 118 q 399 203 399 167 q 376 249 399 232 q 282 294 354 267 q 104 393 156 343 q 53 517 53 443 q 123 656 53 603 q 310 708 193 708 q 450 678 388 708 q 551 593 513 649 l 449 517 q 317 576 400 576 q 252 562 275 576 q 229 519 229 547 q 239 488 229 500 q 276 461 249 475 q 365 424 304 447 q 492 362 447 392 q 556 297 538 332 q 575 211 575 261 q 540 94 575 144 q 440 15 504 43 q 293 -14 376 -14 z "},"ś":{"ha":613,"x_min":38,"x_max":575,"o":"m 293 -14 q 134 22 203 -14 q 38 118 65 58 l 147 194 q 211 139 172 160 q 290 118 250 118 q 368 142 338 118 q 399 203 399 167 q 376 249 399 232 q 282 294 354 267 q 104 393 156 343 q 53 517 53 443 q 123 656 53 603 q 310 708 193 708 q 450 678 388 708 q 551 593 513 649 l 449 517 q 317 576 400 576 q 252 562 275 576 q 229 519 229 547 q 239 488 229 500 q 276 461 249 475 q 365 424 304 447 q 492 362 447 392 q 556 297 538 332 q 575 211 575 261 q 540 94 575 144 q 440 15 504 43 q 293 -14 376 -14 m 356 996 l 528 996 l 379 771 l 238 771 l 356 996 z "},"š":{"ha":613,"x_min":38,"x_max":575,"o":"m 293 -14 q 134 22 203 -14 q 38 118 65 58 l 147 194 q 211 139 172 160 q 290 118 250 118 q 368 142 338 118 q 399 203 399 167 q 376 249 399 232 q 282 294 354 267 q 104 393 156 343 q 53 517 53 443 q 123 656 53 603 q 310 708 193 708 q 450 678 388 708 q 551 593 513 649 l 449 517 q 317 576 400 576 q 252 562 275 576 q 229 519 229 547 q 239 488 229 500 q 276 461 249 475 q 365 424 304 447 q 492 362 447 392 q 556 297 538 332 q 575 211 575 261 q 540 94 575 144 q 440 15 504 43 q 293 -14 376 -14 m 71 996 l 225 996 l 308 888 l 392 996 l 546 996 l 360 771 l 257 771 l 71 996 z "},"ş":{"ha":613,"x_min":38,"x_max":575,"o":"m 575 211 q 519 68 575 126 q 365 -8 463 10 l 318 -92 q 413 -120 376 -92 q 449 -199 449 -149 q 403 -298 449 -260 q 285 -336 358 -336 q 213 -328 250 -336 q 154 -307 176 -319 l 172 -231 q 264 -247 217 -247 q 308 -235 293 -247 q 324 -203 324 -224 q 298 -169 324 -181 q 231 -160 272 -157 l 190 -114 l 249 -11 q 117 31 174 -3 q 38 118 61 65 l 147 194 q 211 139 172 160 q 290 118 250 118 q 368 142 338 118 q 399 203 399 167 q 376 249 399 232 q 282 294 354 267 q 104 393 156 343 q 53 517 53 443 q 123 656 53 603 q 310 708 193 708 q 450 678 388 708 q 551 593 513 649 l 449 517 q 317 576 400 576 q 252 562 275 576 q 229 519 229 547 q 239 488 229 500 q 276 461 249 475 q 365 424 304 447 q 492 362 447 392 q 556 297 538 332 q 575 211 575 261 z "},"ŝ":{"ha":613,"x_min":38,"x_max":575,"o":"m 293 -14 q 134 22 203 -14 q 38 118 65 58 l 147 194 q 211 139 172 160 q 290 118 250 118 q 368 142 338 118 q 399 203 399 167 q 376 249 399 232 q 282 294 354 267 q 104 393 156 343 q 53 517 53 443 q 123 656 53 603 q 310 708 193 708 q 450 678 388 708 q 551 593 513 649 l 449 517 q 317 576 400 576 q 252 562 275 576 q 229 519 229 547 q 239 488 229 500 q 276 461 249 475 q 365 424 304 447 q 492 362 447 392 q 556 297 538 332 q 575 211 575 261 q 540 94 575 144 q 440 15 504 43 q 293 -14 376 -14 m 257 996 l 360 996 l 546 771 l 392 771 l 308 879 l 225 771 l 71 771 l 257 996 z "},"ș":{"ha":613,"x_min":38,"x_max":575,"o":"m 293 -14 q 134 22 203 -14 q 38 118 65 58 l 147 194 q 211 139 172 160 q 290 118 250 118 q 368 142 338 118 q 399 203 399 167 q 376 249 399 232 q 282 294 354 267 q 104 393 156 343 q 53 517 53 443 q 123 656 53 603 q 310 708 193 708 q 450 678 388 708 q 551 593 513 649 l 449 517 q 317 576 400 576 q 252 562 275 576 q 229 519 229 547 q 239 488 229 500 q 276 461 249 475 q 365 424 304 447 q 492 362 447 392 q 556 297 538 332 q 575 211 575 261 q 540 94 575 144 q 440 15 504 43 q 293 -14 376 -14 m 307 -100 q 387 -131 357 -100 q 417 -212 417 -162 q 387 -327 417 -267 q 307 -429 357 -387 l 238 -375 q 297 -290 274 -331 q 234 -260 258 -286 q 210 -196 210 -235 q 237 -126 210 -153 q 307 -100 264 -100 z "},"ṡ":{"ha":613,"x_min":38,"x_max":575,"o":"m 293 -14 q 134 22 203 -14 q 38 118 65 58 l 147 194 q 211 139 172 160 q 290 118 250 118 q 368 142 338 118 q 399 203 399 167 q 376 249 399 232 q 282 294 354 267 q 104 393 156 343 q 53 517 53 443 q 123 656 53 603 q 310 708 193 708 q 450 678 388 708 q 551 593 513 649 l 449 517 q 317 576 400 576 q 252 562 275 576 q 229 519 229 547 q 239 488 229 500 q 276 461 249 475 q 365 424 304 447 q 492 362 447 392 q 556 297 538 332 q 575 211 575 261 q 540 94 575 144 q 440 15 504 43 q 293 -14 376 -14 m 308 771 q 242 797 268 771 q 215 863 215 824 q 242 928 215 901 q 308 954 268 954 q 375 928 349 954 q 401 863 401 901 q 375 797 401 824 q 308 771 349 771 z "},"ṣ":{"ha":613,"x_min":38,"x_max":575,"o":"m 293 -14 q 134 22 203 -14 q 38 118 65 58 l 147 194 q 211 139 172 160 q 290 118 250 118 q 368 142 338 118 q 399 203 399 167 q 376 249 399 232 q 282 294 354 267 q 104 393 156 343 q 53 517 53 443 q 123 656 53 603 q 310 708 193 708 q 450 678 388 708 q 551 593 513 649 l 449 517 q 317 576 400 576 q 252 562 275 576 q 229 519 229 547 q 239 488 229 500 q 276 461 249 475 q 365 424 304 447 q 492 362 447 392 q 556 297 538 332 q 575 211 575 261 q 540 94 575 144 q 440 15 504 43 q 293 -14 376 -14 m 308 -283 q 242 -257 268 -283 q 215 -192 215 -231 q 242 -126 215 -153 q 308 -100 268 -100 q 375 -126 349 -100 q 401 -192 401 -153 q 375 -257 401 -231 q 308 -283 349 -283 z "},"ß":{"ha":799,"x_min":63,"x_max":761,"o":"m 506 -14 q 359 19 421 -14 q 268 118 297 51 l 382 194 q 433 138 406 158 q 499 118 461 118 q 563 144 539 118 q 586 206 586 169 q 563 267 586 243 q 481 314 540 290 q 333 492 333 371 q 355 571 333 539 q 419 644 376 603 q 474 703 456 678 q 492 761 492 729 q 462 830 492 806 q 379 854 432 854 q 238 665 238 854 l 238 0 l 63 0 l 63 672 q 144 903 63 821 q 374 986 226 986 q 590 927 513 986 q 667 761 667 868 q 639 664 667 703 q 560 582 611 625 q 516 540 529 556 q 503 507 503 525 q 531 461 503 483 q 617 411 558 439 q 724 331 686 378 q 761 211 761 283 q 691 48 761 110 q 506 -14 621 -14 z "},"t":{"ha":583,"x_min":17,"x_max":543,"o":"m 369 -14 q 203 44 263 -14 q 143 208 143 103 l 143 563 l 17 563 l 17 694 l 143 694 l 143 874 l 315 924 l 321 924 l 321 694 l 522 694 l 522 563 l 321 563 l 321 235 q 349 147 321 175 q 433 119 376 119 q 535 136 488 119 l 543 15 q 369 -14 481 -14 z "},"ŧ":{"ha":583,"x_min":17,"x_max":543,"o":"m 543 15 q 369 -14 481 -14 q 203 44 263 -14 q 143 208 143 103 l 143 311 l 40 311 l 40 425 l 143 425 l 143 563 l 17 563 l 17 694 l 143 694 l 143 874 l 315 924 l 321 924 l 321 694 l 522 694 l 522 563 l 321 563 l 321 425 l 465 425 l 465 311 l 321 311 l 321 235 q 349 147 321 175 q 433 119 376 119 q 535 136 488 119 l 543 15 z "},"ť":{"ha":750,"x_min":17,"x_max":735,"o":"m 369 -14 q 203 44 263 -14 q 143 208 143 103 l 143 563 l 17 563 l 17 694 l 143 694 l 143 874 l 315 924 l 321 924 l 321 694 l 522 694 l 522 563 l 321 563 l 321 235 q 349 147 321 175 q 433 119 376 119 q 535 136 488 119 l 543 15 q 369 -14 481 -14 m 625 1040 q 705 1009 675 1040 q 735 928 735 978 q 705 815 735 875 q 626 713 675 756 l 556 765 q 615 850 597 815 q 552 880 576 854 q 528 944 528 906 q 555 1014 528 988 q 625 1040 582 1040 z "},"ţ":{"ha":583,"x_min":17,"x_max":543,"o":"m 372 -92 q 467 -120 431 -92 q 503 -199 503 -149 q 458 -298 503 -260 q 339 -336 413 -336 q 267 -328 304 -336 q 208 -307 231 -319 l 226 -231 q 319 -247 272 -247 q 363 -235 347 -247 q 378 -203 378 -224 q 353 -169 378 -181 q 286 -160 328 -157 l 246 -114 l 306 -7 q 185 64 228 8 q 143 208 143 119 l 143 563 l 17 563 l 17 694 l 143 694 l 143 874 l 315 924 l 321 924 l 321 694 l 522 694 l 522 563 l 321 563 l 321 235 q 349 147 321 175 q 433 119 376 119 q 535 136 488 119 l 543 15 q 418 -12 500 -6 l 372 -92 z "},"ț":{"ha":583,"x_min":17,"x_max":543,"o":"m 369 -14 q 203 44 263 -14 q 143 208 143 103 l 143 563 l 17 563 l 17 694 l 143 694 l 143 874 l 315 924 l 321 924 l 321 694 l 522 694 l 522 563 l 321 563 l 321 235 q 349 147 321 175 q 433 119 376 119 q 535 136 488 119 l 543 15 q 369 -14 481 -14 m 361 -100 q 441 -131 411 -100 q 471 -212 471 -162 q 441 -327 471 -267 q 361 -429 411 -387 l 292 -375 q 351 -290 328 -331 q 288 -260 313 -286 q 264 -196 264 -235 q 291 -126 264 -153 q 361 -100 318 -100 z "},"ẗ":{"ha":583,"x_min":-7,"x_max":543,"o":"m 369 -14 q 203 44 263 -14 q 143 208 143 103 l 143 563 l 17 563 l 17 694 l 143 694 l 143 874 l 315 924 l 321 924 l 321 694 l 522 694 l 522 563 l 321 563 l 321 235 q 349 147 321 175 q 433 119 376 119 q 535 136 488 119 l 543 15 q 369 -14 481 -14 m 86 1000 q 19 1026 46 1000 q -7 1092 -7 1051 q 19 1158 -7 1132 q 86 1183 46 1183 q 153 1157 126 1183 q 179 1092 179 1131 q 153 1026 179 1053 q 86 1000 126 1000 m 378 1000 q 311 1026 338 1000 q 285 1092 285 1053 q 311 1157 285 1131 q 378 1183 338 1183 q 444 1158 418 1183 q 471 1092 471 1132 q 444 1026 471 1051 q 378 1000 418 1000 z "},"ṭ":{"ha":583,"x_min":17,"x_max":543,"o":"m 369 -14 q 203 44 263 -14 q 143 208 143 103 l 143 563 l 17 563 l 17 694 l 143 694 l 143 874 l 315 924 l 321 924 l 321 694 l 522 694 l 522 563 l 321 563 l 321 235 q 349 147 321 175 q 433 119 376 119 q 535 136 488 119 l 543 15 q 369 -14 481 -14 m 363 -283 q 296 -257 322 -283 q 269 -192 269 -231 q 296 -126 269 -153 q 363 -100 322 -100 q 429 -126 403 -100 q 456 -192 456 -153 q 429 -257 456 -231 q 363 -283 403 -283 z "},"ṯ":{"ha":583,"x_min":17,"x_max":600,"o":"m 369 -14 q 203 44 263 -14 q 143 208 143 103 l 143 563 l 17 563 l 17 694 l 143 694 l 143 874 l 315 924 l 321 924 l 321 694 l 522 694 l 522 563 l 321 563 l 321 235 q 349 147 321 175 q 433 119 376 119 q 535 136 488 119 l 543 15 q 369 -14 481 -14 m 125 -100 l 600 -100 l 600 -215 l 125 -215 l 125 -100 z "},"u":{"ha":779,"x_min":67,"x_max":721,"o":"m 310 -14 q 128 67 190 -14 q 67 303 67 147 l 67 694 l 244 694 l 244 301 q 274 171 244 213 q 364 129 303 129 q 485 185 438 129 q 532 325 532 242 l 532 694 l 710 694 l 710 176 q 721 0 710 106 l 553 0 q 540 122 542 63 l 538 122 q 451 23 513 60 q 310 -14 389 -14 z "},"ú":{"ha":779,"x_min":67,"x_max":721,"o":"m 310 -14 q 128 67 190 -14 q 67 303 67 147 l 67 694 l 244 694 l 244 301 q 274 171 244 213 q 364 129 303 129 q 485 185 438 129 q 532 325 532 242 l 532 694 l 710 694 l 710 176 q 721 0 710 106 l 553 0 q 540 122 542 63 l 538 122 q 451 23 513 60 q 310 -14 389 -14 m 447 996 l 619 996 l 471 771 l 329 771 l 447 996 z "},"ŭ":{"ha":779,"x_min":67,"x_max":721,"o":"m 310 -14 q 128 67 190 -14 q 67 303 67 147 l 67 694 l 244 694 l 244 301 q 274 171 244 213 q 364 129 303 129 q 485 185 438 129 q 532 325 532 242 l 532 694 l 710 694 l 710 176 q 721 0 710 106 l 553 0 q 540 122 542 63 l 538 122 q 451 23 513 60 q 310 -14 389 -14 m 400 771 q 235 825 293 771 q 175 982 176 879 l 293 982 q 322 908 294 935 q 400 882 350 882 q 478 908 450 882 q 507 982 506 935 l 625 982 q 567 826 625 881 q 400 771 508 771 z "},"ǔ":{"ha":779,"x_min":67,"x_max":721,"o":"m 310 -14 q 128 67 190 -14 q 67 303 67 147 l 67 694 l 244 694 l 244 301 q 274 171 244 213 q 364 129 303 129 q 485 185 438 129 q 532 325 532 242 l 532 694 l 710 694 l 710 176 q 721 0 710 106 l 553 0 q 540 122 542 63 l 538 122 q 451 23 513 60 q 310 -14 389 -14 m 163 996 l 317 996 l 400 888 l 483 996 l 638 996 l 451 771 l 349 771 l 163 996 z "},"û":{"ha":779,"x_min":67,"x_max":721,"o":"m 310 -14 q 128 67 190 -14 q 67 303 67 147 l 67 694 l 244 694 l 244 301 q 274 171 244 213 q 364 129 303 129 q 485 185 438 129 q 532 325 532 242 l 532 694 l 710 694 l 710 176 q 721 0 710 106 l 553 0 q 540 122 542 63 l 538 122 q 451 23 513 60 q 310 -14 389 -14 m 349 996 l 451 996 l 638 771 l 483 771 l 400 879 l 317 771 l 163 771 l 349 996 z "},"ü":{"ha":779,"x_min":67,"x_max":721,"o":"m 310 -14 q 128 67 190 -14 q 67 303 67 147 l 67 694 l 244 694 l 244 301 q 274 171 244 213 q 364 129 303 129 q 485 185 438 129 q 532 325 532 242 l 532 694 l 710 694 l 710 176 q 721 0 710 106 l 553 0 q 540 122 542 63 l 538 122 q 451 23 513 60 q 310 -14 389 -14 m 254 771 q 188 797 214 771 q 161 863 161 822 q 188 928 161 903 q 254 954 214 954 q 321 928 294 954 q 347 863 347 901 q 321 797 347 824 q 254 771 294 771 m 546 771 q 479 797 506 771 q 453 863 453 824 q 479 928 453 901 q 546 954 506 954 q 613 928 586 954 q 639 863 639 903 q 613 797 639 822 q 546 771 586 771 z "},"ǘ":{"ha":779,"x_min":67,"x_max":721,"o":"m 310 -14 q 128 67 190 -14 q 67 303 67 147 l 67 694 l 244 694 l 244 301 q 274 171 244 213 q 364 129 303 129 q 485 185 438 129 q 532 325 532 242 l 532 694 l 710 694 l 710 176 q 721 0 710 106 l 553 0 q 540 122 542 63 l 538 122 q 451 23 513 60 q 310 -14 389 -14 m 403 1161 l 540 1161 l 453 1010 l 338 1010 l 403 1161 m 254 771 q 188 797 214 771 q 161 863 161 822 q 188 928 161 903 q 254 954 214 954 q 321 928 294 954 q 347 863 347 901 q 321 797 347 824 q 254 771 294 771 m 546 771 q 479 797 506 771 q 453 863 453 824 q 479 928 453 901 q 546 954 506 954 q 613 928 586 954 q 639 863 639 903 q 613 797 639 822 q 546 771 586 771 z "},"ǚ":{"ha":779,"x_min":67,"x_max":721,"o":"m 310 -14 q 128 67 190 -14 q 67 303 67 147 l 67 694 l 244 694 l 244 301 q 274 171 244 213 q 364 129 303 129 q 485 185 438 129 q 532 325 532 242 l 532 694 l 710 694 l 710 176 q 721 0 710 106 l 553 0 q 540 122 542 63 l 538 122 q 451 23 513 60 q 310 -14 389 -14 m 181 1161 l 318 1161 l 400 1064 l 482 1161 l 619 1161 l 450 981 l 350 981 l 181 1161 m 254 771 q 188 797 214 771 q 161 863 161 822 q 188 928 161 903 q 254 954 214 954 q 321 928 294 954 q 347 863 347 901 q 321 797 347 824 q 254 771 294 771 m 546 771 q 479 797 506 771 q 453 863 453 824 q 479 928 453 901 q 546 954 506 954 q 613 928 586 954 q 639 863 639 903 q 613 797 639 822 q 546 771 586 771 z "},"ǜ":{"ha":779,"x_min":67,"x_max":721,"o":"m 310 -14 q 128 67 190 -14 q 67 303 67 147 l 67 694 l 244 694 l 244 301 q 274 171 244 213 q 364 129 303 129 q 485 185 438 129 q 532 325 532 242 l 532 694 l 710 694 l 710 176 q 721 0 710 106 l 553 0 q 540 122 542 63 l 538 122 q 451 23 513 60 q 310 -14 389 -14 m 254 1161 l 392 1161 l 457 1010 l 342 1010 l 254 1161 m 254 771 q 188 797 214 771 q 161 863 161 822 q 188 928 161 903 q 254 954 214 954 q 321 928 294 954 q 347 863 347 901 q 321 797 347 824 q 254 771 294 771 m 546 771 q 479 797 506 771 q 453 863 453 824 q 479 928 453 901 q 546 954 506 954 q 613 928 586 954 q 639 863 639 903 q 613 797 639 822 q 546 771 586 771 z "},"ǖ":{"ha":779,"x_min":67,"x_max":721,"o":"m 310 -14 q 128 67 190 -14 q 67 303 67 147 l 67 694 l 244 694 l 244 301 q 274 171 244 213 q 364 129 303 129 q 485 185 438 129 q 532 325 532 242 l 532 694 l 710 694 l 710 176 q 721 0 710 106 l 553 0 q 540 122 542 63 l 538 122 q 451 23 513 60 q 310 -14 389 -14 m 194 1119 l 607 1119 l 607 1028 l 194 1028 l 194 1119 m 254 771 q 188 797 214 771 q 161 863 161 822 q 188 928 161 903 q 254 954 214 954 q 321 928 294 954 q 347 863 347 901 q 321 797 347 824 q 254 771 294 771 m 546 771 q 479 797 506 771 q 453 863 453 824 q 479 928 453 901 q 546 954 506 954 q 613 928 586 954 q 639 863 639 903 q 613 797 639 822 q 546 771 586 771 z "},"ụ":{"ha":779,"x_min":67,"x_max":721,"o":"m 310 -14 q 128 67 190 -14 q 67 303 67 147 l 67 694 l 244 694 l 244 301 q 274 171 244 213 q 364 129 303 129 q 485 185 438 129 q 532 325 532 242 l 532 694 l 710 694 l 710 176 q 721 0 710 106 l 553 0 q 540 122 542 63 l 538 122 q 451 23 513 60 q 310 -14 389 -14 m 400 -283 q 333 -257 360 -283 q 307 -192 307 -231 q 333 -126 307 -153 q 400 -100 360 -100 q 467 -126 440 -100 q 493 -192 493 -153 q 467 -257 493 -231 q 400 -283 440 -283 z "},"ù":{"ha":779,"x_min":67,"x_max":721,"o":"m 310 -14 q 128 67 190 -14 q 67 303 67 147 l 67 694 l 244 694 l 244 301 q 274 171 244 213 q 364 129 303 129 q 485 185 438 129 q 532 325 532 242 l 532 694 l 710 694 l 710 176 q 721 0 710 106 l 553 0 q 540 122 542 63 l 538 122 q 451 23 513 60 q 310 -14 389 -14 m 179 996 l 351 996 l 469 771 l 328 771 l 179 996 z "},"ủ":{"ha":779,"x_min":67,"x_max":721,"o":"m 310 -14 q 128 67 190 -14 q 67 303 67 147 l 67 694 l 244 694 l 244 301 q 274 171 244 213 q 364 129 303 129 q 485 185 438 129 q 532 325 532 242 l 532 694 l 710 694 l 710 176 q 721 0 710 106 l 553 0 q 540 122 542 63 l 538 122 q 451 23 513 60 q 310 -14 389 -14 m 335 771 q 350 835 335 811 q 393 885 365 860 q 424 919 414 904 q 435 956 435 935 q 389 992 435 992 q 301 922 336 992 l 228 990 q 301 1066 254 1039 q 403 1093 347 1093 q 520 1059 478 1093 q 563 965 563 1025 q 549 907 563 931 q 508 856 535 883 q 474 813 486 832 q 463 771 463 794 l 335 771 z "},"ư":{"ha":901,"x_min":67,"x_max":939,"o":"m 939 696 l 939 624 q 876 435 939 517 q 710 326 813 354 l 710 176 q 721 0 710 106 l 553 0 q 540 122 542 63 l 538 122 q 451 23 513 60 q 310 -14 389 -14 q 128 67 190 -14 q 67 303 67 147 l 67 694 l 244 694 l 244 301 q 274 171 244 213 q 364 129 303 129 q 485 185 438 129 q 532 325 532 242 l 532 694 l 710 694 l 710 443 q 773 519 754 478 q 792 624 792 561 l 792 696 l 939 696 z "},"ứ":{"ha":901,"x_min":67,"x_max":939,"o":"m 939 696 l 939 624 q 876 435 939 517 q 710 326 813 354 l 710 176 q 721 0 710 106 l 553 0 q 540 122 542 63 l 538 122 q 451 23 513 60 q 310 -14 389 -14 q 128 67 190 -14 q 67 303 67 147 l 67 694 l 244 694 l 244 301 q 274 171 244 213 q 364 129 303 129 q 485 185 438 129 q 532 325 532 242 l 532 694 l 710 694 l 710 443 q 773 519 754 478 q 792 624 792 561 l 792 696 l 939 696 m 447 996 l 619 996 l 471 771 l 329 771 l 447 996 z "},"ự":{"ha":901,"x_min":67,"x_max":939,"o":"m 939 696 l 939 624 q 876 435 939 517 q 710 326 813 354 l 710 176 q 721 0 710 106 l 553 0 q 540 122 542 63 l 538 122 q 451 23 513 60 q 310 -14 389 -14 q 128 67 190 -14 q 67 303 67 147 l 67 694 l 244 694 l 244 301 q 274 171 244 213 q 364 129 303 129 q 485 185 438 129 q 532 325 532 242 l 532 694 l 710 694 l 710 443 q 773 519 754 478 q 792 624 792 561 l 792 696 l 939 696 m 400 -283 q 333 -257 360 -283 q 307 -192 307 -231 q 333 -126 307 -153 q 400 -100 360 -100 q 467 -126 440 -100 q 493 -192 493 -153 q 467 -257 493 -231 q 400 -283 440 -283 z "},"ừ":{"ha":901,"x_min":67,"x_max":939,"o":"m 939 696 l 939 624 q 876 435 939 517 q 710 326 813 354 l 710 176 q 721 0 710 106 l 553 0 q 540 122 542 63 l 538 122 q 451 23 513 60 q 310 -14 389 -14 q 128 67 190 -14 q 67 303 67 147 l 67 694 l 244 694 l 244 301 q 274 171 244 213 q 364 129 303 129 q 485 185 438 129 q 532 325 532 242 l 532 694 l 710 694 l 710 443 q 773 519 754 478 q 792 624 792 561 l 792 696 l 939 696 m 179 996 l 351 996 l 469 771 l 328 771 l 179 996 z "},"ử":{"ha":901,"x_min":67,"x_max":939,"o":"m 939 696 l 939 624 q 876 435 939 517 q 710 326 813 354 l 710 176 q 721 0 710 106 l 553 0 q 540 122 542 63 l 538 122 q 451 23 513 60 q 310 -14 389 -14 q 128 67 190 -14 q 67 303 67 147 l 67 694 l 244 694 l 244 301 q 274 171 244 213 q 364 129 303 129 q 485 185 438 129 q 532 325 532 242 l 532 694 l 710 694 l 710 443 q 773 519 754 478 q 792 624 792 561 l 792 696 l 939 696 m 335 771 q 350 835 335 811 q 393 885 365 860 q 424 919 414 904 q 435 956 435 935 q 389 992 435 992 q 301 922 336 992 l 228 990 q 301 1066 254 1039 q 403 1093 347 1093 q 520 1059 478 1093 q 563 965 563 1025 q 549 907 563 931 q 508 856 535 883 q 474 813 486 832 q 463 771 463 794 l 335 771 z "},"ữ":{"ha":901,"x_min":67,"x_max":939,"o":"m 939 696 l 939 624 q 876 435 939 517 q 710 326 813 354 l 710 176 q 721 0 710 106 l 553 0 q 540 122 542 63 l 538 122 q 451 23 513 60 q 310 -14 389 -14 q 128 67 190 -14 q 67 303 67 147 l 67 694 l 244 694 l 244 301 q 274 171 244 213 q 364 129 303 129 q 485 185 438 129 q 532 325 532 242 l 532 694 l 710 694 l 710 443 q 773 519 754 478 q 792 624 792 561 l 792 696 l 939 696 m 164 771 q 206 900 164 854 q 310 946 249 946 q 363 935 338 946 q 417 907 388 925 q 449 889 433 897 q 478 881 465 881 q 515 951 515 881 l 626 951 q 583 817 626 863 q 476 771 539 771 q 424 781 447 771 q 360 814 400 792 q 313 836 325 836 q 287 818 297 836 q 275 771 276 800 l 164 771 z "},"ű":{"ha":779,"x_min":67,"x_max":721,"o":"m 310 -14 q 128 67 190 -14 q 67 303 67 147 l 67 694 l 244 694 l 244 301 q 274 171 244 213 q 364 129 303 129 q 485 185 438 129 q 532 325 532 242 l 532 694 l 710 694 l 710 176 q 721 0 710 106 l 553 0 q 540 122 542 63 l 538 122 q 451 23 513 60 q 310 -14 389 -14 m 300 996 l 472 996 l 324 771 l 182 771 l 300 996 m 543 996 l 715 996 l 567 771 l 425 771 l 543 996 z "},"ū":{"ha":779,"x_min":67,"x_max":721,"o":"m 310 -14 q 128 67 190 -14 q 67 303 67 147 l 67 694 l 244 694 l 244 301 q 274 171 244 213 q 364 129 303 129 q 485 185 438 129 q 532 325 532 242 l 532 694 l 710 694 l 710 176 q 721 0 710 106 l 553 0 q 540 122 542 63 l 538 122 q 451 23 513 60 q 310 -14 389 -14 m 163 910 l 638 910 l 638 794 l 163 794 l 163 910 z "},"ų":{"ha":779,"x_min":67,"x_max":751,"o":"m 751 -269 q 685 -310 725 -296 q 601 -325 644 -325 q 486 -288 528 -325 q 444 -182 444 -251 q 576 0 444 -69 l 553 0 q 540 122 542 63 l 538 122 q 451 23 513 60 q 310 -14 389 -14 q 128 67 190 -14 q 67 303 67 147 l 67 694 l 244 694 l 244 301 q 274 171 244 213 q 364 129 303 129 q 485 185 438 129 q 532 325 532 242 l 532 694 l 710 694 l 710 176 q 721 0 710 106 l 696 0 q 572 -158 572 -85 q 589 -194 572 -179 q 639 -208 606 -208 q 725 -186 665 -208 l 751 -269 z "},"ů":{"ha":779,"x_min":67,"x_max":721,"o":"m 310 -14 q 128 67 190 -14 q 67 303 67 147 l 67 694 l 244 694 l 244 301 q 274 171 244 213 q 364 129 303 129 q 485 185 438 129 q 532 325 532 242 l 532 694 l 710 694 l 710 176 q 721 0 710 106 l 553 0 q 540 122 542 63 l 538 122 q 451 23 513 60 q 310 -14 389 -14 m 400 765 q 294 804 335 765 q 253 904 253 843 q 294 1004 253 965 q 400 1043 335 1043 q 506 1004 465 1043 q 547 904 547 965 q 506 804 547 843 q 400 765 465 765 m 400 833 q 449 853 431 833 q 468 904 468 872 q 449 956 468 936 q 400 975 431 975 q 351 956 369 975 q 332 904 332 936 q 351 853 332 872 q 400 833 369 833 z "},"ũ":{"ha":779,"x_min":67,"x_max":721,"o":"m 310 -14 q 128 67 190 -14 q 67 303 67 147 l 67 694 l 244 694 l 244 301 q 274 171 244 213 q 364 129 303 129 q 485 185 438 129 q 532 325 532 242 l 532 694 l 710 694 l 710 176 q 721 0 710 106 l 553 0 q 540 122 542 63 l 538 122 q 451 23 513 60 q 310 -14 389 -14 m 164 771 q 206 900 164 854 q 310 946 249 946 q 363 935 338 946 q 417 907 388 925 q 449 889 433 897 q 478 881 465 881 q 515 951 515 881 l 626 951 q 583 817 626 863 q 476 771 539 771 q 424 781 447 771 q 360 814 400 792 q 313 836 325 836 q 287 818 297 836 q 275 771 276 800 l 164 771 z "},"v":{"ha":733,"x_min":18,"x_max":715,"o":"m 715 694 l 443 0 l 290 0 l 18 694 l 201 694 l 367 217 l 532 694 l 715 694 z "},"w":{"ha":982,"x_min":18,"x_max":964,"o":"m 964 694 l 786 0 l 631 0 l 492 503 l 353 0 l 196 0 l 18 694 l 203 694 l 290 263 l 413 694 l 569 694 l 692 263 l 779 694 l 964 694 z "},"ẃ":{"ha":982,"x_min":18,"x_max":964,"o":"m 964 694 l 786 0 l 631 0 l 492 503 l 353 0 l 196 0 l 18 694 l 203 694 l 290 263 l 413 694 l 569 694 l 692 263 l 779 694 l 964 694 m 539 996 l 711 996 l 563 771 l 421 771 l 539 996 z "},"ŵ":{"ha":982,"x_min":18,"x_max":964,"o":"m 964 694 l 786 0 l 631 0 l 492 503 l 353 0 l 196 0 l 18 694 l 203 694 l 290 263 l 413 694 l 569 694 l 692 263 l 779 694 l 964 694 m 440 996 l 543 996 l 729 771 l 575 771 l 492 879 l 408 771 l 254 771 l 440 996 z "},"ẅ":{"ha":982,"x_min":18,"x_max":964,"o":"m 964 694 l 786 0 l 631 0 l 492 503 l 353 0 l 196 0 l 18 694 l 203 694 l 290 263 l 413 694 l 569 694 l 692 263 l 779 694 l 964 694 m 346 771 q 279 797 306 771 q 253 863 253 822 q 279 928 253 903 q 346 954 306 954 q 413 928 386 954 q 439 863 439 901 q 413 797 439 824 q 346 771 386 771 m 638 771 q 571 797 597 771 q 544 863 544 824 q 571 928 544 901 q 638 954 597 954 q 704 928 678 954 q 731 863 731 903 q 704 797 731 822 q 638 771 678 771 z "},"ẁ":{"ha":982,"x_min":18,"x_max":964,"o":"m 964 694 l 786 0 l 631 0 l 492 503 l 353 0 l 196 0 l 18 694 l 203 694 l 290 263 l 413 694 l 569 694 l 692 263 l 779 694 l 964 694 m 271 996 l 443 996 l 561 771 l 419 771 l 271 996 z "},"x":{"ha":722,"x_min":18,"x_max":704,"o":"m 269 353 l 38 694 l 233 694 l 361 489 l 489 694 l 685 694 l 454 353 l 704 0 l 506 0 l 361 226 l 217 0 l 18 0 l 269 353 z "},"y":{"ha":701,"x_min":4,"x_max":683,"o":"m 683 694 l 418 -32 q 299 -208 375 -149 q 118 -267 224 -267 q 4 -251 63 -267 l 4 -111 q 46 -121 21 -117 q 90 -125 71 -125 q 195 -83 151 -125 q 274 51 239 -40 l 15 694 l 204 694 l 357 250 l 494 694 l 683 694 z "},"ý":{"ha":701,"x_min":4,"x_max":683,"o":"m 683 694 l 418 -32 q 299 -208 375 -149 q 118 -267 224 -267 q 4 -251 63 -267 l 4 -111 q 46 -121 21 -117 q 90 -125 71 -125 q 195 -83 151 -125 q 274 51 239 -40 l 15 694 l 204 694 l 357 250 l 494 694 l 683 694 m 401 996 l 574 996 l 425 771 l 283 771 l 401 996 z "},"ŷ":{"ha":701,"x_min":4,"x_max":683,"o":"m 683 694 l 418 -32 q 299 -208 375 -149 q 118 -267 224 -267 q 4 -251 63 -267 l 4 -111 q 46 -121 21 -117 q 90 -125 71 -125 q 195 -83 151 -125 q 274 51 239 -40 l 15 694 l 204 694 l 357 250 l 494 694 l 683 694 m 303 996 l 406 996 l 592 771 l 438 771 l 354 879 l 271 771 l 117 771 l 303 996 z "},"ÿ":{"ha":701,"x_min":4,"x_max":683,"o":"m 683 694 l 418 -32 q 299 -208 375 -149 q 118 -267 224 -267 q 4 -251 63 -267 l 4 -111 q 46 -121 21 -117 q 90 -125 71 -125 q 195 -83 151 -125 q 274 51 239 -40 l 15 694 l 204 694 l 357 250 l 494 694 l 683 694 m 208 771 q 142 797 168 771 q 115 863 115 822 q 142 928 115 903 q 208 954 168 954 q 275 928 249 954 q 301 863 301 901 q 275 797 301 824 q 208 771 249 771 m 500 771 q 433 797 460 771 q 407 863 407 824 q 433 928 407 901 q 500 954 460 954 q 567 928 540 954 q 593 863 593 903 q 567 797 593 822 q 500 771 540 771 z "},"ẏ":{"ha":701,"x_min":4,"x_max":683,"o":"m 683 694 l 418 -32 q 299 -208 375 -149 q 118 -267 224 -267 q 4 -251 63 -267 l 4 -111 q 46 -121 21 -117 q 90 -125 71 -125 q 195 -83 151 -125 q 274 51 239 -40 l 15 694 l 204 694 l 357 250 l 494 694 l 683 694 m 354 771 q 288 797 314 771 q 261 863 261 824 q 288 928 261 901 q 354 954 314 954 q 421 928 394 954 q 447 863 447 901 q 421 797 447 824 q 354 771 394 771 z "},"ỵ":{"ha":701,"x_min":4,"x_max":683,"o":"m 683 694 l 418 -32 q 299 -208 375 -149 q 118 -267 224 -267 q 4 -251 63 -267 l 4 -111 q 46 -121 21 -117 q 90 -125 71 -125 q 195 -83 151 -125 q 274 51 239 -40 l 15 694 l 204 694 l 357 250 l 494 694 l 683 694 m 547 -283 q 481 -257 507 -283 q 454 -192 454 -231 q 481 -126 454 -153 q 547 -100 507 -100 q 614 -126 588 -100 q 640 -192 640 -153 q 614 -257 640 -231 q 547 -283 588 -283 z "},"ỳ":{"ha":701,"x_min":4,"x_max":683,"o":"m 683 694 l 418 -32 q 299 -208 375 -149 q 118 -267 224 -267 q 4 -251 63 -267 l 4 -111 q 46 -121 21 -117 q 90 -125 71 -125 q 195 -83 151 -125 q 274 51 239 -40 l 15 694 l 204 694 l 357 250 l 494 694 l 683 694 m 133 996 l 306 996 l 424 771 l 282 771 l 133 996 z "},"ỷ":{"ha":701,"x_min":4,"x_max":683,"o":"m 683 694 l 418 -32 q 299 -208 375 -149 q 118 -267 224 -267 q 4 -251 63 -267 l 4 -111 q 46 -121 21 -117 q 90 -125 71 -125 q 195 -83 151 -125 q 274 51 239 -40 l 15 694 l 204 694 l 357 250 l 494 694 l 683 694 m 289 771 q 304 835 289 811 q 347 885 319 860 q 378 919 368 904 q 389 956 389 935 q 343 992 389 992 q 256 922 290 992 l 182 990 q 255 1066 208 1039 q 357 1093 301 1093 q 474 1059 432 1093 q 517 965 517 1025 q 503 907 517 931 q 463 856 489 883 q 428 813 440 832 q 417 771 417 794 l 289 771 z "},"ỹ":{"ha":701,"x_min":4,"x_max":683,"o":"m 683 694 l 418 -32 q 299 -208 375 -149 q 118 -267 224 -267 q 4 -251 63 -267 l 4 -111 q 46 -121 21 -117 q 90 -125 71 -125 q 195 -83 151 -125 q 274 51 239 -40 l 15 694 l 204 694 l 357 250 l 494 694 l 683 694 m 118 771 q 160 900 118 854 q 264 946 203 946 q 317 935 292 946 q 371 907 342 925 q 403 889 388 897 q 432 881 419 881 q 469 951 469 881 l 581 951 q 537 817 581 863 q 431 771 493 771 q 378 781 401 771 q 314 814 354 792 q 267 836 279 836 q 241 818 251 836 q 229 771 231 800 l 118 771 z "},"z":{"ha":661,"x_min":29,"x_max":632,"o":"m 29 94 l 401 561 l 49 561 l 49 694 l 617 694 l 617 608 l 250 133 l 632 133 l 632 0 l 29 0 l 29 94 z "},"ź":{"ha":661,"x_min":29,"x_max":632,"o":"m 29 94 l 401 561 l 49 561 l 49 694 l 617 694 l 617 608 l 250 133 l 632 133 l 632 0 l 29 0 l 29 94 m 378 996 l 550 996 l 401 771 l 260 771 l 378 996 z "},"ž":{"ha":661,"x_min":29,"x_max":632,"o":"m 29 94 l 401 561 l 49 561 l 49 694 l 617 694 l 617 608 l 250 133 l 632 133 l 632 0 l 29 0 l 29 94 m 93 996 l 247 996 l 331 888 l 414 996 l 568 996 l 382 771 l 279 771 l 93 996 z "},"ż":{"ha":661,"x_min":29,"x_max":632,"o":"m 29 94 l 401 561 l 49 561 l 49 694 l 617 694 l 617 608 l 250 133 l 632 133 l 632 0 l 29 0 l 29 94 m 331 771 q 264 797 290 771 q 238 863 238 824 q 264 928 238 901 q 331 954 290 954 q 397 928 371 954 q 424 863 424 901 q 397 797 424 824 q 331 771 371 771 z "},"ẓ":{"ha":661,"x_min":29,"x_max":632,"o":"m 29 94 l 401 561 l 49 561 l 49 694 l 617 694 l 617 608 l 250 133 l 632 133 l 632 0 l 29 0 l 29 94 m 331 -283 q 264 -257 290 -283 q 238 -192 238 -231 q 264 -126 238 -153 q 331 -100 290 -100 q 397 -126 371 -100 q 424 -192 424 -153 q 397 -257 424 -231 q 331 -283 371 -283 z "},"ﬁ":{"ha":854,"x_min":15,"x_max":804,"o":"m 129 574 l 15 574 l 15 694 l 129 694 l 129 778 q 193 938 129 879 q 368 996 257 996 q 464 980 419 996 q 536 936 508 964 l 475 831 q 436 854 458 846 q 392 863 414 863 q 328 836 351 863 q 306 764 306 810 l 306 694 l 501 694 l 501 574 l 306 574 l 306 0 l 129 0 l 129 574 m 690 775 q 608 803 639 775 q 578 879 578 832 q 608 955 578 926 q 690 983 639 983 q 773 955 742 983 q 804 879 804 926 q 774 803 804 832 q 690 775 743 775 m 603 694 l 779 694 l 779 0 l 603 0 l 603 694 z "},"ﬂ":{"ha":907,"x_min":15,"x_max":926,"o":"m 129 574 l 15 574 l 15 694 l 129 694 l 129 778 q 193 938 129 879 q 368 996 257 996 q 464 980 419 996 q 536 936 508 964 l 475 831 q 436 854 458 846 q 392 863 414 863 q 328 836 351 863 q 306 764 306 810 l 306 694 l 501 694 l 501 574 l 306 574 l 306 0 l 129 0 l 129 574 m 763 -14 q 627 34 674 -14 q 581 172 581 82 l 581 1031 l 757 1031 l 757 169 q 773 124 757 139 q 821 110 789 110 q 900 128 853 110 l 926 33 q 763 -14 864 -14 z "},"ª":{"ha":503,"x_min":40,"x_max":460,"o":"m 189 501 q 82 542 124 501 q 40 649 40 583 q 88 753 40 717 q 224 789 135 789 l 313 789 l 313 807 q 236 883 313 883 q 117 828 164 883 l 56 897 q 139 960 89 939 q 251 982 189 982 q 399 939 349 982 q 449 814 449 896 l 449 610 q 452 562 449 590 q 460 510 456 533 l 335 510 q 324 564 331 526 q 272 519 310 536 q 189 501 233 501 m 232 590 q 290 615 268 590 q 313 674 313 639 l 313 708 l 256 708 q 175 649 175 708 q 190 606 175 621 q 232 590 206 590 z "},"º":{"ha":542,"x_min":32,"x_max":510,"o":"m 271 501 q 95 565 158 501 q 32 742 32 629 q 95 918 32 854 q 271 982 158 982 q 447 918 383 982 q 510 742 510 854 q 447 565 510 629 q 271 501 383 501 m 271 597 q 346 635 319 597 q 372 742 372 674 q 346 848 372 810 q 271 886 319 886 q 196 848 222 886 q 169 742 169 810 q 196 635 169 674 q 271 597 222 597 z "},"ⁿ":{"ha":542,"x_min":43,"x_max":479,"o":"m 46 850 l 44 938 q 43 972 43 953 l 176 972 q 179 893 181 917 l 183 893 q 321 982 219 982 q 447 924 414 982 q 479 806 479 867 l 479 511 l 340 511 l 340 771 q 272 872 340 872 q 209 842 233 872 q 185 763 185 811 l 185 511 l 46 511 l 46 850 z "},"Δ":{"ha":911,"x_min":13,"x_max":899,"o":"m 13 79 l 406 972 l 506 972 l 899 79 l 899 0 l 13 0 l 13 79 m 685 142 l 456 696 l 225 142 l 685 142 z "},"Ω":{"ha":1078,"x_min":46,"x_max":1032,"o":"m 46 147 l 249 147 q 119 319 167 213 q 72 546 72 425 q 128 780 72 681 q 290 933 185 879 q 540 986 396 986 q 789 933 683 986 q 951 780 894 879 q 1007 546 1007 681 q 960 319 1007 426 q 831 147 913 213 l 1032 147 l 1032 0 l 599 0 l 599 154 q 751 279 696 179 q 807 529 807 379 q 735 747 807 668 q 540 826 664 826 q 343 747 415 826 q 271 529 271 668 q 327 278 271 378 q 481 156 383 178 l 481 0 l 46 0 l 46 147 z "},"μ":{"ha":779,"x_min":67,"x_max":721,"o":"m 67 694 l 244 694 l 244 301 q 274 172 244 214 q 367 129 304 129 q 485 186 439 129 q 532 326 532 243 l 532 694 l 710 694 l 710 176 q 721 0 710 106 l 554 0 q 540 99 543 38 l 538 99 q 469 14 510 42 q 364 -14 428 -14 q 242 25 294 -14 l 242 -283 l 67 -283 l 67 694 z "},"π":{"ha":921,"x_min":25,"x_max":882,"o":"m 738 -14 q 622 22 665 -14 q 579 131 579 58 l 579 561 l 328 561 l 328 -1 l 150 -1 l 150 561 l 25 561 l 25 694 l 882 694 l 882 561 l 757 561 l 757 188 q 811 132 757 132 q 875 143 838 132 l 875 18 q 738 -14 808 -14 z "},"ก":{"ha":829,"x_min":46,"x_max":742,"o":"m 92 322 q 117 413 92 372 q 189 474 143 453 q 46 499 144 486 q 93 663 47 592 q 221 774 139 735 q 408 814 303 814 q 583 778 507 814 q 700 677 658 742 q 742 528 742 613 l 742 0 l 564 0 l 564 508 q 517 628 564 582 q 394 675 471 675 q 278 647 331 675 q 208 575 226 619 q 298 550 254 565 q 369 517 342 535 l 369 467 q 295 414 321 449 q 269 331 269 379 l 269 0 l 92 0 l 92 322 z "},"ข":{"ha":878,"x_min":17,"x_max":789,"o":"m 789 800 l 789 197 q 722 41 789 96 q 529 -14 654 -14 q 337 41 403 -14 q 271 197 271 96 l 271 292 q 285 364 271 333 q 328 438 299 394 q 373 517 358 483 q 388 597 388 550 q 358 673 388 647 q 278 699 329 699 q 204 686 232 699 q 294 648 257 683 q 331 549 331 613 q 290 444 331 488 q 178 401 250 401 q 60 449 103 401 q 17 582 17 496 q 89 750 17 686 q 286 814 161 814 q 478 761 408 814 q 549 614 549 708 q 534 519 549 557 q 492 429 519 481 q 458 365 469 392 q 447 304 447 338 l 447 196 q 469 143 447 161 q 531 125 490 125 q 590 143 569 125 q 611 196 611 161 l 611 800 l 789 800 m 239 546 q 222 590 239 574 q 178 607 206 607 q 133 590 150 607 q 115 546 115 574 q 133 501 115 518 q 178 485 150 485 q 222 502 206 485 q 239 546 239 519 z "},"ฃ":{"ha":911,"x_min":17,"x_max":822,"o":"m 822 800 l 822 197 q 755 41 822 96 q 563 -14 688 -14 q 370 41 436 -14 q 304 197 304 96 l 304 281 q 318 355 304 324 q 363 433 332 386 q 408 515 393 479 q 424 597 424 550 q 385 694 424 665 l 306 635 l 219 693 q 176 636 189 674 l 183 636 q 286 596 246 636 q 326 493 326 556 q 284 390 326 429 q 176 351 242 351 q 61 405 106 351 q 17 546 17 458 q 72 719 17 644 q 218 814 128 794 l 306 743 l 394 814 q 531 749 476 799 q 585 618 585 699 q 569 518 585 560 q 525 424 554 476 q 492 356 503 383 q 481 294 481 328 l 481 196 q 502 143 481 161 q 564 125 524 125 q 624 143 603 125 q 644 196 644 161 l 644 800 l 822 800 m 239 494 q 222 539 239 522 q 176 556 204 556 q 133 539 150 556 q 115 494 115 522 q 132 449 115 467 q 176 432 149 432 q 222 449 204 432 q 239 494 239 467 z "},"ค":{"ha":867,"x_min":42,"x_max":779,"o":"m 417 814 q 682 741 585 814 q 779 542 779 668 l 779 0 l 601 0 l 601 524 q 552 635 601 594 q 417 675 503 675 q 267 632 322 675 q 213 513 213 589 q 228 376 213 468 q 299 503 251 458 q 415 549 347 549 q 522 514 483 549 q 560 417 560 479 q 524 321 560 356 q 425 286 488 286 q 366 297 393 286 q 324 329 339 308 q 288 251 301 297 q 274 158 274 204 l 274 0 l 101 0 l 101 208 q 75 333 101 239 q 50 439 58 400 q 42 511 42 478 q 141 732 42 650 q 417 814 240 814 m 422 474 q 381 458 397 474 q 365 418 365 443 q 381 376 365 392 q 422 361 397 361 q 463 376 447 361 q 478 418 478 392 q 463 458 478 443 q 422 474 447 474 z "},"ฅ":{"ha":872,"x_min":42,"x_max":785,"o":"m 569 814 q 726 725 668 800 q 785 539 785 650 l 785 0 l 607 0 l 607 539 q 595 622 607 590 q 556 672 583 653 l 424 592 l 279 679 q 228 617 244 656 q 213 515 213 578 q 229 350 213 472 q 302 474 254 429 q 418 518 350 518 q 524 484 485 518 q 563 388 563 450 q 526 291 563 326 q 426 256 490 256 q 369 268 396 256 q 326 301 342 281 q 288 225 303 269 q 274 135 274 181 l 274 0 l 101 0 l 101 208 q 75 333 101 239 q 50 439 58 400 q 42 511 42 478 q 102 707 42 625 q 285 814 163 789 l 425 718 l 569 814 m 425 443 q 383 428 399 443 q 368 388 368 413 q 383 346 368 361 q 425 331 399 331 q 465 346 450 331 q 481 388 481 361 q 465 428 481 413 q 425 443 450 443 z "},"ฆ":{"ha":943,"x_min":17,"x_max":854,"o":"m 854 801 l 854 0 l 692 0 q 625 91 671 49 q 522 158 579 133 l 522 151 q 470 33 522 79 q 340 -14 418 -14 q 211 31 260 -14 q 163 147 163 76 q 206 258 163 214 q 310 304 249 301 q 324 368 311 339 q 364 436 338 397 q 408 519 393 485 q 422 597 422 553 q 411 654 422 629 q 379 694 400 679 l 303 635 l 219 693 q 176 636 189 674 l 183 636 q 286 596 246 636 q 326 493 326 556 q 284 390 326 429 q 176 351 242 351 q 61 405 106 351 q 17 546 17 458 q 72 719 17 644 q 218 814 128 794 l 303 743 l 389 814 q 524 749 469 799 q 578 618 578 699 q 563 524 578 563 q 521 435 549 485 q 490 374 500 397 q 481 322 481 350 l 481 300 q 676 201 611 274 l 676 801 l 854 801 m 239 494 q 222 539 239 522 q 176 556 204 556 q 133 539 150 556 q 115 494 115 522 q 132 449 115 467 q 176 432 149 432 q 222 449 204 432 q 239 494 239 467 m 336 83 q 381 101 364 83 q 399 144 399 118 q 381 190 399 172 q 336 207 364 207 q 291 190 308 207 q 274 144 274 172 q 291 100 274 117 q 336 83 308 83 z "},"ง":{"ha":669,"x_min":18,"x_max":581,"o":"m 408 814 q 533 769 485 814 q 581 653 581 724 l 581 0 l 404 0 l 18 410 l 114 510 l 404 197 l 404 515 l 397 515 q 287 556 329 515 q 244 664 244 597 q 290 772 244 729 q 408 814 336 814 m 396 601 q 441 619 424 601 q 458 664 458 636 q 441 709 458 692 q 396 726 424 726 q 351 709 369 726 q 333 664 333 692 q 351 619 333 638 q 396 601 369 601 z "}}}
